<svg width="31" height="31" viewBox="0 0 31 31" fill="none" xmlns="http://www.w3.org/2000/svg">
<g clip-path="url(#clip0_1_3932)">
<path d="M29.6211 15.0303C29.6211 7.00293 23.1172 0.499023 15.0898 0.499023C7.0625 0.499023 0.558594 7.00293 0.558594 15.0303C0.558594 22.283 5.87246 28.2947 12.8193 29.3857V19.2309H9.12793V15.0303H12.8193V11.8287C12.8193 8.18711 14.9873 6.17559 18.3078 6.17559C19.898 6.17559 21.5609 6.45918 21.5609 6.45918V10.0334H19.7281C17.9234 10.0334 17.3604 11.1537 17.3604 12.3027V15.0303H21.3904L20.7459 19.2309H17.3604V29.3857C24.3072 28.2947 29.6211 22.283 29.6211 15.0303Z" fill="black"/>
</g>
<defs>
<clipPath id="clip0_1_3932">
<rect width="30" height="30" fill="white" transform="translate(0.0898438 0.0302734)"/>
</clipPath>
</defs>
</svg>
