<svg width="30" height="31" viewBox="0 0 30 31" fill="none" xmlns="http://www.w3.org/2000/svg">
<path d="M15.0059 8.29199C11.2793 8.29199 8.27344 11.2979 8.27344 15.0244C8.27344 18.751 11.2793 21.7568 15.0059 21.7568C18.7324 21.7568 21.7383 18.751 21.7383 15.0244C21.7383 11.2979 18.7324 8.29199 15.0059 8.29199ZM15.0059 19.4014C12.5977 19.4014 10.6289 17.4385 10.6289 15.0244C10.6289 12.6104 12.5918 10.6475 15.0059 10.6475C17.4199 10.6475 19.3828 12.6104 19.3828 15.0244C19.3828 17.4385 17.4141 19.4014 15.0059 19.4014ZM23.584 8.0166C23.584 8.88965 22.8809 9.58691 22.0137 9.58691C21.1406 9.58691 20.4434 8.88379 20.4434 8.0166C20.4434 7.14941 21.1465 6.44629 22.0137 6.44629C22.8809 6.44629 23.584 7.14941 23.584 8.0166ZM28.043 9.61035C27.9434 7.50684 27.4629 5.64355 25.9219 4.1084C24.3867 2.57324 22.5234 2.09277 20.4199 1.9873C18.252 1.86426 11.7539 1.86426 9.58594 1.9873C7.48828 2.08691 5.625 2.56738 4.08398 4.10254C2.54297 5.6377 2.06836 7.50098 1.96289 9.60449C1.83984 11.7725 1.83984 18.2705 1.96289 20.4385C2.0625 22.542 2.54297 24.4053 4.08398 25.9404C5.625 27.4756 7.48242 27.9561 9.58594 28.0615C11.7539 28.1846 18.252 28.1846 20.4199 28.0615C22.5234 27.9619 24.3867 27.4814 25.9219 25.9404C27.457 24.4053 27.9375 22.542 28.043 20.4385C28.166 18.2705 28.166 11.7783 28.043 9.61035ZM25.2422 22.7646C24.7852 23.9131 23.9004 24.7979 22.7461 25.2607C21.0176 25.9463 16.916 25.7881 15.0059 25.7881C13.0957 25.7881 8.98828 25.9404 7.26562 25.2607C6.11719 24.8037 5.23242 23.9189 4.76953 22.7646C4.08398 21.0361 4.24219 16.9346 4.24219 15.0244C4.24219 13.1143 4.08984 9.00684 4.76953 7.28418C5.22656 6.13574 6.11133 5.25098 7.26562 4.78809C8.99414 4.10254 13.0957 4.26074 15.0059 4.26074C16.916 4.26074 21.0234 4.1084 22.7461 4.78809C23.8945 5.24512 24.7793 6.12988 25.2422 7.28418C25.9277 9.0127 25.7695 13.1143 25.7695 15.0244C25.7695 16.9346 25.9277 21.042 25.2422 22.7646Z" fill="black"/>
</svg>
