<svg width="31" height="31" viewBox="0 0 31 31" fill="none" xmlns="http://www.w3.org/2000/svg">
<g clip-path="url(#clip0_1_3929)">
<path d="M7.81084 26.2802H2.36865V8.75478H7.81084V26.2802ZM5.08682 6.36416C3.34658 6.36416 1.93506 4.92275 1.93506 3.18252C1.93506 2.34662 2.26712 1.54496 2.85819 0.95389C3.44926 0.362821 4.25092 0.0307617 5.08682 0.0307617C5.92271 0.0307617 6.72438 0.362821 7.31545 0.95389C7.90651 1.54496 8.23857 2.34662 8.23857 3.18252C8.23857 4.92275 6.82647 6.36416 5.08682 6.36416ZM28.1792 26.2802H22.7487V17.7489C22.7487 15.7157 22.7077 13.1083 19.9192 13.1083C17.0897 13.1083 16.6562 15.3173 16.6562 17.6024V26.2802H11.2198V8.75478H16.4394V11.1454H16.5155C17.2421 9.76846 19.0169 8.31533 21.6647 8.31533C27.1726 8.31533 28.1851 11.9423 28.1851 16.6532V26.2802H28.1792Z" fill="black"/>
</g>
<defs>
<clipPath id="clip0_1_3929">
<rect width="30" height="30" fill="white" transform="translate(0.0600586 0.0302734)"/>
</clipPath>
</defs>
</svg>
