<svg width="21" height="21" viewBox="0 0 21 21" fill="none" xmlns="http://www.w3.org/2000/svg">
<g clip-path="url(#clip0_1_3947)">
<g clip-path="url(#clip1_1_3947)">
<g clip-path="url(#clip2_1_3947)">
<path d="M10.3896 20.0298C15.9125 20.0298 20.3896 15.5526 20.3896 10.0298C20.3896 4.50694 15.9125 0.0297852 10.3896 0.0297852C4.8668 0.0297852 0.389648 4.50694 0.389648 10.0298C0.389648 15.5526 4.8668 20.0298 10.3896 20.0298Z" fill="#496E2D"/>
<path d="M6.04199 11.9829C6.04199 12.7056 6.62793 13.2915 7.34668 13.2915H11.2607C11.2607 13.5795 11.3752 13.8557 11.5788 14.0594C11.7825 14.263 12.0587 14.3774 12.3467 14.3774H13.6514C13.9394 14.3774 14.2156 14.263 14.4192 14.0594C14.6229 13.8557 14.7373 13.5795 14.7373 13.2915V11.9829H6.04199ZM14.8467 5.68213V8.729C14.8467 9.20557 14.4561 9.59619 13.9756 9.59619V10.9009C15.1748 10.9009 16.1514 9.92432 16.1514 8.7251V5.68213H14.8428H14.8467ZM5.49902 8.729C5.49902 9.20557 5.1084 9.59619 4.62793 9.59619V10.9009C5.82715 10.9009 6.80371 9.92432 6.80371 8.7251V5.68213H5.49902V8.729Z" fill="#EEEEEE"/>
<path d="M12.8896 5.68213H14.1943V8.729H12.8896V5.68213ZM10.9365 7.42041C10.9365 7.47843 10.9135 7.53407 10.8725 7.57509C10.8314 7.61611 10.7758 7.63916 10.7178 7.63916C10.6598 7.63916 10.6041 7.61611 10.5631 7.57509C10.5221 7.53407 10.499 7.47843 10.499 7.42041V5.68213H9.19434V7.42041C9.18727 7.4729 9.16141 7.52105 9.12154 7.55591C9.08167 7.59078 9.0305 7.60999 8.97754 7.60999C8.92458 7.60999 8.87341 7.59078 8.83354 7.55591C8.79367 7.52105 8.7678 7.4729 8.76074 7.42041V5.68213H7.45605V7.42041C7.45605 7.82445 7.61656 8.21194 7.90226 8.49764C8.18796 8.78334 8.57545 8.94385 8.97949 8.94385C9.28977 8.94385 9.59253 8.84839 9.84668 8.67041C10.1008 8.84839 10.4036 8.94385 10.7139 8.94385C10.7803 8.94385 10.8467 8.93994 10.9092 8.93213C10.8629 9.12116 10.7547 9.28926 10.6018 9.40962C10.4489 9.52998 10.26 9.59566 10.0654 9.59619V10.9009C11.2607 10.9009 12.2373 9.92432 12.2373 8.7251V5.68213H10.9365V7.42041Z" fill="#EEEEEE"/>
<path d="M7.45605 9.59619H9.40918V10.9009H7.45605V9.59619Z" fill="#EEEEEE"/>
</g>
</g>
</g>
<defs>
<clipPath id="clip0_1_3947">
<rect width="20" height="20" fill="white" transform="translate(0.389648 0.0297852)"/>
</clipPath>
<clipPath id="clip1_1_3947">
<rect width="20" height="20" fill="white" transform="translate(0.389648 0.0297852)"/>
</clipPath>
<clipPath id="clip2_1_3947">
<rect width="20" height="20" fill="white" transform="translate(0.389648 0.0297852)"/>
</clipPath>
</defs>
</svg>
