<svg width="24" height="25" viewBox="0 0 24 25" fill="none" xmlns="http://www.w3.org/2000/svg">
<g clip-path="url(#clip0_1_3878)">
<g clip-path="url(#clip1_1_3878)">
<g clip-path="url(#clip2_1_3878)">
<path d="M11.9999 24.06C10.0257 24.0655 8.08071 23.5835 6.3376 22.6566C4.59448 21.7298 3.10719 20.3869 2.00779 18.7471C0.908384 17.1074 0.230888 15.2215 0.0354577 13.257C-0.159973 11.2925 0.132707 9.31012 0.887511 7.48591C1.64232 5.66169 2.83589 4.05208 4.36225 2.8C5.88861 1.54791 7.70052 0.692098 9.63711 0.308543C11.5737 -0.0750118 13.575 0.0255595 15.4634 0.60133C17.3518 1.1771 19.0688 2.21026 20.4619 3.60906C22.1319 5.28581 23.2683 7.41923 23.7281 9.74063C24.1879 12.062 23.9504 14.4676 23.0456 16.6543C22.1408 18.841 20.6092 20.711 18.6436 22.0289C16.678 23.3467 14.3664 24.0534 11.9999 24.06ZM11.9999 4.87603C10.8144 4.87047 9.64595 5.15796 8.59837 5.71293C7.5508 6.2679 6.65661 7.07316 5.99534 8.05709C5.33406 9.04102 4.92618 10.1731 4.80799 11.3527C4.68979 12.5323 4.86494 13.7228 5.31785 14.8184C5.77076 15.914 6.4874 16.8806 7.40404 17.6324C8.32067 18.3842 9.40889 18.8978 10.5719 19.1276C11.7349 19.3573 12.9367 19.2961 14.0704 18.9493C15.204 18.6026 16.2344 17.9811 17.0699 17.14C17.755 16.4875 18.2974 15.7001 18.663 14.8275C19.0286 13.9549 19.2094 13.016 19.1939 12.07C19.1941 11.1252 19.008 10.1897 18.6465 9.31674C18.285 8.44383 17.7551 7.65069 17.087 6.98264C16.4189 6.31458 15.6257 5.78469 14.7527 5.42324C13.8798 5.06178 12.9447 4.87583 11.9999 4.87603Z" fill="#9057CD"/>
</g>
</g>
</g>
<defs>
<clipPath id="clip0_1_3878">
<rect width="24" height="23.98" fill="white" transform="translate(0 0.0800781)"/>
</clipPath>
<clipPath id="clip1_1_3878">
<rect width="24" height="23.98" fill="white" transform="translate(0 0.0800781)"/>
</clipPath>
<clipPath id="clip2_1_3878">
<rect width="23.9805" height="23.98" fill="white" transform="translate(0.00976562 0.0800781)"/>
</clipPath>
</defs>
</svg>
