<svg width="197" height="61" viewBox="0 0 197 61" fill="none" xmlns="http://www.w3.org/2000/svg">
<g clip-path="url(#clip0_1_3732)">
<g clip-path="url(#clip1_1_3732)">
<g clip-path="url(#clip2_1_3732)">
<path d="M187.885 59.7378H8.2854C6.39303 59.7432 4.57548 58.9716 3.22953 57.5916C1.88358 56.2114 1.11859 54.3348 1.10156 52.3716V8.17006C1.11832 6.20661 1.8832 4.3298 3.22917 2.94945C4.57514 1.56911 6.39286 0.797356 8.2854 0.802763H187.885C189.777 0.797356 191.595 1.56911 192.94 2.94945C194.286 4.3298 195.052 6.20661 195.069 8.17006V52.3705C195.052 54.334 194.286 56.2108 192.94 57.5911C191.595 58.9715 189.777 59.7432 187.885 59.7378Z" fill="black"/>
<path d="M187.885 60.2684H8.28542C6.25009 60.2727 4.29624 59.4391 2.85277 57.9504C2.13623 57.2238 1.56691 56.356 1.1783 55.3979C0.789684 54.4397 0.589612 53.4108 0.589844 52.3713V8.16973C0.589476 7.13007 0.789481 6.10083 1.1781 5.14255C1.56672 4.18426 2.1361 3.31624 2.85277 2.58959C4.29624 1.10084 6.25009 0.267133 8.28542 0.271501H187.885C189.92 0.267133 191.873 1.10084 193.317 2.58959C194.033 3.31624 194.603 4.18426 194.992 5.14255C195.381 6.10083 195.58 7.13007 195.58 8.16973V52.3702C195.58 53.4097 195.379 54.4388 194.992 55.3968C194.603 56.3549 194.033 57.2227 193.317 57.9493C191.873 59.4384 189.92 60.2725 187.885 60.2684ZM8.28542 1.33444C6.51963 1.33072 4.82456 2.05404 3.57228 3.34564C2.95233 3.97369 2.45967 4.724 2.12326 5.55245C1.78684 6.3809 1.61347 7.27076 1.61333 8.16973V52.3702C1.61347 53.2692 1.78684 54.159 2.12326 54.9875C2.45967 55.8159 2.95233 56.5662 3.57228 57.1943C4.82456 58.4859 6.51963 59.2092 8.28542 59.2055H187.885C189.65 59.2092 191.345 58.4859 192.598 57.1943C193.217 56.5662 193.71 55.8159 194.046 54.9875C194.382 54.159 194.556 53.2692 194.556 52.3702V8.16973C194.556 7.27076 194.382 6.3809 194.046 5.55245C193.71 4.724 193.217 3.97369 192.598 3.34564C191.345 2.05404 189.65 1.33072 187.885 1.33444H8.28542Z" fill="#707070"/>
<path d="M187.885 1.98356C189.475 1.97565 191.003 2.62257 192.134 3.78237C193.265 4.94218 193.907 6.52015 193.918 8.17006V52.3705C193.907 54.0204 193.265 55.5984 192.134 56.7582C191.003 57.918 189.475 58.5648 187.885 58.557H8.2854C6.69529 58.5646 5.16719 57.9176 4.0363 56.7579C2.90541 55.598 2.26408 54.0202 2.25298 52.3705V8.17006C2.26408 6.52033 2.90541 4.94254 4.0363 3.78277C5.16719 2.62299 6.69529 1.97593 8.2854 1.98356H187.885ZM187.885 0.802763H8.2854C6.39286 0.797356 4.57514 1.56911 3.22917 2.94945C1.8832 4.3298 1.11832 6.20661 1.10156 8.17006V52.3705C1.11859 54.3337 1.88358 56.2103 3.22953 57.5905C4.57548 58.9705 6.39303 59.7421 8.2854 59.7367H187.885C189.777 59.7421 191.594 58.9705 192.94 57.5905C194.286 56.2103 195.051 54.3337 195.069 52.3705V8.17006C195.051 6.20679 194.286 4.33024 192.94 2.95013C191.594 1.57001 189.777 0.797353 187.885 0.802763Z" fill="black"/>
<path d="M69.1709 15.8635C69.1949 16.3989 69.1138 16.9338 68.9323 17.4356C68.7509 17.9374 68.4731 18.3958 68.1157 18.7827C67.7083 19.2132 67.2187 19.5508 66.6784 19.7738C66.138 19.997 65.5588 20.1007 64.9777 20.0783C64.397 20.0888 63.8202 19.9783 63.2816 19.7532C62.7429 19.5281 62.2532 19.1929 61.8418 18.7679C61.0142 17.9016 60.5498 16.7313 60.5498 15.5115C60.5498 14.2918 61.0142 13.1214 61.8418 12.2551C62.2519 11.8276 62.7411 11.4905 63.28 11.264C63.8189 11.0376 64.3963 10.9264 64.9777 10.9372C65.5791 10.9383 66.1742 11.0643 66.7278 11.3079C67.2397 11.5185 67.6958 11.8527 68.0584 12.2827L67.3153 13.0515C67.0259 12.7073 66.6649 12.4357 66.2597 12.2571C65.8544 12.0785 65.4154 11.9976 64.9757 12.0204C64.5448 12.0146 64.1171 12.0971 63.717 12.2631C63.3169 12.4291 62.9523 12.6754 62.6442 12.9878C62.0161 13.6664 61.6654 14.5707 61.6654 15.5115C61.6654 16.4523 62.0161 17.3566 62.6442 18.0351C63.2685 18.663 64.1062 19.0105 64.9757 19.0025C65.4153 19.015 65.8528 18.9351 66.262 18.7676C66.6711 18.5999 67.0433 18.3483 67.3562 18.0277C67.7946 17.5464 68.0492 16.9161 68.0727 16.2543H64.9777V15.1987H69.1074C69.1526 15.4171 69.174 15.6402 69.1709 15.8635Z" fill="white"/>
<path d="M64.9769 20.163C64.3857 20.1731 63.7986 20.0602 63.2501 19.8309C62.7016 19.6016 62.203 19.2607 61.7836 18.8282C60.9404 17.946 60.4673 16.7538 60.4673 15.5113C60.4673 14.2688 60.9404 13.0767 61.7836 12.1944C62.2018 11.7599 62.7001 11.4172 63.2487 11.1867C63.7974 10.9563 64.3851 10.8429 64.9769 10.8532C65.5891 10.8547 66.1948 10.9829 66.7587 11.2302C67.2837 11.4453 67.7515 11.7875 68.123 12.2284L68.1711 12.2878L67.3125 13.1766L67.2551 13.1065C66.974 12.7707 66.6225 12.506 66.2276 12.3325C65.8328 12.1589 65.405 12.0812 64.9769 12.1052C64.1281 12.0959 63.3102 12.4353 62.7017 13.0493C62.0898 13.7117 61.7482 14.5937 61.7482 15.5113C61.7482 16.4288 62.0898 17.3109 62.7017 17.9734C63.3116 18.585 64.1285 18.924 64.9769 18.9175C65.4059 18.9296 65.8328 18.8516 66.232 18.6883C66.6313 18.525 66.9946 18.2796 67.3002 17.967C67.7033 17.5233 67.9443 16.9475 67.9818 16.3391H64.8949V15.1157H69.1721L69.1864 15.1816C69.2331 15.4051 69.255 15.6335 69.2519 15.8623C69.2753 16.4088 69.1918 16.9544 69.0062 17.4664C68.8205 17.9784 68.5369 18.446 68.1722 18.8409C67.757 19.2791 67.2586 19.6229 66.7085 19.8506C66.1584 20.0782 65.5687 20.1846 64.9769 20.163ZM64.9769 11.0231C64.4063 11.0131 63.8396 11.1226 63.3107 11.3448C62.7817 11.567 62.3014 11.8975 61.8982 12.3165C61.0862 13.1668 60.6307 14.3154 60.6307 15.5124C60.6307 16.7094 61.0862 17.8579 61.8982 18.7082C62.3026 19.1249 62.7834 19.4535 63.3121 19.6743C63.8409 19.8952 64.4069 20.0039 64.9769 19.9942C65.5471 20.0149 66.1153 19.9123 66.6453 19.693C67.1753 19.4735 67.6555 19.1422 68.0555 18.72C68.405 18.3404 68.6767 17.8913 68.8541 17.3998C69.0316 16.9082 69.1113 16.3845 69.0881 15.8602C69.0904 15.6667 69.0743 15.4737 69.0401 15.2836H65.0587V16.1671H68.1609L68.1537 16.2594C68.1281 16.9407 67.866 17.5894 67.4158 18.0859C67.0951 18.4145 66.7138 18.6723 66.2947 18.844C65.8755 19.0158 65.4274 19.0977 64.9769 19.0852C64.0865 19.0922 63.2292 18.7364 62.5891 18.0944C61.9445 17.3999 61.5846 16.4733 61.5846 15.5092C61.5846 14.545 61.9445 13.6184 62.5891 12.9239C63.2277 12.2795 64.0859 11.923 64.9769 11.9321C65.4134 11.9119 65.8491 11.9902 66.2537 12.1616C66.6584 12.3331 67.0224 12.5934 67.3206 12.925L67.9481 12.2751C67.6001 11.8842 67.1719 11.5794 66.6953 11.3831C66.1512 11.1459 65.567 11.0235 64.9769 11.0231Z" fill="white"/>
<path d="M75.82 12.2137H71.941V14.9833H75.4382V16.0367H71.941V18.8062H75.82V19.8787H70.8428V11.1401H75.82V12.2137Z" fill="white"/>
<path d="M70.7598 11.0552H75.9008V12.2987H72.0217V14.8982H75.519V16.1216H72.0217V18.7212H75.9008V19.9637H70.7598V11.0552ZM75.737 11.2251H70.9267V19.7938H75.737V18.8912H71.8581V15.9517H75.3594V15.0682H71.8622V12.1288H75.7411L75.737 11.2251Z" fill="white"/>
<path d="M80.5158 19.8788H79.4176V12.2128H77.0391V11.1392H82.8974V12.2128H80.5168L80.5158 19.8788Z" fill="white"/>
<path d="M80.5968 19.9637H79.3308V12.2977H76.9521V11.0542H82.9744V12.2977H80.5937L80.5968 19.9637ZM79.4987 19.7938H80.433V12.1278H82.8106V11.2209H77.1159V12.1246H79.4946L79.4987 19.7938Z" fill="white"/>
<path d="M87.2236 19.8787V11.1401H88.3198V19.8787H87.2236Z" fill="white"/>
<path d="M88.4009 19.9637H87.1411V11.0552H88.4009V19.9637ZM87.3048 19.7938H88.2373V11.2208H87.3089L87.3048 19.7938Z" fill="white"/>
<path d="M93.2312 19.8788H92.1422V12.2128H89.7544V11.1392H95.6199V12.2128H93.2322L93.2312 19.8788Z" fill="white"/>
<path d="M93.3124 19.9637H92.0596V12.2977H89.6719V11.0542H95.7012V12.2977H93.3134L93.3124 19.9637ZM92.2234 19.7938H93.1445V12.1278H95.5324V11.2209H89.8305V12.1246H92.2183L92.2234 19.7938Z" fill="white"/>
<path d="M106.832 18.7542C105.996 19.6033 104.874 20.0789 103.704 20.0789C102.535 20.0789 101.412 19.6033 100.577 18.7542C99.7708 17.8809 99.3208 16.7183 99.3208 15.509C99.3208 14.2997 99.7708 13.1371 100.577 12.2638C101.411 11.4149 102.532 10.94 103.7 10.9414C104.868 10.9428 105.989 11.4204 106.82 12.2712C107.63 13.1409 108.083 14.3024 108.084 15.5113C108.085 16.7202 107.635 17.8826 106.827 18.7542H106.832ZM101.389 18.0216C102.007 18.6509 102.838 19.0035 103.704 19.0035C104.57 19.0035 105.401 18.6509 106.019 18.0216C106.63 17.3383 106.97 16.4406 106.97 15.5085C106.97 14.5764 106.63 13.6787 106.019 12.9955C105.401 12.3661 104.57 12.0135 103.704 12.0135C102.838 12.0135 102.007 12.3661 101.389 12.9955C100.778 13.6787 100.438 14.5764 100.438 15.5085C100.438 16.4406 100.778 17.3383 101.389 18.0216Z" fill="white"/>
<path d="M103.707 20.1635C103.114 20.1776 102.526 20.065 101.977 19.8328C101.428 19.6006 100.932 19.2537 100.518 18.8138C99.6965 17.9243 99.2383 16.7402 99.2383 15.5086C99.2383 14.277 99.6965 13.0929 100.518 12.2033C101.367 11.337 102.51 10.8521 103.701 10.8535C104.892 10.8549 106.034 11.3424 106.882 12.2108C107.706 13.0965 108.167 14.2791 108.168 15.5103C108.17 16.7414 107.711 17.925 106.889 18.8127C106.476 19.2524 105.981 19.5992 105.433 19.8315C104.886 20.0639 104.298 20.177 103.707 20.1635ZM103.707 11.0235C103.136 11.0102 102.57 11.1187 102.041 11.3423C101.513 11.5659 101.035 11.8998 100.636 12.3234C99.8451 13.1807 99.4035 14.322 99.4035 15.5091C99.4035 16.6962 99.8451 17.8374 100.636 18.6949C101.456 19.5286 102.559 19.9958 103.707 19.9958C104.855 19.9958 105.957 19.5286 106.777 18.6949C107.178 18.277 107.494 17.7794 107.704 17.2319C107.916 16.6845 108.018 16.0985 108.005 15.5091C108.013 14.92 107.907 14.3354 107.694 13.7894C107.481 13.2435 107.165 12.7471 106.764 12.3294C106.364 11.9116 105.887 11.581 105.362 11.3568C104.837 11.1326 104.275 11.0192 103.707 11.0235ZM103.707 19.0889C103.266 19.097 102.827 19.0121 102.419 18.8389C102.01 18.6659 101.64 18.4084 101.33 18.0821C100.704 17.383 100.355 16.4637 100.355 15.5091C100.355 14.5544 100.704 13.6351 101.33 12.936C101.964 12.2905 102.816 11.9288 103.704 11.9288C104.592 11.9288 105.444 12.2905 106.077 12.936C106.703 13.6353 107.051 14.5542 107.051 15.5086C107.051 16.4629 106.703 17.3819 106.077 18.0811C105.77 18.4084 105.4 18.6666 104.993 18.8399C104.585 19.0133 104.147 19.098 103.707 19.0889ZM103.707 12.0993C103.287 12.0888 102.869 12.1683 102.48 12.3327C102.091 12.4971 101.739 12.7431 101.446 13.055C100.851 13.7224 100.52 14.5982 100.52 15.5075C100.52 16.4168 100.851 17.2927 101.446 17.9601C102.049 18.5735 102.859 18.9171 103.703 18.9171C104.547 18.9171 105.358 18.5735 105.961 17.9601C106.556 17.2927 106.887 16.4166 106.887 15.507C106.887 14.5974 106.556 13.7214 105.961 13.0539C105.668 12.7435 105.317 12.4987 104.929 12.3344C104.541 12.1702 104.125 12.0902 103.707 12.0993Z" fill="white"/>
<path d="M109.73 19.8787V11.1401H111.06L115.205 17.9364H115.253L115.205 16.2565V11.1401H116.301V19.8787H115.156L110.817 12.7468H110.769L110.817 14.4342V19.8787H109.73Z" fill="white"/>
<path d="M116.385 19.9637H115.114L115.089 19.9243L110.859 12.9731L110.9 14.4321V19.9637H109.647V11.0552H111.107L111.132 11.0944L115.166 17.7113L115.125 16.2586V11.0552H116.385V19.9637ZM115.204 19.7938H116.221V11.2208H115.289V16.2523L115.339 18.0171H115.162L115.137 17.9779L111.018 11.2208H109.812V19.7894H110.733V14.4299L110.683 12.6576H110.86L110.885 12.697L115.204 19.7938Z" fill="white"/>
<path d="M100.019 33.1389C98.8415 33.1588 97.6958 33.5393 96.7259 34.2325C95.756 34.9258 95.0052 35.9009 94.5678 37.0356C94.1303 38.1701 94.0258 39.4135 94.2672 40.6095C94.5086 41.8055 95.0853 42.9008 95.9249 43.7579C96.7644 44.615 97.8293 45.1955 98.9859 45.4268C100.142 45.6579 101.339 45.5293 102.425 45.0573C103.512 44.5851 104.439 43.7905 105.092 42.7732C105.744 41.7559 106.092 40.5612 106.092 39.3392C106.099 38.5144 105.946 37.6966 105.643 36.9344C105.338 36.1723 104.89 35.4814 104.323 34.9028C103.756 34.3243 103.083 33.87 102.344 33.567C101.605 33.2639 100.814 33.1184 100.019 33.1389ZM100.019 43.0961C99.2938 43.1404 98.5721 42.9575 97.948 42.5714C97.3238 42.1852 96.8258 41.6135 96.5185 40.9302C96.2111 40.2471 96.1086 39.4838 96.2242 38.7395C96.3399 37.995 96.6683 37.3039 97.1669 36.7554C97.6654 36.2069 98.3114 35.8264 99.0208 35.6632C99.7303 35.5 100.471 35.5616 101.146 35.84C101.821 36.1183 102.401 36.6007 102.809 37.2247C103.217 37.8485 103.435 38.5853 103.435 39.3392C103.455 39.8203 103.381 40.3005 103.219 40.7517C103.057 41.2028 102.81 41.6159 102.492 41.966C102.173 42.3163 101.79 42.5968 101.366 42.7908C100.941 42.985 100.483 43.0888 100.019 43.0961ZM86.7825 33.1389C85.6045 33.1574 84.4581 33.5366 83.4872 34.229C82.5163 34.9214 81.7645 35.896 81.3259 37.0305C80.8873 38.165 80.7817 39.4086 81.0224 40.605C81.2631 41.8016 81.8392 42.8976 82.6784 43.7555C83.5177 44.6132 84.5826 45.1946 85.7394 45.4263C86.8961 45.6581 88.093 45.5299 89.1798 45.058C90.2665 44.5861 91.1946 43.7915 91.8474 42.774C92.5002 41.7565 92.8485 40.5615 92.8486 39.3392C92.8561 38.515 92.7037 37.6976 92.4005 36.9357C92.0971 36.1739 91.6493 35.4832 91.0834 34.9046C90.5174 34.3261 89.8451 33.8717 89.1064 33.5684C88.3677 33.265 87.5767 33.119 86.7825 33.1389ZM86.7825 43.0961C86.0565 43.1421 85.334 42.9606 84.7086 42.5755C84.0832 42.1903 83.5838 41.619 83.2752 40.9357C82.9665 40.2525 82.8629 39.4889 82.9776 38.7437C83.0923 37.9986 83.4201 37.3064 83.9186 36.757C84.417 36.2075 85.0632 35.826 85.7731 35.6622C86.483 35.4983 87.2239 35.5595 87.9 35.8378C88.576 36.1161 89.1558 36.5987 89.5643 37.223C89.9728 37.8473 90.1909 38.5847 90.1907 39.3392C90.2095 39.8192 90.1359 40.2983 89.9741 40.7484C89.8122 41.1985 89.5654 41.6107 89.248 41.9606C88.9307 42.3104 88.5493 42.5911 88.126 42.786C87.7029 42.981 87.2455 43.0865 86.7825 43.0961ZM71.0362 35.0386V37.6731H77.1719C77.0836 38.9087 76.5915 40.076 75.7769 40.9819C75.1573 41.6244 74.4164 42.1269 73.6004 42.4577C72.7845 42.7884 71.9114 42.9404 71.0362 42.9039C69.2476 42.9039 67.5323 42.1668 66.2676 40.8546C65.003 39.5425 64.2924 37.7629 64.2924 35.9073C64.2924 34.0516 65.003 32.2719 66.2676 30.9598C67.5323 29.6477 69.2476 28.9106 71.0362 28.9106C72.7551 28.8831 74.4155 29.5577 75.6593 30.7891L77.4698 28.9329C76.6192 28.0719 75.6128 27.3941 74.5087 26.9385C73.4045 26.4828 72.2243 26.2584 71.0362 26.2781C69.7957 26.2424 68.5607 26.4651 67.4045 26.9329C66.2483 27.4008 65.1943 28.1043 64.3045 29.002C63.4149 29.8998 62.7077 30.9734 62.2249 32.1595C61.742 33.3456 61.4932 34.6202 61.4932 35.9078C61.4932 37.1954 61.742 38.4699 62.2249 39.656C62.7077 40.8421 63.4149 41.9157 64.3045 42.8135C65.1943 43.7112 66.2483 44.4148 67.4045 44.8827C68.5607 45.3506 69.7957 45.5731 71.0362 45.5374C72.2499 45.5901 73.4605 45.3765 74.5893 44.9107C75.718 44.4447 76.7393 43.7371 77.5865 42.8338C78.4721 41.778 79.1187 40.5299 79.4792 39.1811C79.8395 37.8322 79.9044 36.4169 79.6692 35.0386H71.0362ZM135.44 37.0817C135.072 35.9529 134.377 34.9692 133.451 34.264C132.524 33.5586 131.412 33.1659 130.263 33.1389C129.491 33.1395 128.728 33.3024 128.018 33.6179C127.308 33.9334 126.668 34.3949 126.136 34.9744C125.603 35.554 125.189 36.2395 124.919 36.9897C124.649 37.7401 124.528 38.5392 124.564 39.3392C124.551 40.1589 124.697 40.9729 124.995 41.7325C125.292 42.4922 125.734 43.1819 126.293 43.7606C126.852 44.3392 127.52 44.7949 128.253 45.1004C128.986 45.4059 129.771 45.5548 130.561 45.5385C131.555 45.5483 132.535 45.3024 133.415 44.8228C134.294 44.3432 135.046 43.6448 135.601 42.7904L133.54 41.3822C133.228 41.91 132.788 42.3453 132.268 42.6457C131.746 42.9461 131.158 43.1016 130.561 43.0972C129.948 43.122 129.342 42.9563 128.821 42.6214C128.3 42.2865 127.887 41.7978 127.635 41.2176L135.72 37.7867L135.44 37.0817ZM127.196 39.1459C127.172 38.6929 127.234 38.2395 127.379 37.8117C127.526 37.384 127.752 36.9907 128.045 36.6547C128.339 36.3187 128.695 36.0467 129.091 35.8546C129.487 35.6625 129.916 35.554 130.353 35.5355C130.811 35.5031 131.268 35.6104 131.669 35.8442C132.069 36.0779 132.394 36.428 132.605 36.8513L127.196 39.1459ZM120.623 45.1604H123.284V26.9398H120.623V45.1604ZM116.269 34.5194H116.18C115.774 34.0697 115.281 33.7143 114.733 33.4763C114.185 33.2385 113.595 33.1234 113.001 33.1389C111.446 33.1862 109.971 33.8601 108.887 35.0175C107.804 36.1751 107.198 37.7251 107.198 39.3386C107.198 40.9522 107.804 42.5023 108.887 43.6598C109.971 44.8173 111.446 45.4912 113.001 45.5385C113.597 45.5544 114.19 45.4368 114.739 45.1936C115.287 44.9505 115.779 44.5874 116.18 44.1293H116.269V45.018C116.269 47.3882 115.035 48.6625 113.042 48.6625C112.38 48.6467 111.738 48.428 111.195 48.0341C110.653 47.64 110.236 47.0883 109.995 46.4485L107.683 47.4381C108.126 48.5311 108.872 49.4631 109.826 50.1158C110.78 50.7683 111.899 51.1122 113.042 51.1037C116.159 51.1037 118.789 49.2231 118.789 44.6475V33.5159H116.269V34.5194ZM113.229 43.0961C112.316 43.0248 111.462 42.598 110.839 41.9011C110.216 41.2042 109.869 40.2887 109.869 39.3381C109.869 38.3876 110.216 37.4721 110.839 36.7753C111.462 36.0784 112.316 35.6514 113.229 35.5802C114.117 35.6877 114.936 36.1297 115.531 36.8226C116.125 37.5154 116.453 38.4106 116.453 39.3381C116.453 40.2657 116.125 41.1608 115.531 41.8537C114.936 42.5465 114.117 42.9886 113.229 43.0961ZM147.885 26.9398H141.528V45.1604H144.178V38.2582H147.885C148.631 38.3103 149.381 38.2025 150.086 37.9418C150.791 37.6809 151.438 37.2726 151.984 36.742C152.531 36.2115 152.967 35.57 153.265 34.8574C153.563 34.1448 153.717 33.3762 153.717 32.5995C153.717 31.8227 153.563 31.0542 153.265 30.3416C152.967 29.6291 152.531 28.9876 151.984 28.457C151.438 27.9265 150.791 27.5181 150.086 27.2573C149.381 26.9965 148.631 26.8878 147.885 26.9398ZM147.954 35.7225H144.179V29.4744H147.954C148.36 29.4589 148.763 29.5283 149.141 29.6783C149.52 29.8283 149.866 30.0559 150.158 30.3476C150.449 30.6392 150.681 30.9888 150.839 31.3756C150.998 31.7623 151.079 32.1782 151.079 32.5984C151.079 33.0187 150.998 33.4346 150.839 33.8213C150.681 34.208 150.449 34.5577 150.158 34.8493C149.866 35.141 149.52 35.3686 149.141 35.5186C148.763 35.6686 148.36 35.738 147.954 35.7225ZM164.343 33.1039C163.38 33.0439 162.42 33.2755 161.581 33.7707C160.741 34.2659 160.059 35.0034 159.617 35.8935L161.971 36.9043C162.206 36.462 162.56 36.1 162.99 35.8623C163.419 35.6246 163.906 35.5215 164.392 35.5653C165.061 35.4945 165.73 35.7011 166.254 36.1402C166.777 36.5792 167.11 37.2151 167.184 37.9089V38.1C166.329 37.6325 165.378 37.3904 164.413 37.395C161.88 37.395 159.295 38.8253 159.295 41.4948C159.295 43.9371 161.371 45.5087 163.704 45.5087C164.37 45.5495 165.034 45.4056 165.63 45.0917C166.225 44.7778 166.729 44.3053 167.09 43.7226H167.181V45.1306H169.739V38.1382C169.741 34.9112 167.388 33.1039 164.341 33.1039H164.343ZM164.023 43.0855C163.155 43.0855 161.947 42.6448 161.947 41.5425C161.947 40.1324 163.454 39.5908 164.758 39.5908C165.604 39.5698 166.441 39.7813 167.182 40.2035C167.079 40.9995 166.704 41.7299 166.122 42.2602C165.541 42.7905 164.794 43.0847 164.02 43.0887L164.023 43.0855ZM179.068 33.4989L176.021 41.3982H175.931L172.781 33.4989H169.921L174.654 44.5424L171.953 50.6854H174.724L182.018 33.5043L179.068 33.4989ZM155.171 45.1572H157.831V26.9398H155.171V45.1572Z" fill="white"/>
<path d="M15.9336 12.1063C15.466 12.6748 15.2297 13.4097 15.2745 14.1557V46.392C15.2295 47.138 15.4659 47.873 15.9336 48.4414L16.0359 48.5402L33.6522 30.4883V30.0636L16.0359 12.0117L15.9336 12.1063Z" fill="url(#paint0_linear_1_3732)"/>
<path d="M39.9002 36.5066L34.0347 30.4845V30.0597L39.9074 24.0376L40.0395 24.1161L46.994 28.1738C48.9786 29.326 48.9786 31.2204 46.994 32.379L40.0395 36.4302L39.9002 36.5066Z" fill="url(#paint1_linear_1_3732)"/>
<path d="M39.6592 36.5766L33.6556 30.4175L15.939 48.5923C16.5981 49.3027 17.6728 49.3888 18.8959 48.6784L39.6623 36.5724" fill="url(#paint2_linear_1_3732)"/>
<path d="M39.6588 23.9663L18.8924 11.8603C17.6703 11.1573 16.5947 11.2423 15.9355 11.9538L33.6552 30.1233L39.6588 23.9663Z" fill="url(#paint3_linear_1_3732)"/>
</g>
</g>
</g>
<defs>
<linearGradient id="paint0_linear_1_3732" x1="34.2588" y1="-88.0031" x2="5.93671" y2="-80.557" gradientUnits="userSpaceOnUse">
<stop stop-color="#00A0FF"/>
<stop offset="0.007" stop-color="#00A1FF"/>
<stop offset="0.26" stop-color="#00BEFF"/>
<stop offset="0.512" stop-color="#00D2FF"/>
<stop offset="0.76" stop-color="#00DFFF"/>
<stop offset="1" stop-color="#00E3FF"/>
</linearGradient>
<linearGradient id="paint1_linear_1_3732" x1="51.7188" y1="-71.4136" x2="17.4053" y2="-71.4136" gradientUnits="userSpaceOnUse">
<stop stop-color="#FFE000"/>
<stop offset="0.409" stop-color="#FFBD00"/>
<stop offset="0.775" stop-color="#FFA500"/>
<stop offset="1" stop-color="#FF9C00"/>
</linearGradient>
<linearGradient id="paint2_linear_1_3732" x1="26.7331" y1="-80.2043" x2="3.35419" y2="-41.364" gradientUnits="userSpaceOnUse">
<stop stop-color="#FF3A44"/>
<stop offset="1" stop-color="#C31162"/>
</linearGradient>
<linearGradient id="paint3_linear_1_3732" x1="1.86761" y1="-88.5002" x2="12.3174" y2="-71.1459" gradientUnits="userSpaceOnUse">
<stop stop-color="#32A071"/>
<stop offset="0.068" stop-color="#2DA771"/>
<stop offset="0.476" stop-color="#15CF74"/>
<stop offset="0.801" stop-color="#06E775"/>
<stop offset="1" stop-color="#00F076"/>
</linearGradient>
<clipPath id="clip0_1_3732">
<rect width="195.59" height="60" fill="white" transform="translate(0.589844 0.27002)"/>
</clipPath>
<clipPath id="clip1_1_3732">
<rect width="195.59" height="60" fill="white" transform="translate(0.589844 0.27002)"/>
</clipPath>
<clipPath id="clip2_1_3732">
<rect width="195.59" height="59.9969" fill="white" transform="translate(0.589844 0.271484)"/>
</clipPath>
</defs>
</svg>
