<svg xmlns="http://www.w3.org/2000/svg" xmlns:xlink="http://www.w3.org/1999/xlink" width="170" height="170" viewBox="0 0 170 170"><defs><clipPath id="clip-path"><rect id="Rectangle_39" data-name="Rectangle 39" width="133.637" height="61.58" fill="#999" stroke="rgba(0,0,0,0)" stroke-width="1"></rect></clipPath></defs><g id="Group_1292" data-name="Group 1292" transform="translate(-20951 4143)"><rect id="Rectangle_7018" data-name="Rectangle 7018" width="170" height="170" transform="translate(20951 -4143)" fill="#fff" opacity="0"></rect><g id="Group_75" data-name="Group 75" transform="translate(20969.18 -4088.79)"><path id="Path_2" data-name="Path 2" d="M0,139.255l3.358,6.672H28.129l-3.355-6.672Z" transform="translate(0 -115.648)" fill="#999" stroke="rgba(0,0,0,0)" stroke-width="1"></path><g id="Group_60" data-name="Group 60"><g id="Group_59" data-name="Group 59" clip-path="url(#clip-path)"><path id="Path_3" data-name="Path 3" d="M229.753,238.5l-.937-1.044h-2.792l.047,1.044h-2.482l-.042-5.874h3.386l5.559,5.874Zm-3.174-3.559a11.756,11.756,0,0,1-.766-.94h-.027a6.876,6.876,0,0,1,.119.94l.06,1.244h1.727Z" transform="translate(-185.649 -193.187)" fill="#999" stroke="rgba(0,0,0,0)" stroke-width="1"></path><path id="Path_4" data-name="Path 4" d="M307.214,232.418s1.662-.052,3.213-.052c2.293,0,3.809.5,4.313,1.566a.817.817,0,0,1-.5,1.192l0,.009a2.753,2.753,0,0,1,1.939,1.253c.5,1.062-.461,1.914-3,1.914-.553,0-1.667-.017-3.205-.017Zm3.579,2.271c.152.009.355.009.571.009.783,0,.973-.226.825-.54-.156-.331-.62-.513-1.281-.513-.243,0-.428.009-.6.017ZM311.879,237c.166.009.507.018.723.018.755,0,1.062-.209.889-.575-.143-.3-.609-.548-1.459-.548-.094,0-.526,0-.67.009Z" transform="translate(-255.133 -192.974)" fill="#999" stroke="rgba(0,0,0,0)" stroke-width="1"></path><path id="Path_5" data-name="Path 5" d="M399.394,232.47c.7-.026,1.932-.052,3.254-.052,2.657,0,4.851.7,5.851,2.828.947,2.01-.484,3.124-3.439,3.124-.985,0-1.978-.017-2.911-.052Zm4.616,4.473a4.379,4.379,0,0,0,.592.026c1.12,0,1.763-.5,1.247-1.593a2.527,2.527,0,0,0-2.693-1.593,6.2,6.2,0,0,0-.626.017Z" transform="translate(-331.687 -193.017)" fill="#999" stroke="rgba(0,0,0,0)" stroke-width="1"></path><path id="Path_6" data-name="Path 6" d="M510.6,238.5l-.937-1.044h-2.793l.047,1.044h-2.482l-.042-5.874h3.386l5.559,5.874Zm-3.174-3.559a11.725,11.725,0,0,1-.766-.94h-.027a6.929,6.929,0,0,1,.119.94l.06,1.244h1.727Z" transform="translate(-418.887 -193.187)" fill="#999" stroke="rgba(0,0,0,0)" stroke-width="1"></path><path id="Path_7" data-name="Path 7" d="M590.806,238.5l-2.767-5.874h2.509l2.087,4.43h2.509l.68,1.445Z" transform="translate(-488.352 -193.187)" fill="#999" stroke="rgba(0,0,0,0)" stroke-width="1"></path><path id="Path_8" data-name="Path 8" d="M652.445,7.792h8.461l-1.42-2.812h-.921c-1.668,0-2.638-.495-2.856-1.442a.906.906,0,0,1,.246-.875,1.452,1.452,0,0,1,.949-.306,5.863,5.863,0,0,1,1.086.113c.1.033.189.058.279.086L657,.022a5.015,5.015,0,0,0-.51-.022,6.014,6.014,0,0,0-1.974.265,2.779,2.779,0,0,0-1.28.8,2.368,2.368,0,0,0-.639,1.1,2.656,2.656,0,0,0-.031,1.292,3.187,3.187,0,0,0,.4,1.025,2,2,0,0,0,.3.478h-2.25Z" transform="translate(-540.653)" fill="#999" stroke="rgba(0,0,0,0)" stroke-width="1"></path><path id="Path_9" data-name="Path 9" d="M176.073,51.661l9.563,19.021-18.487,0-2.119-4.186h-8.506l5.464,10.841h35.5L184.586,51.661Z" transform="translate(-129.989 -42.903)" fill="#999" stroke="rgba(0,0,0,0)" stroke-width="1"></path><path id="Path_10" data-name="Path 10" d="M359.3,51.661l12.908,25.673h8.51L367.812,51.661Z" transform="translate(-298.391 -42.903)" fill="#999" stroke="rgba(0,0,0,0)" stroke-width="1"></path><path id="Path_11" data-name="Path 11" d="M670.455,51.661h-8.513L674.85,77.335h8.513Z" transform="translate(-549.726 -42.903)" fill="#999" stroke="rgba(0,0,0,0)" stroke-width="1"></path><path id="Path_12" data-name="Path 12" d="M488.833,83.775l6.825,13.574H491.7l-6.818-13.556-17.041-.018,3.346,6.655h8.495l3.506,6.92H471.443L474.788,104l32.729,0L497.44,83.775Z" transform="translate(-388.527 -69.573)" fill="#999" stroke="rgba(0,0,0,0)" stroke-width="1"></path><path id="Path_13" data-name="Path 13" d="M665.62,231.6h8.513l2.955,5.877-8.52-.015Z" transform="translate(-552.781 -192.341)" fill="#999" stroke="rgba(0,0,0,0)" stroke-width="1"></path><path id="Path_14" data-name="Path 14" d="M241.183,287.109c.305,0,.435-.233.284-.531a1,1,0,0,0-.821-.531c-.306,0-.439.225-.285.531a1.015,1.015,0,0,0,.821.531" transform="translate(-199.561 -237.555)" fill="#999" stroke="rgba(0,0,0,0)" stroke-width="1"></path><path id="Path_15" data-name="Path 15" d="M233.658,286.579a1,1,0,0,0-.821-.531c-.306,0-.439.225-.284.531a1.014,1.014,0,0,0,.821.531c.305,0,.435-.233.284-.531" transform="translate(-193.075 -237.556)" fill="#999" stroke="rgba(0,0,0,0)" stroke-width="1"></path><path id="Path_16" data-name="Path 16" d="M299.958,317.929c-.306,0-.439.226-.284.531a1.014,1.014,0,0,0,.821.531c.306,0,.435-.233.285-.531a1,1,0,0,0-.821-.531" transform="translate(-248.818 -264.032)" fill="#999" stroke="rgba(0,0,0,0)" stroke-width="1"></path><path id="Path_17" data-name="Path 17" d="M307.768,317.929c-.305,0-.439.226-.284.531a1.014,1.014,0,0,0,.821.531c.306,0,.436-.233.285-.531a1,1,0,0,0-.821-.531" transform="translate(-255.304 -264.032)" fill="#999" stroke="rgba(0,0,0,0)" stroke-width="1"></path><path id="Path_18" data-name="Path 18" d="M246.366,297.771h1.855l-1.727-3.419h-1.382l1.183,2.342h-6.764l-1.11-2.2a6.345,6.345,0,0,0-1.744-.255c-1.469,0-1.6.9-1.111,1.862a2.933,2.933,0,0,0,2.835,1.666h7.964Zm-8.385-1.076a1.214,1.214,0,0,1-1.109-.713c-.176-.349-.145-.662.219-.662a1.28,1.28,0,0,1,.451.087l.65,1.288Z" transform="translate(-195.422 -244.361)" fill="#999" stroke="rgba(0,0,0,0)" stroke-width="1"></path><path id="Path_19" data-name="Path 19" d="M360.238,280.887c.305,0,.435-.233.284-.531a1,1,0,0,0-.821-.531c-.306,0-.439.225-.285.531a1.016,1.016,0,0,0,.821.531" transform="translate(-298.433 -232.388)" fill="#999" stroke="rgba(0,0,0,0)" stroke-width="1"></path><path id="Path_20" data-name="Path 20" d="M367.609,287.41c.305,0,.435-.233.285-.531a1,1,0,0,0-.821-.531c-.306,0-.439.225-.285.531a1.016,1.016,0,0,0,.821.531" transform="translate(-304.554 -237.805)" fill="#999" stroke="rgba(0,0,0,0)" stroke-width="1"></path><path id="Path_21" data-name="Path 21" d="M359.371,287.41c.306,0,.435-.233.285-.531a1,1,0,0,0-.821-.531c-.306,0-.439.225-.285.531a1.015,1.015,0,0,0,.821.531" transform="translate(-297.713 -237.805)" fill="#999" stroke="rgba(0,0,0,0)" stroke-width="1"></path><path id="Path_22" data-name="Path 22" d="M448.329,317.929c-.305,0-.439.226-.284.531a1.014,1.014,0,0,0,.821.531c.306,0,.435-.233.285-.531a1,1,0,0,0-.821-.531" transform="translate(-372.036 -264.032)" fill="#999" stroke="rgba(0,0,0,0)" stroke-width="1"></path><path id="Path_23" data-name="Path 23" d="M338.771,284.8l2.047,4.052H332.6l-1.183-2.342h-1.382l1.183,2.342h-8.284c-.121-.255-.243-.509-.364-.749a15.706,15.706,0,0,0-1.185-1.957l-1.262.167a18.223,18.223,0,0,1,1.1,1.862c.077.153.2.407.313.677H321.4c-.495,0-.63-.124-.784-.429l-.893-1.767h-1.31l.842,1.666c.2.393.232.589-.052.589-.211,0-.382-.065-.65-.6l-.691-1.367h-1.382l.573,1.135c.323.64.273.771-.127.771H311.3l-1.183-2.342h-1.382L310.5,290c.272.538.16.676-.175.676a2.864,2.864,0,0,1-.4-.022l.471,1.076a3.5,3.5,0,0,0,.411.022c1.731,0,1.443-1.018,1.053-1.789l-.015-.029h5.615c.509,0,.741-.117.74-.422a1.789,1.789,0,0,0,1.268.48c.451,0,.829-.131.86-.444a1.912,1.912,0,0,0,1.33.385h21.086l-2.591-5.128Z" transform="translate(-256.397 -236.522)" fill="#999" stroke="rgba(0,0,0,0)" stroke-width="1"></path><path id="Path_24" data-name="Path 24" d="M497.429,284.743l.452.895a3.354,3.354,0,0,1,.466.073l2.076,4.11h1.382l-2.6-5.143a11.3,11.3,0,0,0-1.779.065" transform="translate(-413.102 -236.411)" fill="#999" stroke="rgba(0,0,0,0)" stroke-width="1"></path><path id="Path_25" data-name="Path 25" d="M530.235,293.557l.257,1.142a3.192,3.192,0,0,1,2.262,1.426h-1.9l.544,1.076h3.252l-.331-.655a5.418,5.418,0,0,0-4.085-2.99" transform="translate(-440.347 -243.792)" fill="#999" stroke="rgba(0,0,0,0)" stroke-width="1"></path><path id="Path_26" data-name="Path 26" d="M553.012,294.888H551.63l1.76,3.484c.272.538.16.676-.175.676a2.888,2.888,0,0,1-.4-.022l.471,1.076a3.505,3.505,0,0,0,.411.022c1.731,0,1.443-1.018,1.053-1.789Z" transform="translate(-458.115 -244.897)" fill="#999" stroke="rgba(0,0,0,0)" stroke-width="1"></path><path id="Path_27" data-name="Path 27" d="M558.917,284.743l.452.895a3.357,3.357,0,0,1,.466.073l2.076,4.11h1.382l-2.6-5.143a11.3,11.3,0,0,0-1.778.065" transform="translate(-464.166 -236.411)" fill="#999" stroke="rgba(0,0,0,0)" stroke-width="1"></path><path id="Path_28" data-name="Path 28" d="M607.885,284.8H606.5l2.047,4.052h-2.4L604.1,284.8H602.72l2.047,4.052H598.1l-.367-.727a2.888,2.888,0,0,0-2.639-1.724c-1.339,0-1.563.851-1.107,1.753.22.436.171.7-.208.7h-7.644l-1.11-2.2a6.34,6.34,0,0,0-1.744-.255c-1.469,0-1.6.9-1.111,1.862A2.926,2.926,0,0,0,585,289.931h.335l0,.007c.235.466.015.735-.691.735a7.649,7.649,0,0,1-1.146-.095l.482,1.1a10.215,10.215,0,0,0,1.1.073c1.629,0,2.077-.7,1.584-1.819h7.753c.611,0,.778-.131.82-.378a2.874,2.874,0,0,0,1.748.378h13.485Zm-23.3,4.052a1.214,1.214,0,0,1-1.109-.713c-.176-.349-.145-.662.219-.662a1.28,1.28,0,0,1,.451.087l.65,1.288Zm11.863,0a1.182,1.182,0,0,1-1.109-.713c-.176-.349-.145-.662.219-.662.313,0,.641.262.9.778l.3.6Z" transform="translate(-483.265 -236.522)" fill="#999" stroke="rgba(0,0,0,0)" stroke-width="1"></path><path id="Path_29" data-name="Path 29" d="M261.987,343.043l-.8-1.586h-1.2l.8,1.586h-1.109l-2.033-4.025h1.109l.741,1.467h1.2l-.741-1.467h1.109l2.033,4.025Z" transform="translate(-213.963 -281.546)" fill="#999" stroke="rgba(0,0,0,0)" stroke-width="1"></path><path id="Path_30" data-name="Path 30" d="M299.673,341.444c.59,1.169.176,1.682-.9,1.682a2.517,2.517,0,0,1-2.411-1.539l-1.3-2.57h1.109l1.271,2.516a.97.97,0,0,0,.925.662c.447,0,.494-.191.241-.691l-1.256-2.486h1.1Z" transform="translate(-245.04 -281.545)" fill="#999" stroke="rgba(0,0,0,0)" stroke-width="1"></path><path id="Path_31" data-name="Path 31" d="M338.535,343.043l-.857-1.437c-.256-.423-.6-1.025-.843-1.526h-.018a14.765,14.765,0,0,1,.4,1.508l.294,1.455h-1.038l-1.176-1.455c-.273-.34-.852-1.085-1.132-1.508h-.018c.223.429.5,1.043.706,1.526l.6,1.437H334.4l-1.6-4.025h1.55l1.155,1.425c.225.28.489.638.709.966h.012a8.791,8.791,0,0,1-.285-.966l-.284-1.425H337.2l2.463,4.025Z" transform="translate(-276.381 -281.546)" fill="#999" stroke="rgba(0,0,0,0)" stroke-width="1"></path><path id="Path_32" data-name="Path 32" d="M385.944,343.043l-.558-.716h-1.234l.164.716h-1.1l-.828-4.025h1.5l3.268,4.025ZM384.05,340.6c-.165-.209-.327-.435-.468-.644h-.012c.07.209.133.441.182.644l.2.853h.763Z" transform="translate(-317.565 -281.546)" fill="#999" stroke="rgba(0,0,0,0)" stroke-width="1"></path><path id="Path_33" data-name="Path 33" d="M417.265,343.043l-1.712-1.771a7.815,7.815,0,0,1-.654-.751c.153.256.533.972.749,1.4l.566,1.121H415.16l-2.033-4.025h1.455l1.571,1.622c.237.244.5.542.7.8-.169-.274-.578-1.061-.765-1.431l-.5-.99h1.055l2.033,4.025Z" transform="translate(-343.092 -281.546)" fill="#999" stroke="rgba(0,0,0,0)" stroke-width="1"></path><path id="Path_34" data-name="Path 34" d="M474.829,342.9l-1.448-1.449h-.1l.732,1.449h-1.109l-2.033-4.025s.581-.03,1.363-.03a2.263,2.263,0,0,1,2.234,1.258c.286.567.2.936-.116,1.127,0,0,.282.239.5.441l1.312,1.228Zm-1.959-2.271s.092.006.188.006c.3,0,.438-.149.287-.447a.748.748,0,0,0-.706-.429c-.1,0-.2.012-.2.012Z" transform="translate(-391.051 -281.4)" fill="#999" stroke="rgba(0,0,0,0)" stroke-width="1"></path><path id="Path_35" data-name="Path 35" d="M506.813,343.043l-2.033-4.025h2.475l.476.942h-1.366l.286.566h1.241l.458.906h-1.24l.328.65H508.8l.485.96Z" transform="translate(-419.207 -281.546)" fill="#999" stroke="rgba(0,0,0,0)" stroke-width="1"></path><path id="Path_36" data-name="Path 36" d="M540.11,339.6a2.732,2.732,0,0,0-.77-.119c-.31,0-.384.113-.306.268.256.507,1.74.328,2.409,1.652.4.787.076,1.341-.986,1.341a5,5,0,0,1-1.035-.1l-.438-1.056a3.364,3.364,0,0,0,1.033.191c.239,0,.376-.083.285-.262-.28-.554-1.707-.322-2.382-1.657-.395-.781-.039-1.294,1.022-1.294a4.327,4.327,0,0,1,.779.078Z" transform="translate(-446.598 -281.166)" fill="#999" stroke="rgba(0,0,0,0)" stroke-width="1"></path><path id="Path_37" data-name="Path 37" d="M573.534,342.717a3.2,3.2,0,0,1-2.927-1.992c-.72-1.425-.151-2.2.952-2.2a3.2,3.2,0,0,1,2.926,1.992c.72,1.425.152,2.2-.952,2.2M572,339.539c-.5,0-.615.376-.26,1.079s.813,1.079,1.35,1.079c.5,0,.618-.37.263-1.073s-.816-1.085-1.353-1.085" transform="translate(-473.609 -281.136)" fill="#999" stroke="rgba(0,0,0,0)" stroke-width="1"></path><path id="Path_38" data-name="Path 38" d="M609.7,341.444c.591,1.169.176,1.682-.9,1.682a2.517,2.517,0,0,1-2.411-1.539l-1.3-2.57H606.2l1.271,2.516a.97.97,0,0,0,.925.662c.447,0,.494-.191.241-.691l-1.256-2.486h1.1Z" transform="translate(-502.509 -281.545)" fill="#999" stroke="rgba(0,0,0,0)" stroke-width="1"></path><path id="Path_39" data-name="Path 39" d="M646.108,342.9l-1.447-1.449h-.1l.732,1.449h-1.109l-2.033-4.025s.581-.03,1.362-.03a2.263,2.263,0,0,1,2.234,1.258c.286.567.2.936-.116,1.127,0,0,.281.239.5.441l1.313,1.228Zm-1.959-2.271s.092.006.188.006c.3,0,.438-.149.287-.447a.748.748,0,0,0-.706-.429c-.1,0-.2.012-.2.012Z" transform="translate(-533.294 -281.4)" fill="#999" stroke="rgba(0,0,0,0)" stroke-width="1"></path><path id="Path_40" data-name="Path 40" d="M683.511,342.8a2.306,2.306,0,0,1-.879.149,3.2,3.2,0,0,1-2.869-1.9c-.678-1.342-.357-2.206.961-2.206a3.33,3.33,0,0,1,.83.107l.375,1.013a2.218,2.218,0,0,0-.7-.113c-.525,0-.669.363-.341,1.013a1.61,1.61,0,0,0,1.437,1.073,1.1,1.1,0,0,0,.533-.125Z" transform="translate(-564.24 -281.4)" fill="#999" stroke="rgba(0,0,0,0)" stroke-width="1"></path><path id="Path_41" data-name="Path 41" d="M710.062,343.043l-2.033-4.025H710.5l.476.942h-1.366l.286.566h1.24l.458.906h-1.24l.328.65h1.366l.485.96Z" transform="translate(-588 -281.546)" fill="#999" stroke="rgba(0,0,0,0)" stroke-width="1"></path><path id="Path_42" data-name="Path 42" d="M743.358,339.6a2.73,2.73,0,0,0-.77-.119c-.31,0-.384.113-.306.268.256.507,1.74.328,2.409,1.652.4.787.075,1.341-.986,1.341a4.992,4.992,0,0,1-1.035-.1l-.438-1.056a3.362,3.362,0,0,0,1.033.191c.238,0,.375-.083.285-.262-.28-.554-1.707-.322-2.382-1.657-.395-.781-.039-1.294,1.022-1.294a4.327,4.327,0,0,1,.779.078Z" transform="translate(-615.391 -281.166)" fill="#999" stroke="rgba(0,0,0,0)" stroke-width="1"></path></g></g></g></g></svg>