<svg xmlns="http://www.w3.org/2000/svg" xmlns:xlink="http://www.w3.org/1999/xlink" width="170" height="170" viewBox="0 0 170 170"><defs><clipPath id="clip-path"><rect id="Rectangle_41" data-name="Rectangle 41" width="98.1" height="116.859" fill="#999" stroke="rgba(0,0,0,0)" stroke-width="1"></rect></clipPath></defs><g id="Group_1292" data-name="Group 1292" transform="translate(-20951 4143)"><rect id="Rectangle_7018" data-name="Rectangle 7018" width="170" height="170" transform="translate(20951 -4143)" fill="#fff" opacity="0"></rect><g id="Group_77" data-name="Group 77" transform="translate(20986.949 -4120.961)"><g id="Group_64" data-name="Group 64" clip-path="url(#clip-path)"><path id="Path_72" data-name="Path 72" d="M66.884,15.1a15.055,15.055,0,0,1,9.285,3.072.684.684,0,0,0,.993-.017,14.682,14.682,0,0,1,7.7-2.985,15.574,15.574,0,0,1,16.933,13.47A15.5,15.5,0,0,1,89.1,45.9a15.141,15.141,0,0,1-12.131-2.873c-.407-.306-.623-.107-.905.1A15.56,15.56,0,0,1,51.462,32.883a15.537,15.537,0,0,1,11.85-17.377,15.309,15.309,0,0,1,1.8-.3c.586-.066,1.179-.067,1.775-.1M84.878,42.662A11.99,11.99,0,0,0,97.664,35.3a12.144,12.144,0,0,0-5.441-15.39c-4.658-2.622-10.385-1.479-13.143,1.078a15.79,15.79,0,0,1,3.295,9.139c.275-.179.419-.285.574-.37,1.015-.563,2-1.195,3.058-1.665a15.277,15.277,0,0,1,6.923-1.179c.4.016.69.156.672.621a27.029,27.029,0,0,1-.149,3.258,15.375,15.375,0,0,1-8.131,11.568c-.121.067-.23.157-.443.3M68.358,42.7c-.044-.077-.053-.12-.079-.136-.173-.106-.347-.211-.526-.306a14.79,14.79,0,0,1-3.9-2.986A15.467,15.467,0,0,1,59.64,27.453c.023-.429.23-.528.591-.545a15.831,15.831,0,0,1,10.1,2.831c.137.1.286.176.35.215a41.786,41.786,0,0,1,1.182-4.692,42.635,42.635,0,0,1,2.17-4.349,11.924,11.924,0,0,0-13.884-.5A12.183,12.183,0,0,0,68.358,42.7m10.7-2.482c.011.077.022.155.033.232a3.023,3.023,0,0,0,.951.162,12.1,12.1,0,0,0,10.04-9.7c.089-.46-.01-.547-.465-.46a12.546,12.546,0,0,0-6.16,3.173c-2.035,1.838-2.744,4.525-4.4,6.6M63.128,30.332a3.8,3.8,0,0,0,0,.576A12.267,12.267,0,0,0,73,40.633a4.639,4.639,0,0,0,1.2-.118c-.112-.247-.142-.334-.188-.411-.638-1.077-1.324-2.129-1.911-3.232a12.161,12.161,0,0,0-6.593-5.852c-.744-.283-1.535-.447-2.383-.687M76.6,23.492c-3.141,2.915-3.083,11.672.058,14.245A11.788,11.788,0,0,0,76.6,23.492" transform="translate(-27.557 -8.114)" fill="#999" stroke="rgba(0,0,0,0)" stroke-width="1"></path><path id="Path_73" data-name="Path 73" d="M16.515,138.784h25.51c.8,0,.8,0,.782-.787a2.927,2.927,0,0,0-3.059-2.853c-2.367-.019-4.733-.005-7.1-.006-1.294,0-2.589-.016-3.883.009-.42.008-.555-.133-.539-.539.025-.609.017-1.221,0-1.83-.008-.345.1-.489.475-.488,3.845.013,7.691-.025,11.536.023a5.694,5.694,0,0,1,5.419,5.434c.009.311,0,.623,0,.988.3.019.553.047.8.047q5.353,0,10.7,0c.754,0,.756,0,.757.777,0,1.221-.007,2.441,0,3.661.009.933.506,1.508,1.268,1.5a1.343,1.343,0,0,0,1.263-1.514q0-4.3,0-8.6v-.72h2.822v4.842h9.419a19.172,19.172,0,0,1,.289-2.155,5.823,5.823,0,0,1,6.129-4.388,5.882,5.882,0,0,1,5.337,4.837,6.426,6.426,0,0,1,.061,1.324c-.012.321.1.435.4.433,1.238-.006,2.478.016,3.716-.012.755-.017,1.118-.439,1.119-1.218,0-3.088.01-6.177-.008-9.265,0-.448.106-.635.58-.608.608.035,1.22.019,1.83.006.33-.006.454.123.453.458-.011,3.329.026,6.658-.026,9.986a3.806,3.806,0,0,1-3.887,3.5c-1.608.016-3.217-.012-4.825.019a1.249,1.249,0,0,0-.806.333,5.892,5.892,0,0,1-8.836-.05.876.876,0,0,0-.553-.283c-3.346-.015-6.693-.01-10.039-.006a2.252,2.252,0,0,0-.338.063c0,.588-.021,1.175,0,1.76a4.123,4.123,0,1,1-8.24-.226c.022-.5,0-1,0-1.55H45.692v4.957H42.84c-.011-.206-.03-.4-.031-.6,0-1.276-.02-2.552.008-3.828.011-.472-.159-.643-.607-.586a1.326,1.326,0,0,1-.166,0q-13.256,0-26.512-.006a1.434,1.434,0,0,0-1.038.388,5.874,5.874,0,0,1-9.34-2.224c-.292-.721-.348-.751-1.251-.655a1.1,1.1,0,0,0-1.03.99,3.8,3.8,0,0,0-.013.5q0,3.107,0,6.214v.69H.03c-.01-.206-.027-.386-.027-.566,0-2.2-.006-4.4,0-6.6A3.875,3.875,0,0,1,4.088,136.3c.549.006.828-.108,1.021-.689a5.849,5.849,0,0,1,11.269.9,21.608,21.608,0,0,1,.137,2.273m65.147-.7a3,3,0,0,0-3-3.051,3.021,3.021,0,1,0,0,6.042,2.99,2.99,0,0,0,2.994-2.991m-71.008,2.539a3.018,3.018,0,1,0-3.048-3.009,3.055,3.055,0,0,0,3.048,3.009" transform="translate(0 -68.592)" fill="#999" stroke="rgba(0,0,0,0)" stroke-width="1"></path><path id="Path_74" data-name="Path 74" d="M58.659,41.776v3.3c-1.151-.1-2.278-.126-3.375-.318A22.2,22.2,0,0,1,38.719,32.791a21.042,21.042,0,0,1-2.411-11.943,22.022,22.022,0,0,1,11.4-17.942A21.5,21.5,0,0,1,60.655.1a22.151,22.151,0,0,1,7.4,1.937,1,1,0,0,0,.929-.012A22.511,22.511,0,1,1,83.013,44.53a22.287,22.287,0,0,1-2.349.366c-.731.083-1.47.1-2.261.154V41.705c1.136-.139,2.274-.229,3.393-.422A19.168,19.168,0,0,0,97.014,26.242a18.913,18.913,0,0,0-10.039-20.7,18.361,18.361,0,0,0-17.931.308A.933.933,0,0,1,68,5.865,18.762,18.762,0,0,0,57.855,3.422a19.1,19.1,0,0,0-3.9,37.568c1.508.387,3.082.522,4.7.786" transform="translate(-19.458 0)" fill="#999" stroke="rgba(0,0,0,0)" stroke-width="1"></path><path id="Path_75" data-name="Path 75" d="M189.476,186.443a5.153,5.153,0,0,1,4.085-1.21c.7.018,1.405.017,2.107,0,.393-.01.566.115.565.536q-.017,5.379,0,10.758c0,.335-.082.51-.467.5-.677-.026-1.357-.007-2.085-.007v-9.118c-1.8-.471-2.943.383-2.945,2.157q0,3.133,0,6.266v.65h-2.494c-.01-.215-.029-.43-.029-.645,0-2.015-.059-4.032.016-6.044.065-1.726-.818-2.8-2.915-2.421v9.108h-2.594c-.01-.167-.028-.328-.028-.488,0-3.549.006-7.1-.011-10.647,0-.454.116-.618.584-.6.979.03,1.959.018,2.939.007a4.565,4.565,0,0,1,3.277,1.209" transform="translate(-98.139 -99.509)" fill="#999" stroke="rgba(0,0,0,0)" stroke-width="1"></path><path id="Path_76" data-name="Path 76" d="M52.679,196.979v-9.162a10.325,10.325,0,0,0-1.477.013,1.81,1.81,0,0,0-1.446,1.85c-.012,2.219-.005,4.437-.006,6.656v.673H47.509c-.388,0-.312-.3-.313-.521-.008-1.387,0-2.774,0-4.16,0-.814-.034-1.629.007-2.441a1.916,1.916,0,0,0-2.138-2.1,7.33,7.33,0,0,1-.789,0v.815c0,2.589-.012,5.177.01,7.766,0,.507-.144.685-.659.648-.605-.044-1.217-.011-1.889-.011-.011-.206-.028-.383-.028-.559,0-3.531.008-7.063-.012-10.595,0-.484.126-.65.617-.633.96.033,1.922.016,2.884.008a4.57,4.57,0,0,1,3.284,1.207,5.224,5.224,0,0,1,4.137-1.209c.721.018,1.442.009,2.163,0,.292,0,.437.092.436.416q-.013,5.547-.01,11.094a1.3,1.3,0,0,1-.05.236Z" transform="translate(-22.399 -99.508)" fill="#999" stroke="rgba(0,0,0,0)" stroke-width="1"></path><path id="Path_77" data-name="Path 77" d="M102.8,190.191c-.019.362-.037.556-.037.749,0,1.811-.018,3.623.009,5.433.008.516-.158.677-.664.642-.6-.042-1.215-.01-1.885-.01-.011-.21-.027-.386-.027-.563,0-3.53.008-7.06-.012-10.59,0-.483.128-.624.616-.638a2.32,2.32,0,0,1,2.364,1.373c.875,1.708,1.833,3.373,2.758,5.054a1.154,1.154,0,0,0,.395.445c.011-.208.031-.416.031-.623,0-1.867.014-3.734-.006-5.6-.006-.478.137-.677.631-.64a10.648,10.648,0,0,0,1.385,0c.431-.025.563.129.56.57-.019,3.234-.01,6.469-.01,9.7V197c-.7,0-1.359.027-2.014-.019-.16-.011-.347-.238-.445-.409-1.1-1.923-2.181-3.856-3.27-5.785-.087-.154-.188-.3-.377-.6" transform="translate(-53.824 -99.502)" fill="#999" stroke="rgba(0,0,0,0)" stroke-width="1"></path><path id="Path_78" data-name="Path 78" d="M0,197.01V195.9q0-3.023,0-6.046a4.25,4.25,0,0,1,4.362-4.611c1.071-.045,2.144-.01,3.216-.009.249,0,.48-.006.48.363-.007,3.771,0,7.542,0,11.4-.79,0-1.558.016-2.323-.021-.088,0-.225-.3-.23-.461-.025-.776-.01-1.553-.014-2.33,0-.218-.021-.436-.034-.692H2.57c0,.851,0,1.693,0,2.536-.006,1.171.073.955-.975.974-.5.009-1,0-1.592,0m5.478-9.218c-.406,0-.752,0-1.1,0a1.522,1.522,0,0,0-1.546.964A7.7,7.7,0,0,0,2.6,190.7c-.005.069.162.215.251.217.776.018,1.553.023,2.328,0a.423.423,0,0,0,.287-.3c.023-.92.013-1.841.013-2.824" transform="translate(-0.001 -99.506)" fill="#999" stroke="rgba(0,0,0,0)" stroke-width="1"></path><path id="Path_79" data-name="Path 79" d="M133.216,196.983h-2.467c0-.947-.03-1.883.012-2.816.024-.543-.106-.765-.7-.719-.714.056-1.436.013-2.232.013v3.547c-.811,0-1.546.022-2.277-.024-.111-.007-.286-.333-.288-.513-.022-1.811-.013-3.622-.013-5.433q0-.609,0-1.219a4.227,4.227,0,0,1,4.333-4.573c1.069-.046,2.143,0,3.214-.012.307,0,.477.075.476.433q-.017,5.571-.016,11.143a1.014,1.014,0,0,1-.045.174m-2.47-9.125c-2.52-.422-3.247,1.037-2.831,3.072.829,0,1.672.013,2.514-.016a.464.464,0,0,0,.3-.335c.025-.9.014-1.8.014-2.721" transform="translate(-67.289 -99.508)" fill="#999" stroke="rgba(0,0,0,0)" stroke-width="1"></path><path id="Path_80" data-name="Path 80" d="M161.326,196.978c-.012-.206-.032-.385-.032-.565,0-3.51.008-7.021-.013-10.531,0-.517.158-.66.658-.655q3.242.033,6.484,0c.485-.005.651.14.618.63-.041.622-.009,1.248-.009,1.928h-5.169v2.068h2.067c1.386,0,1.393,0,1.384,1.39-.008,1.325.141,1.107-1.106,1.125-.646.01-1.293.012-1.939,0-.329-.006-.445.114-.458.451-.069,1.687-.078,1.687,1.593,1.687h3.584v2.473Z" transform="translate(-86.645 -99.51)" fill="#999" stroke="rgba(0,0,0,0)" stroke-width="1"></path><path id="Path_81" data-name="Path 81" d="M76.452,189.653c0-1.312.01-2.624-.007-3.935,0-.359.112-.5.473-.489.5.018,1,.024,1.5,0,.428-.022.575.128.571.57-.019,2.291-.01,4.582-.007,6.873a3.033,3.033,0,0,0,.043.605,1.669,1.669,0,0,0,3.313-.3c.012-2.365.021-4.73-.007-7.095-.006-.514.14-.692.647-.653.478.037.96.016,1.44.007.311-.006.485.095.483.441-.016,2.623.064,5.25-.062,7.868a4.059,4.059,0,0,1-4.562,3.669,4.154,4.154,0,0,1-3.835-4.342c.074-1.066.013-2.142.013-3.214" transform="translate(-41.06 -99.506)" fill="#999" stroke="rgba(0,0,0,0)" stroke-width="1"></path><path id="Path_82" data-name="Path 82" d="M29.854,194.5v2.476H23.51c-.009-.191-.027-.386-.027-.58,0-3.511.012-7.023-.014-10.534,0-.54.184-.673.667-.637a8.116,8.116,0,0,0,1.218,0c.494-.038.67.12.665.647-.026,2.642,0,5.285-.025,7.928-.006.557.141.74.711.714,1.03-.047,2.063-.013,3.149-.013" transform="translate(-12.608 -99.507)" fill="#999" stroke="rgba(0,0,0,0)" stroke-width="1"></path><path id="Path_83" data-name="Path 83" d="M208.639,134.66c0,2.089-.019,4.178.012,6.266.009.572-.18.757-.732.713a10.408,10.408,0,0,0-1.5,0c-.481.031-.649-.141-.641-.631.024-1.663.009-3.327.009-4.991,0-2.551.013-5.1-.011-7.653-.005-.543.177-.723.7-.684a10.754,10.754,0,0,0,1.5,0c.5-.034.676.146.67.659-.024,2.107-.01,4.214-.01,6.322" transform="translate(-110.552 -68.59)" fill="#999" stroke="rgba(0,0,0,0)" stroke-width="1"></path><path id="Path_84" data-name="Path 84" d="M166.636,232.368l1.191-.291c.277,1.609.543,3.161.807,4.694a1.2,1.2,0,0,0,.22.053c1.254-.01,1.288-.046,1.287-1.281q0-2.079,0-4.158a.744.744,0,0,1,1.068-.638c.121.08.163.348.164.531.013,1.534.006,3.068.01,4.6a.907.907,0,0,0,.564.93,1.013,1.013,0,0,0,1.231-.165,2.082,2.082,0,0,0,.393-1.157c.047-1.347.018-2.7.02-4.046a.71.71,0,0,1,.968-.724.409.409,0,0,1,.246.294c.006,1.81.086,3.627-.043,5.429-.111,1.556-1.286,1.8-2.523,1.775a6.562,6.562,0,0,1-1.414-.418,1.026,1.026,0,0,0-.569,0,11.725,11.725,0,0,1-4.212.45c-.361-.009-.613-.47-.516-1.039.021-.124.329-.251.521-.283a4.278,4.278,0,0,1,.885-.01c.421.018.6-.079.489-.575-.29-1.291-.519-2.6-.788-3.973" transform="translate(-88.917 -123.916)" fill="#999" stroke="rgba(0,0,0,0)" stroke-width="1"></path><path id="Path_85" data-name="Path 85" d="M117.618,235.4c-.067,1.284-.062,2.538-.222,3.772a1.526,1.526,0,0,1-1.45,1.255,12.254,12.254,0,0,1-1.762.112,39.8,39.8,0,0,1-4.639-.143,4.985,4.985,0,0,0-2.042.1,2.358,2.358,0,0,1-3.053-1.724,2.611,2.611,0,0,1,1.672-3.237,4.4,4.4,0,0,1,1.363-.024c.292.018.531.155.679-.3.059-.178.549-.241.854-.287.052-.008.218.326.228.508.053.994.072,1.989.106,2.984.019.531.248.779.788.783q2.55.017,5.1,0a.9.9,0,0,0,.988-.852c.066-.659.079-1.323.09-1.986.014-.878,0-.879.854-.942.106-.007.212-.01.447-.02m-9.507,2.669c0-.147,0-.294,0-.442,0-.811-.07-.882-.91-.966-.073-.007-.145-.024-.219-.029a1.389,1.389,0,1,0-.1,2.772c1.01.018,1.229-.21,1.228-1.281v-.055" transform="translate(-56.064 -126.21)" fill="#999" stroke="rgba(0,0,0,0)" stroke-width="1"></path><path id="Path_86" data-name="Path 86" d="M143.846,239.5c-.449-1.262-.746-2.5.559-3.363,1.072-.709,2.191-.368,3.331,0-.053.191-.1.345-.137.5-.079.373-.241.5-.664.411a4.167,4.167,0,0,0-1.412-.03.958.958,0,0,0-.873.939,5,5,0,0,0,.336,1.41c.019.062.259.087.393.076.99-.078,1.979-.17,3.041-.264a8.611,8.611,0,0,1-.206.988.5.5,0,0,1-.342.269,20.7,20.7,0,0,1-2.3.316c-1.511.077-3.026.129-4.537.1a6.4,6.4,0,0,1-1.509-.451c-.17-.049-.411-.117-.529-.039a3.613,3.613,0,0,1-2.008.511c-.554.012-1.109.02-1.663,0-.679-.027-.44-.61-.52-.965-.089-.395.246-.369.508-.369.628,0,1.257.005,1.885,0a1.087,1.087,0,0,0,1.237-1.219,1.26,1.26,0,0,0-1.265-1.434c-.737-.025-.714-.026-.738-.735-.015-.451.124-.614.595-.611a2.375,2.375,0,0,1,2.649,2.582,2.036,2.036,0,0,1,0,.5c-.122.594.233.849.714.867,1.119.042,2.24.013,3.455.013" transform="translate(-72.416 -126.537)" fill="#999" stroke="rgba(0,0,0,0)" stroke-width="1"></path><path id="Path_87" data-name="Path 87" d="M147.022,196.975v-2.4c1.273-.458,1.523-.817,1.523-2.168,0-2.2.011-4.4-.009-6.6,0-.435.122-.6.559-.575.516.028,1.035.015,1.552.006.3-.005.427.116.425.427-.012,2.625.036,5.252-.035,7.875a3.767,3.767,0,0,1-4.016,3.435" transform="translate(-78.985 -99.511)" fill="#999" stroke="rgba(0,0,0,0)" stroke-width="1"></path><path id="Path_88" data-name="Path 88" d="M72.574,233.827c0-.909,0-1.677,0-2.444a.843.843,0,0,1,1.184-.636.511.511,0,0,1,.148.378c.009,2.233.012,4.467-.007,6.7,0,.142-.2.407-.3.4-.312-.018-.721.239-.924-.226-.064-.146-.116-.3-.189-.485a2.217,2.217,0,0,0-.29.216,2.122,2.122,0,0,1-3.562-1.155,4.611,4.611,0,0,1,0-1.846,2.128,2.128,0,0,1,3.571-1.156c.067.057.145.1.37.253m0,1.827.057-.008a3.364,3.364,0,0,0-.209-1.22,1.44,1.44,0,0,0-2.337.186,2.233,2.233,0,0,0,0,2.076,1.382,1.382,0,0,0,1.671.639c.631-.171.821-.454.822-1.23v-.443" transform="translate(-36.823 -123.916)" fill="#999" stroke="rgba(0,0,0,0)" stroke-width="1"></path><path id="Path_89" data-name="Path 89" d="M26.394,235.276c0-1.016.011-2.032-.006-3.048-.006-.379.121-.527.511-.522,1.33.016,2.66.02,3.99,0,.435-.007.526.179.526.565s-.092.577-.527.564c-.886-.025-1.773,0-2.66-.012-.355-.006-.5.119-.486.481.054,2.06-.343,1.676,1.648,1.72.406.009.813,0,1.219,0,.424,0,.438.3.467.61.034.369-.176.428-.478.425-.739-.008-1.479.017-2.216-.009-.47-.016-.678.13-.644.631.037.533-.023,1.073.016,1.606.04.551-.289.53-.667.532-.4,0-.727.025-.7-.554.038-1,.011-1.995.011-2.993" transform="translate(-14.174 -124.479)" fill="#999" stroke="rgba(0,0,0,0)" stroke-width="1"></path><path id="Path_90" data-name="Path 90" d="M42.1,235.752a2.57,2.57,0,0,1,2.845,2.631,2.691,2.691,0,0,1-2.89,2.7c-1.79-.107-2.785-.958-2.823-2.686a2.524,2.524,0,0,1,2.869-2.643m-.016,4.343a1.73,1.73,0,1,0-1.533-1.7,1.526,1.526,0,0,0,1.533,1.7" transform="translate(-21.075 -126.649)" fill="#999" stroke="rgba(0,0,0,0)" stroke-width="1"></path><path id="Path_91" data-name="Path 91" d="M56.7,235.752a2.662,2.662,0,1,1,0,5.31,2.661,2.661,0,1,1,0-5.31m-.028,4.343c.946.079,1.5-.62,1.538-1.744a1.5,1.5,0,0,0-1.49-1.689,1.729,1.729,0,0,0-.048,3.433" transform="translate(-28.934 -126.649)" fill="#999" stroke="rgba(0,0,0,0)" stroke-width="1"></path><path id="Path_92" data-name="Path 92" d="M83.289,239.988c.77.053,1.477.144,2.182.124a.862.862,0,0,0,.575-.514c.131-.362-.164-.574-.487-.677-.421-.136-.854-.232-1.273-.373-.879-.3-1.165-.692-1.109-1.483a1.351,1.351,0,0,1,1.347-1.237,9.544,9.544,0,0,1,2.146.086c.8.122.8.186.574.956-.655-.06-1.3-.128-1.956-.174-.344-.024-.688.006-.758.453s.24.592.563.7c.383.13.782.216,1.17.334.912.278,1.207.664,1.156,1.5a1.411,1.411,0,0,1-1.35,1.311,10.412,10.412,0,0,1-2.292-.093c-.746-.112-.76-.226-.486-.91" transform="translate(-44.658 -126.68)" fill="#999" stroke="rgba(0,0,0,0)" stroke-width="1"></path><path id="Path_93" data-name="Path 93" d="M78.118,165.288a1.95,1.95,0,1,1-1.967-1.954,1.924,1.924,0,0,1,1.967,1.954" transform="translate(-39.873 -87.748)" fill="#999" stroke="rgba(0,0,0,0)" stroke-width="1"></path><path id="Path_94" data-name="Path 94" d="M131.471,126.63a1.948,1.948,0,1,1-1.994,1.933,1.938,1.938,0,0,1,1.994-1.933" transform="translate(-69.559 -68.03)" fill="#999" stroke="rgba(0,0,0,0)" stroke-width="1"></path><path id="Path_95" data-name="Path 95" d="M105.994,230.837l.873-.9c.565.8,1.15.885,1.7-.013l.889.894-.87.825c-.512-.579-1.078-1.012-1.651.027l-.945-.832" transform="translate(-56.943 -123.522)" fill="#999" stroke="rgba(0,0,0,0)" stroke-width="1"></path><path id="Path_96" data-name="Path 96" d="M128.329,250.61c-.827-.628-.827-.628-1.678.027l-.759-.91.851-.713a.7.7,0,0,1,.14.1c.579.53.571.521,1.195.066a.5.5,0,0,1,.457-.011,5.553,5.553,0,0,1,.674.606l-.879.839" transform="translate(-67.633 -133.778)" fill="#999" stroke="rgba(0,0,0,0)" stroke-width="1"></path><path id="Path_97" data-name="Path 97" d="M168.4,228.147c-.207-.015-.262-.014-.316-.024-.378-.071-.76-.053-.813.409-.059.5.338.528.714.528.213,0,.426.018.639.027l.094.2c-.168.117-.33.32-.508.336a13.158,13.158,0,0,1-1.6.006.427.427,0,0,1-.33-.2c-.032-.091.091-.236.143-.357.074-.17.145-.341.22-.51.132-.3.194-.755.417-.858a2.413,2.413,0,0,1,1.15-.021c.066.006.109.251.193.464" transform="translate(-89.326 -122.286)" fill="#999" stroke="rgba(0,0,0,0)" stroke-width="1"></path><path id="Path_98" data-name="Path 98" d="M158.174,231.147l-.838.836-.783-.847c.612-.989.864-.991,1.621.011" transform="translate(-84.105 -123.775)" fill="#999" stroke="rgba(0,0,0,0)" stroke-width="1"></path><path id="Path_99" data-name="Path 99" d="M139.7,230.684l-.885,1.011c-.276-.369-.622-.653-.688-.991-.035-.18.453-.672.637-.64.342.06.633.4.937.62" transform="translate(-74.203 -123.597)" fill="#999" stroke="rgba(0,0,0,0)" stroke-width="1"></path></g></g></g></svg>