<svg xmlns="http://www.w3.org/2000/svg" xmlns:xlink="http://www.w3.org/1999/xlink" width="170" height="170" viewBox="0 0 170 170"><defs><clipPath id="clip-path"><path id="Path_101" data-name="Path 101" d="M350.215,133.183c-14.416.826-14.664.485-14.664.485s-2.889,46.635,8.045,65.84S377.19,234.64,377.19,234.64s22.667-15.9,33.594-35.132c7.1-12.492,8.37-35.25,8.389-49.666v-.67c-.01-7.413-.344-12.456-.344-12.456v-3.048s-.237.339-14.65-.484-24.659-7.33-26.989-7.33-12.56,6.5-26.976,7.33" transform="translate(-335.205 -125.853)" fill="none"></path></clipPath><clipPath id="clip-path-2"><path id="Path_102" data-name="Path 102" d="M340.031,138.171a.181.181,0,0,1,0-.034s-.063.017,0,.034m13.148-.516c-11.212.644-12.936.576-13.148.516-.087,1.407-2.71,45.392,8.05,64.3,10.934,19.216,32.073,33.6,32.073,33.6s21.14-14.385,32.077-33.6c10.762-18.911,8.144-62.9,8.057-64.3.061-.017,0-.034,0-.034l0,.033c-.212.06-1.936.123-13.144-.515-14.413-.82-24.659-7.343-26.989-7.343s-12.56,6.517-26.976,7.343" transform="translate(-339.689 -130.312)" fill="none"></path></clipPath><linearGradient id="linear-gradient" x1="-0.664" y1="1.213" x2="-0.661" y2="1.213" gradientUnits="objectBoundingBox"><stop offset="0" stop-color="#394076"></stop><stop offset="0.25" stop-color="#383e73"></stop><stop offset="0.44" stop-color="#343a69"></stop><stop offset="0.62" stop-color="#2d3259"></stop><stop offset="0.78" stop-color="#242642"></stop><stop offset="0.93" stop-color="#181824"></stop><stop offset="1" stop-color="#121014"></stop></linearGradient><clipPath id="clip-path-3"><rect id="Rectangle_45" data-name="Rectangle 45" width="92.294" height="122.176" fill="none"></rect></clipPath></defs><g id="Group_1292" data-name="Group 1292" transform="translate(-20951 4143)"><rect id="Rectangle_7018" data-name="Rectangle 7018" width="170" height="170" transform="translate(20951 -4143)" fill="#fff" opacity="0"></rect><g id="Group_78" data-name="Group 78" transform="translate(20679.225 -4205.412)"><g id="Group_69" data-name="Group 69" transform="translate(318.951 99.713)"><g id="Group_68" data-name="Group 68" transform="translate(0 0)" clip-path="url(#clip-path)"><rect id="Rectangle_43" data-name="Rectangle 43" width="136.212" height="138.958" transform="translate(-56.11 44.946) rotate(-40.011)" fill="#b4b4b4"></rect></g></g><g id="Group_71" data-name="Group 71" transform="translate(320.469 101.224)"><g id="Group_70" data-name="Group 70" transform="translate(0)" clip-path="url(#clip-path-2)"><rect id="Rectangle_44" data-name="Rectangle 44" width="133.612" height="136.088" transform="matrix(0.766, -0.643, 0.643, 0.766, -54.445, 43.698)" fill="url(#linear-gradient)"></rect></g></g><g id="Group_73" data-name="Group 73" transform="translate(310.625 86.324)"><g id="Group_72" data-name="Group 72" transform="translate(0 0)" clip-path="url(#clip-path-3)"><path id="Path_103" data-name="Path 103" d="M334.533,180.172a.425.425,0,0,1-.129-.02l-.376-.119c-14.49-4.542-22.328-11.618-23.3-21.028-2.371-22.989,36.921-53.487,71.277-72.628a.43.43,0,0,1,.576.152l.237.383a.43.43,0,0,1-.125.579c-30.116,20.411-61.986,49.955-61.1,71.673.3,7.509,4.6,13.664,12.77,18.291l.115.064a.461.461,0,0,1,.217.339v.122a7.019,7.019,0,0,0,.176,1.274l.061.288a.467.467,0,0,1,.047.193.43.43,0,0,1-.423.437Z" transform="translate(-310.625 -86.323)" fill="#111"></path><path id="Path_104" data-name="Path 104" d="M335.329,179.24c-35.667-20.171,8.41-64.055,48.278-91.068-55.7,31.037-99.716,76.273-48.1,92.471a7.489,7.489,0,0,1-.18-1.4" transform="translate(-311.913 -87.546)" fill="#b4b4b4"></path><path id="Path_105" data-name="Path 105" d="M355.445,262.489a1.179,1.179,0,0,1-.142-.017l-.572-.207c-13.461-4.593-20.706-11.55-21.522-20.662-.894-9.928,6.1-22.383,20.228-36.009,3.946-3.807,8.5-7.736,13.529-11.693a.433.433,0,0,1,.7.261c.274,1.575.528,3.492.772,5.684a.434.434,0,0,1-.125.339c-15.859,15.761-24.239,29.912-24.225,40.924,0,7.076,3.455,12.993,10.26,17.59l.075.051a.447.447,0,0,1,.18.257l.024.085a6.987,6.987,0,0,0,.874,2.208l.315.525a.43.43,0,0,1-.369.657Z" transform="translate(-325.508 -157.398)" fill="#111"></path><path id="Path_106" data-name="Path 106" d="M440.338,150.064a.34.34,0,0,1-.142-.024.43.43,0,0,1-.288-.356q-.381-3.277-.579-4.627c-.024-.119-.047-.234-.068-.339l-.054-.251a.451.451,0,0,1,.166-.423,296.5,296.5,0,0,1,35.264-22.931.44.44,0,0,1,.586.149l.227.376a.444.444,0,0,1-.125.593,265.548,265.548,0,0,0-34.682,27.731.44.44,0,0,1-.3.1" transform="translate(-395.65 -109.293)" fill="#111"></path><path id="Path_107" data-name="Path 107" d="M369.046,201.474c-.21-1.924-.44-3.655-.677-5.172-33.269,26.271-48.735,54.48-12.1,67a7.836,7.836,0,0,1-.962-2.408c-20.648-13.915-8.312-37.473,13.738-59.422" transform="translate(-326.821 -159.05)" fill="#b4b4b4"></path><path id="Path_108" data-name="Path 108" d="M441.307,145.644c.031.18.071.339.1.535.132.84.308,2.242.535,4.159a269.341,269.341,0,0,1,34.4-27.436,294.784,294.784,0,0,0-35.034,22.742" transform="translate(-397.042 -110.512)" fill="#b4b4b4"></path><path id="Path_109" data-name="Path 109" d="M473.436,286.823a.412.412,0,0,1,.051-.213v-.135c0-1.016-1.477-1.829-3.214-1.829H470.1l-1.8.091c-1.954,0-3.269-1.047-3.269-2.473a5.051,5.051,0,0,1,1.314-3.177,3.282,3.282,0,0,1,2.71-1.3c1.314,0,2.588.776,3.8,2.341a7.76,7.76,0,0,1,1.9,5A6.413,6.413,0,0,1,473.6,289a18.987,18.987,0,0,1-4.214,3.949,62.54,62.54,0,0,1-6.6,4.305q-.8.432-1.643.782a22.219,22.219,0,0,1-3.272.911l-2.639.61-3.008.654-2.056.386c-.261.041-.471.088-.576.088s-.166-.047-.166-.088a1.435,1.435,0,0,1,.586-.386l1.314-.572c.677-.257,1.582-.654,2.8-1.175a92.662,92.662,0,0,0,12.614-6.68,41.736,41.736,0,0,0,6.7-4.959m-2.537-4.742a2.71,2.71,0,0,0-2.693-1.738c-.84,0-1.26.308-1.26.874,0,.478.522.728,1.578.728h1.057a4.975,4.975,0,0,1,1.318.142Z" transform="translate(-402.412 -212.935)" fill="#b4b4b4"></path><path id="Path_110" data-name="Path 110" d="M528.733,259.2l.955,10.727c.457,4.989.677,8.7.766,11.127,0,1.694,0,3.011-.051,3.9-.112,1.307-.288,2.876-.6,4.59-.125.989-.339,1.446-.488,1.429s-.2-.217-.213-.586c-.034-.952-.146-2.862-.4-5.758-.112-1.28-.213-2.615-.339-3.933l-2.036-24.374c-.044-.058-.044-.152-.095-.217a1.34,1.34,0,0,0,.088-.362l.142-.413.637-1.785c.19-.41.362-.606.474-.6s.3.234.474.677l2.811,7.133a.355.355,0,0,1,.037.271c0,.152-.068.2-.234.19a.486.486,0,0,1-.247-.186l-.3-.285-.64-.735a8.913,8.913,0,0,0-.742-.813" transform="translate(-453.205 -196.511)" fill="#b4b4b4"></path><path id="Path_111" data-name="Path 111" d="M471.387,366.74a.421.421,0,0,1,.044-.2v-.115c0-.918-1.355-1.694-2.943-1.694h-.152l-1.636.078c-1.792,0-2.991-.955-2.991-2.263a4.672,4.672,0,0,1,1.2-2.906,3,3,0,0,1,2.469-1.189,4.535,4.535,0,0,1,3.465,2.144,7.114,7.114,0,0,1,1.744,4.573,5.855,5.855,0,0,1-1.064,3.543,17.742,17.742,0,0,1-3.858,3.614,56.867,56.867,0,0,1-6.036,3.936c-.532.285-1.016.518-1.494.721a23.988,23.988,0,0,1-3,.837l-2.408.549c-.535.122-1.456.318-2.754.6l-1.883.339a4.266,4.266,0,0,1-.535.088c-.1,0-.149-.041-.149-.088s.193-.19.528-.339l1.209-.518c.627-.23,1.446-.589,2.564-1.064a86.281,86.281,0,0,0,11.54-6.124,38.02,38.02,0,0,0,6.138-4.519m-2.33-4.332a2.479,2.479,0,0,0-2.459-1.6c-.769,0-1.158.281-1.158.8,0,.434.484.677,1.453.677h.959a4.488,4.488,0,0,1,1.219.112Z" transform="translate(-402.399 -266.275)" fill="#b4b4b4"></path><path id="Path_112" data-name="Path 112" d="M424.94,328.386c-.9-.732-1.355-1.4-1.355-1.982a6.365,6.365,0,0,1,2.3-4.224,2.365,2.365,0,0,1,1.355-.769c.589,0,1.036.579,1.036,1.429a2.807,2.807,0,0,1-.281,1.253c-.224.589-.447.881-.677.881-.166,0-.247-.186-.278-.586-.03-.518-.2-.772-.478-.772a1.214,1.214,0,0,0-.813.339c-.589.474-.864.877-.864,1.209a1.355,1.355,0,0,0,.474.843,1.867,1.867,0,0,0,1.257.623,4.657,4.657,0,0,0,2.246-.847l.644-.4a3.705,3.705,0,0,0,.417-.217,1.116,1.116,0,0,1,.224-.108c.091,0,.142.064.142.176a1.236,1.236,0,0,1-.081.3l-.139.362-.2.478-.139.4a.915.915,0,0,1-.315.406l-.163.1-.193.112-5.758,3.821c-.02.044-.047.044-.105.075s-.112-.075-.112-.193a1.09,1.09,0,0,1,.2-.508c.02-.031.081-.257.193-.627.254-.718.227-.718.9-1.128a1.9,1.9,0,0,0,.566-.451" transform="translate(-384.994 -241.783)" fill="#b4b4b4"></path><path id="Path_113" data-name="Path 113" d="M437.555,217.9l.539,3.018a4.247,4.247,0,0,1-3.435-1.656c-.339-.437-1.175-1.866-1.175-6.71,0-7.862-.742-20.211-1.016-23.121l-.677-7.062c-.647-6.507-1.507-10.788-2.523-12.953l-.257-.549a3.241,3.241,0,0,1-.112-.41,1.691,1.691,0,0,1,.156-.654l.163-.508.268-.952.166-.454c.047-.254.105-.359.264-.359s.539.711,1.016,2.07a40.206,40.206,0,0,1,1.714,6.852c.271,1.772.755,5.9,1.453,12.4l.41,4.18c.159,1.392.366,10.473.589,17.444a52.543,52.543,0,0,0,.745,8.305,2.188,2.188,0,0,0,1.714,1.118" transform="translate(-388.836 -138.703)" fill="#b4b4b4"></path><path id="Path_114" data-name="Path 114" d="M463.847,277.878a2.706,2.706,0,0,0-2.839-1.975c-.427,0-1.927.108-2.3.108-2.317,0-3.438-.955-3.438-2.822a6.4,6.4,0,0,1,1.287-3.726,3.216,3.216,0,0,1,2.679-1.561,3.854,3.854,0,0,1,3,1.694,11.032,11.032,0,0,1,2.679,6.944c0,2.324-.644,3.99-1.927,5.05-2.408,1.961-5.84,3.021-10.294,3.12l-.589-3.018a24.1,24.1,0,0,0,4.607-.4,14.237,14.237,0,0,0,7.133-3.411m-2.371-13.6-1.487,2.1-2.815-2.175,1.528-2.185Zm-.322,8.654a2.7,2.7,0,0,0-2.676-2.168c-.857,0-1.284.339-1.284,1.108,0,.559.677.86,2.144.86h.86a3.677,3.677,0,0,1,.962.2Z" transform="translate(-404.184 -202.51)" fill="#b4b4b4"></path><path id="Path_115" data-name="Path 115" d="M430.582,351.932a2.692,2.692,0,0,0,.119-.677,10.9,10.9,0,0,0-.41-3.17,18.243,18.243,0,0,0-1.219-3.6l.813-2.456c.078-.244.183-.339.285-.339s.186.108.271.339c.769,1.927,1.694,4.359,4.034,3.153l.112,2.181c-1.037-.091-1.829.295-2.564-.339a9.793,9.793,0,0,1,.186,2.9,8.156,8.156,0,0,1-1.609,4.651,20.163,20.163,0,0,1-8.4,5.511,22.73,22.73,0,0,1-10.345,1.714q-8.048-.732-7.228-9.562A24.8,24.8,0,0,1,407,343.99c.251-.569.471-.84.718-.82.149,0,.24.115.22.318a3.771,3.771,0,0,0-.339.894c-.136.43-.339.955-.539,1.521a21.914,21.914,0,0,0-1.07,4.847c-.457,5.054,1.582,7.791,6.063,8.183a22.776,22.776,0,0,0,10.1-1.782,20.558,20.558,0,0,0,8.427-5.22m-10.565-2.32-1.694,2.066-2.612-2.547,1.694-2.154Z" transform="translate(-372.738 -255.194)" fill="#b4b4b4"></path><path id="Path_116" data-name="Path 116" d="M489.18,332.41q1.682-3.049,4.007-3.048c1.978,0,3.469,2.442,3.469,5.691a6.391,6.391,0,0,1-.9,2.54c-.373.677-.647,1.016-.911,1.016a12.8,12.8,0,0,1-4-1.175,9.309,9.309,0,0,1-2.4-1.355,5.9,5.9,0,0,0-.908,1.07l-.64,1.216c-1.165,1.826-2.476,1.433-4.617,1.585l-.4-2.093c3.147-.149,4.325-.915,5.758-3.6a4.431,4.431,0,0,1,1.555-1.843m4.742,2.984a3.54,3.54,0,0,0,.054-.752q0-2.54-2.032-2.54c-.677,0-1.277.457-1.751,1.375a8.143,8.143,0,0,0,3.729,1.917" transform="translate(-423.864 -247.04)" fill="#b4b4b4"></path><path id="Path_117" data-name="Path 117" d="M432.5,152.543l-.237-.379a.44.44,0,0,0-.572-.156c-34.888,19.432-74.458,50.3-71.2,73.323,1.355,9.559,9.941,16.628,25.546,21.028a.769.769,0,0,0,.119,0,.457.457,0,0,0,.318-.163c-2.188-1.822-4.742-4.027-7.391-6.534-4.525-3.746-7.113-8.231-7.7-13.363-2.49-21.793,29.879-52.092,60.993-73.184a.437.437,0,0,0,.125-.572" transform="translate(-343.475 -129.727)" fill="#111"></path><path id="Path_118" data-name="Path 118" d="M387.019,246.811c-.871-.745-1.792-1.521-2.75-2.371-34.326-20.364,9.42-63.808,49.009-90.648-56.346,31.4-100.739,77.327-46.259,93.019" transform="translate(-344.759 -130.939)" fill="#b4b4b4"></path></g></g></g></g></svg>