<svg xmlns="http://www.w3.org/2000/svg" width="170" height="170" viewBox="0 0 170 170">
  <g id="Group_1292" data-name="Group 1292" transform="translate(-20951 4143)">
    <rect id="Rectangle_7018" data-name="Rectangle 7018" width="170" height="170" transform="translate(20951 -4143)" fill="#fff" opacity="0"/>
    <g id="Group_1284" data-name="Group 1284" transform="translate(22969.195 2293.535)">
      <path id="Path_1" data-name="Path 1" d="M-1798.521-6231.126l-.246-.12c.055-.483.11-.972.17-1.5.1,0,.194,0,.285,0a9.5,9.5,0,0,0,1.029-.022,1.817,1.817,0,0,0,1.731-1.657,6.791,6.791,0,0,0,.086-1.11c.007-2.495,0-4.989,0-7.483v-.519h1.553c.008.143.02.264.02.385,0,2.59.008,5.182-.007,7.772a8.406,8.406,0,0,1-.155,1.517,3.124,3.124,0,0,1-2.831,2.652c-.134.018-.265.056-.4.084Z" transform="translate(-94.868 -78.356)" fill="#999" stroke="rgba(0,0,0,0)" stroke-width="1"/>
      <path id="Path_2" data-name="Path 2" d="M-1989.683-6348.521q0-4.964,0-9.928a10.378,10.378,0,0,1,.358-3.07,9.754,9.754,0,0,1,6.516-6.723,10.332,10.332,0,0,1,2.927-.484,2.017,2.017,0,0,1,.419.1,2.745,2.745,0,0,0,.363.045,11.2,11.2,0,0,1,6.637,2.449,9.359,9.359,0,0,1,3.62,7.228c.007.193.008.386.008.58q0,9.907,0,19.815a10.693,10.693,0,0,1-.227,2.382,9.154,9.154,0,0,1-3.542,5.52,11.04,11.04,0,0,1-10.952,1.583,9.306,9.306,0,0,1-4.268-3.346,9.965,9.965,0,0,1-1.865-6.136Q-1989.675-6343.515-1989.683-6348.521Zm6.166.1q0,7.655,0,15.308c0,.249,0,.5.012.745a3.346,3.346,0,0,0,2.447,3.188,5.231,5.231,0,0,0,3.136,0,3.706,3.706,0,0,0,2.8-3.691c0-.18,0-.359,0-.538v-29.417c0-.414-.005-.828,0-1.241a3.38,3.38,0,0,0-1.753-3.083,4.9,4.9,0,0,0-4.453-.367,3.121,3.121,0,0,0-2.109,2.593,7.989,7.989,0,0,0-.073,1.112Q-1983.521-6356.121-1983.517-6348.425Z" transform="translate(-0.851 -16.707)" fill="#999" stroke="rgba(0,0,0,0)" stroke-width="1"/>
      <path id="Path_3" data-name="Path 3" d="M-1849.72-6341.062h6.263c.01.122.028.24.028.356,0,.731.006,1.463,0,2.193a9.554,9.554,0,0,1-6.111,9.24,10.745,10.745,0,0,1-8.611.212,9.58,9.58,0,0,1-4.314-3.419,9.784,9.784,0,0,1-1.813-5.9q0-10.157,0-20.315a9.5,9.5,0,0,1,.269-2.5,9.54,9.54,0,0,1,7.168-7.222,10.856,10.856,0,0,1,9.879,2.2,9.056,9.056,0,0,1,3.512,7.107c.055,2.371.017,4.744.019,7.116q0,1.966,0,3.931v.492l-14.655.147c-.012.15-.028.269-.028.388q0,7.1,0,14.191a6.224,6.224,0,0,0,.044.784,3.473,3.473,0,0,0,3.121,3,5.466,5.466,0,0,0,2.415-.167,4.049,4.049,0,0,0,1.99-1.277,3.22,3.22,0,0,0,.813-2.117c.01-.841.006-1.683.007-2.523q0-2.711,0-5.421Zm0-7.083v-.532q0-4.425,0-8.849c0-2.206-.006-4.411,0-6.617a3.284,3.284,0,0,0-1.409-2.808,4.846,4.846,0,0,0-5.088-.475,3,3,0,0,0-1.811,2.405,6.832,6.832,0,0,0-.083,1.027q.024,7.712.061,15.424c0,.134.012.268.018.423Z" transform="translate(-62.607 -16.668)" fill="#999" stroke="rgba(0,0,0,0)" stroke-width="1"/>
      <path id="Path_4" data-name="Path 4" d="M-1782.661-6347.564l-14.682.148c-.01.148-.027.269-.027.388q0,7.1,0,14.191a5.726,5.726,0,0,0,.1,1.027,3.2,3.2,0,0,0,2.2,2.521,4.926,4.926,0,0,0,3.979-.209,3.546,3.546,0,0,0,2.132-3.407c-.006-2.537,0-5.075,0-7.613v-.515h6.241a.465.465,0,0,1,.046.142c-.015,1.158.025,2.32-.062,3.473a9.153,9.153,0,0,1-3.813,6.866,11.162,11.162,0,0,1-8.185,2.188,9.456,9.456,0,0,1-5.347-2.3,9.38,9.38,0,0,1-3.362-6.343c-.045-.507-.076-1.018-.076-1.526q-.008-9.993,0-19.985a9.886,9.886,0,0,1,.483-3.465,9.6,9.6,0,0,1,7.241-6.488,10.938,10.938,0,0,1,9.757,2.409,9.089,9.089,0,0,1,3.315,6.444c.035.426.056.854.056,1.28q.006,5.109,0,10.22Zm-6.292-.56v-15.591c0-.152,0-.3,0-.455a3.408,3.408,0,0,0-1.488-2.815,4.946,4.946,0,0,0-1.244-.634,4.921,4.921,0,0,0-2.814-.14,3.335,3.335,0,0,0-2.762,2.683,5.6,5.6,0,0,0-.1,1.108q.026,7.758.07,15.514c0,.1.02.21.032.33Z" transform="translate(-92.53 -16.686)" fill="#999" stroke="rgba(0,0,0,0)" stroke-width="1"/>
      <path id="Path_5" data-name="Path 5" d="M-1912.992-6368.043h-15.945v-.638c.291-.089,22.281-.116,22.857-.023l-15.952,39.585h15.943v.659c-.3.083-22.325.1-22.86.015Z" transform="translate(-30.76 -16.689)" fill="#999" stroke="rgba(0,0,0,0)" stroke-width="1"/>
      <path id="Path_6" data-name="Path 6" d="M-1988.356-6271.775c1.089-.033,2.178-.072,3.267-.1q6.6-.148,13.2-.288,8.254-.186,16.506-.379c5.833-.134,11.667-.246,17.5-.4q6.952-.187,13.9.03c3.046.1,6.1.135,9.143.2q8.336.189,16.672.382c3.1.07,6.206.13,9.308.2q7.032.162,14.065.334a2.6,2.6,0,0,1,.434.041c-1.089.029-2.177.064-3.266.088-3.13.069-6.261.13-9.391.2q-8.108.184-16.216.374c-3.1.07-6.206.132-9.309.2-5.474.124-10.949.24-16.423.383-2.884.075-5.765-.051-8.647-.1-1.5-.025-3.006-.076-4.509-.109q-6.557-.143-13.115-.281-9.35-.207-18.7-.421-6.619-.152-13.238-.306c-.392-.009-.786,0-1.179,0Z" transform="translate(-1.505 -63.832)" fill="#999" stroke="rgba(0,0,0,0)" stroke-width="1"/>
      <path id="Path_7" data-name="Path 7" d="M-1977.852-6241.534a2.729,2.729,0,0,1-2.572,1.358q-4.509-.007-9.019,0h-.451v-11.556l-1.52-.192v-.907a16.489,16.489,0,0,1,3.072-.133c.022.77.008,1.521.011,2.272s0,1.517,0,2.275v6.836h4.118v-6.648h1.58v6.637a3.088,3.088,0,0,0,.313.033q.993,0,1.986,0a1.83,1.83,0,0,0,1.792-1.222,3.536,3.536,0,0,0,.249-1.415q0-1.759,0-3.517c0-.147,0-.295,0-.464h1.557c.008.159.02.306.02.452,0,1.324-.009,2.648.007,3.973a5.65,5.65,0,0,0,.132,1.186,1.331,1.331,0,0,0,1.207,1.079,1.456,1.456,0,0,0,1.57-.753,3.34,3.34,0,0,0,.371-1.556c.029-1.268.032-2.536.046-3.8,0-.178,0-.356,0-.566h1.581v4.759c0,.109,0,.221,0,.331a1.334,1.334,0,0,0,1.488,1.517c.522.009,1.045,0,1.622,0,.026-.624.01-1.225.012-1.824s.007-1.214-.01-1.82-.047-1.185-.095-1.775-.128-1.2-.2-1.845l1.587-.3c.059.443.138.848.162,1.255.058.977.113,1.955.127,2.933.021,1.448.006,2.9,0,4.344,0,.121-.013.243-.022.392-.142.009-.262.022-.383.022-.951,0-1.9.006-2.854,0a5.45,5.45,0,0,1-.864-.076,1.974,1.974,0,0,1-1.475-1.021c-.039-.071-.085-.14-.131-.208-.005-.008-.025-.007-.039-.011A2.816,2.816,0,0,1-1977.852-6241.534Z" transform="translate(0 -73.703)" fill="#999" stroke="rgba(0,0,0,0)" stroke-width="1"/>
      <path id="Path_8" data-name="Path 8" d="M-1851.307-6240.2h-15.766a13.5,13.5,0,0,1-.025-1.427c-.007-.482,0-.965,0-1.448v-8.661l-1.5-.188v-.861a10.058,10.058,0,0,1,3.063-.136v11.334h4.139c0-.542,0-1.088,0-1.635s0-1.1,0-1.654v-3.336h1.574c0,1.428-.045,2.827-.166,4.249.063-.108.129-.216.189-.326a11.065,11.065,0,0,1,1.727-2.416,6.836,6.836,0,0,1,1.8-1.376,3.6,3.6,0,0,1,2.648-.3,2.875,2.875,0,0,1,2,1.76,3.978,3.978,0,0,1,.327,1.487c.02,1.586.015,3.172.018,4.758A1.023,1.023,0,0,1-1851.307-6240.2Zm-1.653-1.379c0-1.1.028-2.144-.014-3.188a4.054,4.054,0,0,0-.3-1.278,1.6,1.6,0,0,0-1.343-1.03,2.2,2.2,0,0,0-1.319.25,5.366,5.366,0,0,0-1.616,1.271,10.871,10.871,0,0,0-2.178,3.723c-.027.076-.038.156-.062.254Z" transform="translate(-60.48 -73.705)" fill="#999" stroke="rgba(0,0,0,0)" stroke-width="1"/>
      <path id="Path_9" data-name="Path 9" d="M-1885.947-6252.984h1.565v12.792h-5.554c-.037.256-.059.473-.1.687a4.154,4.154,0,0,1-3.476,3.525,10.431,10.431,0,0,1-3.5-.012,1.149,1.149,0,0,1-.177-.061l-.117-1.665c.521.085.991.178,1.465.236a6.137,6.137,0,0,0,2.462-.12,2.423,2.423,0,0,0,1.839-2.577c-.159,0-.32.005-.481,0a16.927,16.927,0,0,1-1.938-.1,3.5,3.5,0,0,1-2.993-3.188,4.847,4.847,0,0,1,.2-2.206,3.943,3.943,0,0,1,3.418-2.788,11.694,11.694,0,0,1,3.4.223v6.652h3.992Zm-5.587,5.858-1.205-.083a2.441,2.441,0,0,0-2.477,1.856,3.665,3.665,0,0,0-.041,1.721,2.3,2.3,0,0,0,2.467,2.072q.5.008.992,0a1.63,1.63,0,0,0,.264-.043Z" transform="translate(-46.343 -73.704)" fill="#999" stroke="rgba(0,0,0,0)" stroke-width="1"/>
      <path id="Path_10" data-name="Path 10" d="M-1815.326-6243.905h1.552v8.04c-.15.008-.271.021-.392.021q-4.138,0-8.276,0a5.047,5.047,0,0,1-1.708-.264,3.445,3.445,0,0,1-2.36-3.019,4.746,4.746,0,0,1,.331-2.595,3.948,3.948,0,0,1,3.036-2.364,10.451,10.451,0,0,1,3.644.185v6.65h4.174Zm-5.774,6.668v-5.56l-1.214-.08a2.332,2.332,0,0,0-2.379,1.628,3.614,3.614,0,0,0,.161,2.814,1.993,1.993,0,0,0,1.293,1.083A7.391,7.391,0,0,0-1821.1-6237.237Z" transform="translate(-81.182 -78.037)" fill="#999" stroke="rgba(0,0,0,0)" stroke-width="1"/>
      <path id="Path_11" data-name="Path 11" d="M-1932.984-6243.893v.438q0,3.6,0,7.2a5.762,5.762,0,0,1-.262,1.793,4.075,4.075,0,0,1-3.081,2.774,8.86,8.86,0,0,1-2.962.129c-.312-.025-.622-.076-.949-.117l-.117-1.7c.524.086,1,.181,1.471.239a6.07,6.07,0,0,0,2.5-.134,2.409,2.409,0,0,0,1.784-2.563c-.173,0-.349.006-.523,0a16,16,0,0,1-1.9-.1,3.505,3.505,0,0,1-2.986-3.2,5.17,5.17,0,0,1,.117-1.929,4.071,4.071,0,0,1,3.964-3.1A14.007,14.007,0,0,1-1932.984-6243.893Zm-1.6,1.11-1.2-.085a2.443,2.443,0,0,0-2.482,1.85,3.671,3.671,0,0,0-.044,1.722,2.3,2.3,0,0,0,2.463,2.077c.317.006.634,0,.951,0a2.89,2.89,0,0,0,.313-.037Z" transform="translate(-25.144 -78.045)" fill="#999" stroke="rgba(0,0,0,0)" stroke-width="1"/>
      <path id="Path_12" data-name="Path 12" d="M-1779.853-6235.838c-.338,0-.68.012-1.02,0a10.393,10.393,0,0,1-1.441-.105,3.5,3.5,0,0,1-2.929-3.114,5.031,5.031,0,0,1,.11-2.01,4.072,4.072,0,0,1,3.885-3.1,13.477,13.477,0,0,1,2.99.284c.008.109.024.229.024.349,0,2.455.01,4.91-.008,7.364a6.041,6.041,0,0,1-.183,1.431,4.073,4.073,0,0,1-3.44,3.109,10.221,10.221,0,0,1-3.459-.026,1.194,1.194,0,0,1-.159-.055l-.127-1.673c.2.033.351.056.5.087a7.9,7.9,0,0,0,3.038.121,3.764,3.764,0,0,0,.789-.237A2.364,2.364,0,0,0-1779.853-6235.838Zm.023-1.379v-5.566l-1.2-.086a2.418,2.418,0,0,0-2.482,1.844,3.682,3.682,0,0,0,.139,2.393,2.1,2.1,0,0,0,1.57,1.332A10.643,10.643,0,0,0-1779.83-6237.217Z" transform="translate(-101.347 -78.043)" fill="#999" stroke="rgba(0,0,0,0)" stroke-width="1"/>
      <path id="Path_13" data-name="Path 13" d="M-1853.319-6391.063l-.921-.78,6.291-10.808,4.243,3.462Z" transform="translate(-67.551)" fill="#999" stroke="rgba(0,0,0,0)" stroke-width="1"/>
      <path id="Path_14" data-name="Path 14" d="M-1917.271-6239.73l1.705-.3c-.108.4-.208.737-.289,1.08a8.719,8.719,0,0,0-.119,3.935,4.4,4.4,0,0,0,.444,1.193,2.332,2.332,0,0,0,2.247,1.2,2.3,2.3,0,0,0,2.124-1.263,5.124,5.124,0,0,0,.552-2.1c.04-.508.053-1.02.054-1.529.006-1.848,0-3.7,0-5.545v-.521H-1909c.011.117.03.236.03.354,0,2.041.008,4.082,0,6.124a10.032,10.032,0,0,1-.376,2.942,6.877,6.877,0,0,1-.241.659,3.436,3.436,0,0,1-2.574,2.115,5.756,5.756,0,0,1-2.584,0,3.45,3.45,0,0,1-2.328-1.772,5.786,5.786,0,0,1-.594-1.881A10.654,10.654,0,0,1-1917.271-6239.73Z" transform="translate(-36.258 -78.33)" fill="#999" stroke="rgba(0,0,0,0)" stroke-width="1"/>
      <path id="Path_15" data-name="Path 15" d="M-1767.125-6247.246l-1.5-.179v-.914a16.727,16.727,0,0,1,3.045-.125v10.473h-1.549Z" transform="translate(-109.714 -75.922)" fill="#999" stroke="rgba(0,0,0,0)" stroke-width="1"/>
      <path id="Path_16" data-name="Path 16" d="M-1765.5-6257.353l-.21.8c-.215,0-.406-.008-.595,0-.4.02-.615.2-.635.51a.631.631,0,0,0,.575.685c.338.044.682.042,1.052.06v.906a19.956,19.956,0,0,1-3.405.027v-.917h.969c-.031-.072-.049-.126-.076-.176a1.245,1.245,0,0,1,.571-1.775A2.884,2.884,0,0,1-1765.5-6257.353Z" transform="translate(-109.668 -71.516)" fill="#999" stroke="rgba(0,0,0,0)" stroke-width="1"/>
      <path id="Path_17" data-name="Path 17" d="M-1803.654-6223.823a1.07,1.07,0,0,1,1.051-1.1,1.027,1.027,0,0,1,1.043,1.05,1.063,1.063,0,0,1-1.034,1.153A1.1,1.1,0,0,1-1803.654-6223.823Z" transform="translate(-92.462 -87.522)" fill="#999" stroke="rgba(0,0,0,0)" stroke-width="1"/>
      <path id="Path_18" data-name="Path 18" d="M-1806.8-6223.822a1.056,1.056,0,0,1-1.044,1.1,1.063,1.063,0,0,1-1.046-1.1,1.063,1.063,0,0,1,1.048-1.1A1.056,1.056,0,0,1-1806.8-6223.822Z" transform="translate(-89.885 -87.522)" fill="#999" stroke="rgba(0,0,0,0)" stroke-width="1"/>
      <path id="Path_19" data-name="Path 19" d="M-1790.749-6249.507a.98.98,0,0,1-1.006,1.021,1.024,1.024,0,0,1-.984-1.1,1,1,0,0,1,1.041-.994A.974.974,0,0,1-1790.749-6249.507Z" transform="translate(-97.837 -74.888)" fill="#999" stroke="rgba(0,0,0,0)" stroke-width="1"/>
      <path id="Path_20" data-name="Path 20" d="M-1976.757-6222.886a1.03,1.03,0,0,1-1.01-1.078,1.013,1.013,0,0,1,1.024-1.016.98.98,0,0,1,.974,1.051A.99.99,0,0,1-1976.757-6222.886Z" transform="translate(-6.72 -87.494)" fill="#999" stroke="rgba(0,0,0,0)" stroke-width="1"/>
      <path id="Path_21" data-name="Path 21" d="M-1908.8-6243.818a.973.973,0,0,1-.984,1.04,1.03,1.03,0,0,1-1.007-1.08,1.011,1.011,0,0,1,1.026-1.013A.963.963,0,0,1-1908.8-6243.818Z" transform="translate(-39.704 -77.699)" fill="#999" stroke="rgba(0,0,0,0)" stroke-width="1"/>
    </g>
  </g>
</svg>
