<svg xmlns="http://www.w3.org/2000/svg" xmlns:xlink="http://www.w3.org/1999/xlink" width="170" height="170" viewBox="0 0 170 170"><defs><clipPath id="clip-path"><rect id="Rectangle_40" data-name="Rectangle 40" width="143.895" height="67.062" fill="#999" stroke="rgba(0,0,0,0)" stroke-width="1"></rect></clipPath></defs><g id="Group_1292" data-name="Group 1292" transform="translate(-20951 4143)"><rect id="Rectangle_7018" data-name="Rectangle 7018" width="170" height="170" transform="translate(20951 -4143)" fill="#fff" opacity="0"></rect><g id="Group_76" data-name="Group 76" transform="translate(20964.051 -4091.531)"><g id="Group_62" data-name="Group 62" clip-path="url(#clip-path)"><path id="Path_43" data-name="Path 43" d="M298.221,82.066c.16,0,.461,0,.829-.005-.78,0-1.18.005-.829.005" transform="translate(-189.596 -52.193)" fill="#999" stroke="rgba(0,0,0,0)" stroke-width="1"></path><path id="Path_44" data-name="Path 44" d="M300.722,82.018c1.082-.006,2.9-.008,4.433-.015-.511-.007-.975-.01-1.176-.01-.435,0-2.153.017-3.257.025" transform="translate(-191.269 -52.15)" fill="#999" stroke="rgba(0,0,0,0)" stroke-width="1"></path><path id="Path_45" data-name="Path 45" d="M301.351,50.017c0-.368-.029-2.2-.029-2.6,0-.251.029-1.409.029-1.66,0-.229.058-1.355.058-1.605,0-.681-.088-1.133-.815-1.133-.2,0-1.1.086-1.327.086-.2,0-1.215-.086-1.466-.086-.763,0-.763.539-.763,1.185,0,.254.056,1.5.056,1.774,0,.513-.028,1.046-.028,1.579,0,.68.056,1.332.056,2.006,0,.2-.028,1.044-.028,1.266v2.991a3.583,3.583,0,0,1-.086.706.482.482,0,0,1-.509.364c-.675,0-.793-.871-.793-1.493a3.946,3.946,0,0,1,.029-.591c0-.538.031-2.118.031-2.707,0-.227-.061-1.358-.061-1.608V46.633c0-.228.061-1.3.061-1.552,0-.31.027-.818.027-1.126,0-.678-.108-.934-1.1-.934-.223,0-1.266.03-1.494.03-.142,0-.761-.03-.9-.03-.7,0-.846.4-.846,1.074,0,.365.082,2.17.082,2.593,0,.339-.025,2-.025,2.4,0,1.352.086,3.5.086,4.852,0,.112-.006.209-.015.3a1.163,1.163,0,0,1-.695.651.119.119,0,0,1-.047.009.651.651,0,0,1-.482-.442,4.277,4.277,0,0,1-.068-.638V50.831c0-.222-.026-1.07-.026-1.266,0-.674.059-1.327.059-2.006,0-.533-.033-1.066-.033-1.579,0-.277.057-1.52.057-1.774,0-.647,0-1.185-.758-1.185-.257,0-1.271.086-1.47.086-.222,0-1.128-.086-1.327-.086-.73,0-.817.451-.817,1.133,0,.25.058,1.377.058,1.605,0,.251.029,1.409.029,1.66,0,.4-.029,2.23-.029,2.6v0c-1.994-.013-7.6-.016-8.353-.016.35,0,1.754.039,2.506.05l1.473-.02c.644.016,1.049.02,1.4.021h1.511c.443,0,1.014-.011,1.463-.017v.016H284.57c-.274.007-.5.007-.6.007-.346,0-.611,0-.913-.005-1.248.005-2.407.005-2.491.005s-.215,0-.382-.007c-.517.01-1.029.014-1.313.014-.687,0-10.333.02-10.333.02-.2,0-.775-.012-1.248-.02-.263-.066-.793-.365-1-1.4,0-.569-.008.156-.026-.314,0-.277-.028-1.575-.028-1.828,0-.509,0-.759.028-1.578,0,0-.037.047-.037-.421s-.023-2.268-.023-2.268c0-.223.032-.465.032-.666s-.032-1.129-.032-1.326c0-.169.06-.959.06-1.1a.67.67,0,0,0-.707-.732c-.283,0-1.607.114-1.863.114-.164,0-.872-.059-1.013-.059-.675,0-.675.677-.675.873,0,.255.054,1.412.054,1.637v1.042c0,.539-.082,1.369-.082,1.822,0,.308.056.1.056.351,0,.337-.028,1.888-.028,2.2,0,.955-.028,1.189-.028,2.151,0,.3.011,1.285.019,2.017a.676.676,0,0,0-.019.153c0,.075.011.215.025.386,0,.1,0,.182,0,.234,0,.34-.028,1.776-.028,2.087.028.818.394.876.927.876.09,0,.306-.019.543-.029.3,0,.9-.021,1.425-.036.351.014.76.036.88.036a.774.774,0,0,0,.3-.058h1.2c.784,0,7.233.088,7.89.088.455,0,5.069-.058,5.44-.058.494,0,2.766.029,3.222.029.565,0-.847,0-2.641.009.752.008,1.607.021,1.88.021.066,0,1.7-.013,2.979-.021-.009.388-.024.744-.024.878a4.311,4.311,0,0,0,.734,2.705,2.975,2.975,0,0,0,2.425.959,3.858,3.858,0,0,0,1.936-.5,3.4,3.4,0,0,0,1.652.44,3.726,3.726,0,0,0,2.171-.705c.062-.057.339-.311.427-.311.024,0,.024,0,.195.14a1.337,1.337,0,0,0,.225.171,4.625,4.625,0,0,0,2.453.762,2.99,2.99,0,0,0,2.43-.959,4.334,4.334,0,0,0,.73-2.705c0-.312-.06-1.834-.06-2.2,0-.42.029-2.483.029-2.958" transform="translate(-166.624 -24.448)" fill="#999" stroke="rgba(0,0,0,0)" stroke-width="1"></path><path id="Path_46" data-name="Path 46" d="M328.668,41.378c.142,0,.847-.058,1.016-.058.257,0,1.58.111,1.859.111a.672.672,0,0,0,.708-.733c0-.086-.025-.422-.04-.708.014-.28.04-.62.04-.706a.673.673,0,0,0-.708-.734c-.28,0-1.6.116-1.859.116-.169,0-.875-.059-1.016-.059-.679,0-.679.677-.679.876,0,.083.01.28.017.506s-.017.43-.017.51c0,.2,0,.878.679.878" transform="translate(-208.612 -24.52)" fill="#999" stroke="rgba(0,0,0,0)" stroke-width="1"></path><path id="Path_47" data-name="Path 47" d="M343.679,41.378c.139,0,.845-.058,1.012-.058.256,0,1.582.111,1.861.111a.669.669,0,0,0,.708-.733c0-.086-.02-.422-.036-.708.016-.28.036-.62.036-.706a.67.67,0,0,0-.708-.734c-.279,0-1.6.116-1.861.116-.167,0-.874-.059-1.012-.059-.676,0-.676.677-.676.876,0,.083.008.28.013.506s-.013.43-.013.51c0,.2,0,.878.676.878" transform="translate(-218.161 -24.52)" fill="#999" stroke="rgba(0,0,0,0)" stroke-width="1"></path><path id="Path_48" data-name="Path 48" d="M358.679,41.378c.142,0,.845-.058,1.017-.058.253,0,1.582.111,1.859.111a.674.674,0,0,0,.711-.733c0-.086-.025-.422-.046-.708.02-.28.046-.62.046-.706a.675.675,0,0,0-.711-.734c-.277,0-1.606.116-1.859.116-.172,0-.875-.059-1.017-.059-.676,0-.676.677-.676.876,0,.083.009.28.014.506s-.014.43-.014.51c0,.2,0,.878.676.878" transform="translate(-227.701 -24.52)" fill="#999" stroke="rgba(0,0,0,0)" stroke-width="1"></path><path id="Path_49" data-name="Path 49" d="M234.512,58.144a.9.9,0,0,1-.733-.535,2.75,2.75,0,0,1-.2-1.441v-.534c0-1.155.312-1.691.932-1.691.7,0,.872.848.872.929.033.114.033,1.861.033,2.148a1.034,1.034,0,0,1-.9,1.124m4.994-1.524v-.7c0-1.3-.227-3.974-1.807-4.963a3.3,3.3,0,0,0-1.973-.537,6.815,6.815,0,0,0-2.285,0,5.035,5.035,0,0,0-1.974.537c-1.578.989-1.8,3.664-1.8,4.963a7.2,7.2,0,0,0,1.016,4.313,3.48,3.48,0,0,0,2.762,1.381,2.871,2.871,0,0,0,1.552-.423.591.591,0,0,1,.223-.056.438.438,0,0,1,.4.452,1.871,1.871,0,0,1-.227.874c-.141.223-.419.48-1.6.48a4.026,4.026,0,0,1-1.809-.4c-.308-.2-.365-.2-.48-.2a.931.931,0,0,0-.759.509,3.294,3.294,0,0,0-.054.535c0,.083.028.563.028.674,0,.31-.028.592-.028.875,0,.451.084.734.9.988a5.949,5.949,0,0,0,2.2.363c.166,0,.987.029,1.155.029a7.5,7.5,0,0,0,3.527-.872c.756-.538,1.069-1.156,1.069-3.243,0-.195-.024-1.157-.024-1.38,0-.255.024-1.494.024-1.75,0-.815-.024-1.635-.024-2.454" transform="translate(-146.072 -32.008)" fill="#999" stroke="rgba(0,0,0,0)" stroke-width="1"></path><path id="Path_50" data-name="Path 50" d="M303.316,70.217h0Z" transform="translate(-192.913 -44.66)" fill="#999" stroke="rgba(0,0,0,0)" stroke-width="1"></path><path id="Path_51" data-name="Path 51" d="M213.662,51.818c0-.677-.084-1.124-.818-1.124-.2,0-1.1.083-1.325.083-.195,0-1.213-.083-1.466-.083-.761,0-.761.533-.761,1.181,0,.256.056,1.5.056,1.777,0,.51-.03,1.045-.03,1.581,0,.676.061,1.325.061,2,0,.2-.031,1.044-.031,1.266v2.993a3.586,3.586,0,0,1-.086.706c-.129.311-.417.371-.787.365a1.163,1.163,0,0,1-.745-.312c-.151-.131-.324-.314-.477-.472s-.5-.162-.5.272v4.026c0,.505.9.4,1.37.4.671,0,1.37.036,2.356.036a2.976,2.976,0,0,0,2.426-.957,4.31,4.31,0,0,0,.73-2.711c0-.306-.054-1.83-.054-2.2,0-.424.031-2.481.031-2.959,0-.371-.031-2.2-.031-2.6,0-.251.031-1.411.031-1.662,0-.23.053-1.353.053-1.611" transform="translate(-131.5 -32.243)" fill="#999" stroke="rgba(0,0,0,0)" stroke-width="1"></path><path id="Path_52" data-name="Path 52" d="M138.237,58.144a.9.9,0,0,1-.734-.535,2.768,2.768,0,0,1-.2-1.441v-.534c0-1.155.312-1.691.932-1.691.7,0,.872.848.872.929.029.114.029,1.861.029,2.148a1.032,1.032,0,0,1-.9,1.124m4.988-1.524v-.7c0-1.3-.223-3.974-1.8-4.963a3.292,3.292,0,0,0-1.975-.537,6.777,6.777,0,0,0-2.279,0,5.075,5.075,0,0,0-1.98.537c-1.577.989-1.8,3.664-1.8,4.963a13.3,13.3,0,0,0,.086,1.538l-.552.011c-.376,0-16.475.027-19.224.029v-.044c0-.371-.028-2.2-.028-2.6,0-.252.028-1.411.028-1.662,0-.228.053-1.353.053-1.611,0-.677-.081-1.124-.816-1.124-.2,0-1.1.083-1.324.083-.2,0-1.212-.083-1.466-.083-.762,0-.762.533-.762,1.18,0,.256.053,1.5.053,1.778,0,.509-.025,1.044-.025,1.58,0,.676.057,1.326.057,2,0,.2-.031,1.044-.031,1.267v2.992a3.433,3.433,0,0,1-.085.7c-.129.316-.413.372-.782.366a1.164,1.164,0,0,1-.748-.312c-.152-.131-.323-.314-.476-.471s-.5-.163-.5.27v4.027c0,.506.907.4,1.369.4.673,0,1.373.034,2.358.034a2.959,2.959,0,0,0,2.424-.955,4.3,4.3,0,0,0,.737-2.71c0-.133-.015-.489-.023-.883,3.535.005,20.488.029,21.788.029.662,0,2.719-.031,3.295-.031l-.011-.04.011,0c.064-.009.369-.1.452-.11a4.821,4.821,0,0,0,3.99-4.951" transform="translate(-67.95 -32.008)" fill="#999" stroke="rgba(0,0,0,0)" stroke-width="1"></path><path id="Path_53" data-name="Path 53" d="M112.062,130.533a3.85,3.85,0,0,1-1.042,1.527,4.251,4.251,0,0,1-3.331,1.127,7.723,7.723,0,0,1-2.488-.227c-.559-.142-1.044-.28-1.044-1.014,0-.2.03-1.213.03-1.443a6.42,6.42,0,0,0-.03-.761c0-.112-.027-.225-.027-.337a.779.779,0,0,1,.73-.79.365.365,0,0,1,.174.029,2.789,2.789,0,0,1,.593.222,8.891,8.891,0,0,0,1.185.142c.394,0,1.1-.2,1.1-.844a1.59,1.59,0,0,0-.681-1.187c-.225-.224-.45-.4-.7-.621a6.754,6.754,0,0,1-1.386-1.722,5.561,5.561,0,0,1-.793-2.821,5.7,5.7,0,0,1,.425-2.231c.029-.055.394-.7.538-.9A4.218,4.218,0,0,1,108.9,117.1h.255c.479.031.961.089,1.468.116.623.055,1.162.083,1.272.7a10.038,10.038,0,0,1,0,1.328c0,.2.059,1.044.059,1.214a.852.852,0,0,1-.85.845,2.2,2.2,0,0,1-.68-.226,2.131,2.131,0,0,0-.7-.138c-.51,0-.96.227-.96.734,0,.48.538,1.011,1.24,1.722a7.306,7.306,0,0,1,1.835,2.314,5.085,5.085,0,0,1,.593,2.6,5.775,5.775,0,0,1-.365,2.227" transform="translate(-66.229 -74.478)" fill="#999" stroke="rgba(0,0,0,0)" stroke-width="1"></path><path id="Path_54" data-name="Path 54" d="M129.1,112.308c0-.453.084-2.772.084-3.3v-1.046c0-.226-.054-1.383-.054-1.635,0-.2,0-.875.677-.875.142,0,.847.055,1.016.055.251,0,1.581-.113,1.865-.113a.671.671,0,0,1,.7.733c0,.145-.058.932-.058,1.105,0,.2.031,1.126.031,1.326s-.031,1.1-.031,1.324c0,.337.031.508.229.508.111,0,.111,0,.338-.227a3.606,3.606,0,0,1,2.036-.648,3.873,3.873,0,0,1,2.681,1.017,3.462,3.462,0,0,1,.7,2.483c0,.285-.06,1.579-.06,1.888,0,1.386-.024,3.644-.024,5.053,0,.285.055,1.663.055,1.975,0,.225-.031,1.3-.031,1.555,0,.167.031,1.016.031,1.211a.727.727,0,0,1-.821.82c-.224,0-1.3-.054-1.545-.054-.174,0-1.021.054-1.216.054-.821,0-.795-.141-.735-1.581,0-.2-.032-1.129-.032-1.326,0-.169.032-1.017.032-1.213,0-.393-.06-2.371-.06-2.793,0-.792,0-2,.06-2.8,0-.081.054-.987.054-1.073,0-1.071-.424-1.071-.705-1.071-.873,0-.9.677-.932,1.214-.027.821-.027,1.073-.027,1.579,0,.256.027,1.553.027,1.836.029.79.029,1.948.029,2.737,0,.285-.056,1.664-.056,1.978,0,.363.027.762.056,1.1,0,.14.085.734.085.848a.549.549,0,0,1-.618.593c-.2,0-1.185-.056-1.411-.056-.2,0-1.214.084-1.443.084-.536,0-.9-.057-.932-.877,0-.309.03-1.749.03-2.087,0-.4-.03-2.34-.03-2.792,0-.96.03-2.509.03-3.474,0-.308.033-1.861.033-2.2,0-.252-.063-1.523-.063-1.829" transform="translate(-82.11 -67.031)" fill="#999" stroke="rgba(0,0,0,0)" stroke-width="1"></path><path id="Path_55" data-name="Path 55" d="M163.085,126.135a2.808,2.808,0,0,0-.195,1.439v.539c0,1.152.312,1.689.931,1.689.7,0,.878-.841.878-.926.027-.116.027-1.866.027-2.147a1.035,1.035,0,0,0-.9-1.13.907.907,0,0,0-.737.537m5.735,3.052c0,.225.025,1.266.025,1.519,0,.2-.053,1.185-.053,1.412v.424c0,.538-.4.649-.737.649-.2,0-1.184-.027-1.409-.027a3.9,3.9,0,0,0-.792.027c-.142,0-.286.028-.423.028-.4,0-.4-.167-.4-.451,0-.2-.082-.307-.168-.307s-.421.335-.507.394a2.472,2.472,0,0,1-1.609.479,3.289,3.289,0,0,1-1.977-.538c-1.582-.984-1.8-3.666-1.8-4.967a7.21,7.21,0,0,1,1.015-4.316,3.48,3.48,0,0,1,2.765-1.382,2.854,2.854,0,0,1,1.551.423.59.59,0,0,0,.223.054.434.434,0,0,0,.4-.451,1.89,1.89,0,0,0-.225-.876c-.144-.224-.428-.479-1.615-.479a3.953,3.953,0,0,0-1.8.4c-.308.2-.366.2-.482.2-.251,0-.705-.255-.757-.508a2.86,2.86,0,0,1-.058-.536c0-.089.026-.565.026-.678,0-.313-.026-.594-.026-.874,0-.455.083-.734.9-.99a5.922,5.922,0,0,1,2.2-.364c.173,0,.993-.029,1.157-.029a7.454,7.454,0,0,1,3.53.873c.762.534,1.073,1.158,1.073,3.246,0,.195-.025,1.157-.025,1.384,0,.253.025,1.5.025,1.748,0,.819-.025,1.639-.025,2.455Z" transform="translate(-101.11 -74.681)" fill="#999" stroke="rgba(0,0,0,0)" stroke-width="1"></path><path id="Path_56" data-name="Path 56" d="M193.714,123.483a2.778,2.778,0,0,0-.078-.676c-.061-.512-.172-.993-.258-1.469-.052-.424-.31-2.458-.425-2.908a3.4,3.4,0,0,1-.08-.48c0-.451.276-.479.5-.479a1.815,1.815,0,0,1,.392.028H194.9c.14,0,.9-.028,1.1-.028.957,0,.986.452,1.011.875.032.509.032,1.045.032,1.553,0,.308.03.648.03.956.027.513.115,1.019.142,1.526.025.595.051,1.185.081,1.808.087,1.069.289,2.906.427,3.952.054-.253.083-.508.112-.762.052-.424.052-.848.111-1.243.03-.279.06-.563.111-.82.088-.87.624-5.954.649-6.631.032-1.157.256-1.157,1.1-1.157.256,0,1.413.058,1.693.058.114,0,.735-.029.872-.029.285,0,.767.029.767.674a4.047,4.047,0,0,1-.085.593c-.111.538-.227,1.047-.341,1.556-.2,1.185-.341,2.368-.536,3.528-.114.843-.311,1.69-.452,2.539-.087.535-.165,1.041-.253,1.578-.116.535-.253,1.076-.342,1.611-.111.676-.2,1.38-.336,2.062-.057.281-.114.538-.171.816-.107.567-.22.677-.761.677-.308,0-1.889-.082-2.258-.082-.139,0-.87.055-1.014.055-.624,0-.71-.223-.848-.962-.145-.676-.281-1.579-.366-2.257a4.746,4.746,0,0,0-.2-1.1c-.111.392-.222.82-.307,1.212-.088.369-.172.705-.256,1.045s-.169.706-.252,1.045c-.144.507-.255,1.015-.963,1.015a1.423,1.423,0,0,1-.338-.027c-.253,0-1.072-.028-1.183-.028-.227,0-1.3.082-1.524.082-.708,0-.764-.4-.962-1.553-.086-.646-.2-1.3-.285-1.971-.111-.654-.222-1.3-.336-1.951-.141-1.1-.253-2.227-.451-3.328-.084-.54-.2-1.043-.284-1.552-.138-.878-.195-1.751-.308-2.629-.061-.336-.312-2.088-.312-2.171,0-.536.368-.564.846-.589h1.1c.2,0,1.042-.029,1.244-.029.9,0,.931.447.959.814.028.65.393,4.15.621,5.649.11.872.225,1.748.34,2.623.055.506.142.985.224,1.5l.256-1.132c.056-.223.226-1.27.278-1.493a9.985,9.985,0,0,0,.424-1.837Z" transform="translate(-119.206 -74.681)" fill="#999" stroke="rgba(0,0,0,0)" stroke-width="1"></path><path id="Path_57" data-name="Path 57" d="M234.208,126.135a2.832,2.832,0,0,0-.193,1.439v.539c0,1.152.309,1.689.928,1.689.709,0,.881-.841.881-.926.024-.116.024-1.866.024-2.147a1.034,1.034,0,0,0-.9-1.13.915.915,0,0,0-.735.537m5.738,3.052c0,.225.026,1.266.026,1.519,0,.2-.059,1.185-.059,1.412v.424c0,.538-.394.649-.732.649-.2,0-1.188-.027-1.411-.027a3.894,3.894,0,0,0-.791.027c-.145,0-.284.028-.427.028-.395,0-.395-.167-.395-.451,0-.2-.088-.307-.167-.307s-.424.335-.508.394a2.462,2.462,0,0,1-1.611.479,3.287,3.287,0,0,1-1.974-.538c-1.583-.984-1.809-3.666-1.809-4.967a7.227,7.227,0,0,1,1.017-4.316,3.481,3.481,0,0,1,2.765-1.382,2.837,2.837,0,0,1,1.551.423.609.609,0,0,0,.23.054.436.436,0,0,0,.4-.451,1.877,1.877,0,0,0-.225-.876c-.143-.224-.429-.479-1.616-.479a3.917,3.917,0,0,0-1.8.4c-.314.2-.369.2-.485.2a.939.939,0,0,1-.761-.508,3.591,3.591,0,0,1-.056-.536c0-.089.031-.565.031-.678,0-.313-.031-.594-.031-.874,0-.455.086-.734.9-.99a5.93,5.93,0,0,1,2.2-.364c.176,0,.99-.029,1.16-.029a7.465,7.465,0,0,1,3.529.873c.764.534,1.075,1.158,1.075,3.246,0,.195-.026,1.157-.026,1.384,0,.253.026,1.5.026,1.748,0,.819-.026,1.639-.026,2.455Z" transform="translate(-146.344 -74.681)" fill="#999" stroke="rgba(0,0,0,0)" stroke-width="1"></path><path id="Path_58" data-name="Path 58" d="M260.721,117.322h1.105c.167,0,1.07-.025,1.268-.025.366,0,.705,0,.757.477a1.643,1.643,0,0,1,0,.423c0,.17.061,1.016.061,1.216.313-.849.847-2.23,1.81-2.23a.458.458,0,0,1,.334.086.7.7,0,0,1,.255.618,1.447,1.447,0,0,1-.026.337c-.028.369-.028.964-.028,1.161,0,.563,0,1.128.028,1.689,0,.174.056.934.056,1.106,0,.138,0,.592-.481.592-.055,0-.368-.084-.427-.084-.2,0-1.209.28-1.209,2.422v1.441c0,.256-.034,1.5-.034,1.809,0,.142,0,.223.034.79,0,.2-.034,1.211-.034,1.438,0,.144.034.312.034.452.028.143.112.817.112.96,0,.875-.4,1.015-.792,1.015-.167,0-.932-.054-1.1-.054-.226,0-1.38.082-1.634.082-.766,0-.877-.307-.877-.761v-1.723c0-.278-.056-1.692-.056-2,0-.34.056-1.89.056-2.259V121.58c0-.507-.056-2.906-.056-3.441,0-.282,0-.817.844-.817" transform="translate(-165.29 -74.532)" fill="#999" stroke="rgba(0,0,0,0)" stroke-width="1"></path><path id="Path_59" data-name="Path 59" d="M283.714,127.387c0,.427,0,.819.024,1.242,0,.145-.024.935-.024,1.1,0,.226.083,1.243.083,1.467,0,1.3,0,1.919-.764,1.919-.2,0-1.043-.055-1.24-.055-.227,0-1.3.055-1.525.055-.25,0-.845,0-.845-.9,0-.142.028-.256.028-.4a15.449,15.449,0,0,0,.084-1.584c0-.395-.084-2.313-.084-2.737,0-1.211.031-2.395.054-3.584,0-.194-.024-1.182-.024-1.41,0-.253.054-1.5.054-1.753,0-.476-.03-.956-.054-1.436,0-.14-.058-.875-.058-1.047,0-.816.676-.816.932-.816.11,0,.759.028.9.028.083,0,.987,0,1.387-.057.111,0,.222-.028.365-.028.479,0,.479.253.479.594,0,.227.139.365.228.365.055,0,.113-.028.452-.309a3.638,3.638,0,0,1,2.118-.732,3.771,3.771,0,0,1,2.176.7c.054.059.332.311.419.311.028,0,.028,0,.2-.141a1.807,1.807,0,0,1,.225-.17,4.664,4.664,0,0,1,2.46-.76,2.99,2.99,0,0,1,2.429.961,4.312,4.312,0,0,1,.73,2.708c0,.312-.056,1.833-.056,2.2,0,.426.029,2.483.029,2.967,0,.363-.029,2.2-.029,2.593,0,.255.029,1.412.029,1.665,0,.229.055,1.355.055,1.61,0,.676-.083,1.127-.819,1.127-.2,0-1.1-.081-1.324-.081-.2,0-1.215.081-1.473.081-.758,0-.758-.536-.758-1.184,0-.254.056-1.5.056-1.775,0-.511-.031-1.043-.031-1.581,0-.681.062-1.327.062-2.005,0-.2-.03-1.046-.03-1.269V122.28a3.527,3.527,0,0,0-.086-.706.483.483,0,0,0-.509-.365c-.672,0-.788.875-.788,1.5a4.207,4.207,0,0,0,.028.595c0,.535.025,2.113.025,2.705,0,.223-.054,1.356-.054,1.609v1.861c0,.225.054,1.3.054,1.554,0,.312.032.817.032,1.132,0,.677-.113.927-1.1.927-.228,0-1.268-.027-1.492-.027-.143,0-.763.027-.907.027-.7,0-.847-.395-.847-1.072,0-.366.084-2.173.084-2.593,0-.338-.025-2.006-.025-2.4,0-1.354.083-3.5.083-4.856,0-.7-.175-.988-.622-.988a.663.663,0,0,0-.65.535,2.961,2.961,0,0,0-.115,1.529c0,.419-.024,2.512-.024,2.987Z" transform="translate(-177.721 -74.58)" fill="#999" stroke="rgba(0,0,0,0)" stroke-width="1"></path><path id="Path_60" data-name="Path 60" d="M328.952,123.359a6.392,6.392,0,0,0,1.044.055c.482,0,.733-.109.733-.787a7.355,7.355,0,0,0-.081-1.469.967.967,0,0,0-.961-.761c-1.013,0-1.013,1.357-1.013,2.115,0,.2,0,.737.278.847m5.331,8.216a.675.675,0,0,1-.28.648,6.377,6.377,0,0,1-3.445.7c-1.749,0-3.441-.309-4.656-1.976-1.183-1.58-1.27-3.355-1.27-6.011,0-.2.11-2.341.142-2.622.255-3.557,1.974-5.449,4.963-5.449a4.143,4.143,0,0,1,3.843,1.836,6.543,6.543,0,0,1,1.072,3.979c0,.34-.053,2.963-.085,3.133-.059.112-.363.874-.987.843-.112,0-.648-.054-.76-.054-.2,0-1.185.084-1.414.084-.284,0-1.694-.056-2.03-.056-.26,0-.677,0-.677.706a1.613,1.613,0,0,0,.306.931,2.1,2.1,0,0,0,1.868.791,3.56,3.56,0,0,0,2.168-.535,1.452,1.452,0,0,1,.482-.116.823.823,0,0,1,.82.706c0,.059-.059,1.1-.059,1.3Z" transform="translate(-206.477 -74.332)" fill="#999" stroke="rgba(0,0,0,0)" stroke-width="1"></path><path id="Path_61" data-name="Path 61" d="M356.033,117.322h1.1c.173,0,1.077-.025,1.272-.025.368,0,.708,0,.764.477a2.244,2.244,0,0,1,0,.423c0,.17.055,1.016.055,1.216.308-.849.85-2.23,1.807-2.23a.467.467,0,0,1,.338.086.7.7,0,0,1,.255.618,1.51,1.51,0,0,1-.025.337c-.03.369-.03.964-.03,1.161,0,.563,0,1.128.03,1.689,0,.174.051.934.051,1.106,0,.138,0,.592-.477.592-.056,0-.37-.084-.423-.084-.2,0-1.218.28-1.218,2.422v1.441c0,.256-.025,1.5-.025,1.809,0,.142,0,.223.025.79,0,.2-.025,1.211-.025,1.438,0,.144.025.312.025.452a9.579,9.579,0,0,1,.111.96c0,.875-.392,1.015-.787,1.015-.167,0-.928-.054-1.1-.054-.222,0-1.382.082-1.635.082-.763,0-.876-.307-.876-.761v-1.723c0-.278-.056-1.692-.056-2,0-.34.056-1.89.056-2.259V121.58c0-.507-.056-2.906-.056-3.441,0-.282,0-.817.845-.817" transform="translate(-225.911 -74.532)" fill="#999" stroke="rgba(0,0,0,0)" stroke-width="1"></path><path id="Path_62" data-name="Path 62" d="M383.273,117.844h-.718v.768h.718a.365.365,0,0,0,.419-.39c0-.263-.158-.378-.419-.378m.473,1.238.58,1.175h-.715l-.539-1.092h-.516v1.092h-.626v-2.991h1.386a.915.915,0,0,1,1.026.943.851.851,0,0,1-.6.874m-.713-2.52a2.253,2.253,0,1,0,2.254,2.249,2.2,2.2,0,0,0-2.254-2.249m0,4.992a2.74,2.74,0,1,1,2.744-2.743,2.685,2.685,0,0,1-2.744,2.743" transform="translate(-241.88 -73.827)" fill="#999" stroke="rgba(0,0,0,0)" stroke-width="1"></path><path id="Path_63" data-name="Path 63" d="M40.291,9.485a4.654,4.654,0,0,0-.524,3.88c.161.5.318,1.159.569,1.161A9.373,9.373,0,0,0,43.327,13.4a2.516,2.516,0,0,0,1.093-2.14,2.432,2.432,0,0,0-.333-1.417c-.245-.347-1.242-1.086-.634-1.564.417-.326.422-.9.013-1.487-.661-.938-.324-2.3-.252-3.356.064-.969.129-1.947.136-2.921.005-.578-.322-.581-.739-.419s-1.492.316-1.5.73.481,1.822.553,2.978a6.679,6.679,0,0,1,.142,2.284C41.6,6.825,40.563,7.225,40.556,8a3.034,3.034,0,0,1-.134,1.228,1.79,1.79,0,0,1-.131.256" transform="translate(-25.157 0)" fill="#999" stroke="rgba(0,0,0,0)" stroke-width="1"></path><path id="Path_64" data-name="Path 64" d="M44.7,140.455a4.059,4.059,0,0,0,.008-2.161.592.592,0,0,0-.768-.162c-.932.481-1.469,2.83-2.07,3.633a2.9,2.9,0,0,1-3.846,1.115c-.549-.264-.224,1.347.305,2.192a2.209,2.209,0,0,0,.991.978,3.69,3.69,0,0,1,.673.523,2.19,2.19,0,0,1,.433,1.219,27.6,27.6,0,0,0,.037,6.268c-.012,1.489,1.6.8,1.467-1.061s-.32-2.5-.342-3.7a16.276,16.276,0,0,1,.182-2.573c.084-.355.326-.575.752-.994,1.561-1.525,1.828-3.308,2.178-5.279" transform="translate(-24.003 -87.808)" fill="#999" stroke="rgba(0,0,0,0)" stroke-width="1"></path><path id="Path_65" data-name="Path 65" d="M35.5,100.434c.547.505,1.34,1.159,2.591,2.1a7.979,7.979,0,0,0,5.148,1.653,8.733,8.733,0,0,1,4.225.95c1.008.786.513,1.381-.406,1.156a15.851,15.851,0,0,0-4.154.232c-2.368.425-3.9.832-4.653.408a8.837,8.837,0,0,1-2.766-3.116c-.451-.717-.921-1.425-1.32-2.171a1.479,1.479,0,0,1-.081-1.584c.346-.409.886-.119,1.417.369" transform="translate(-21.551 -63.521)" fill="#999" stroke="rgba(0,0,0,0)" stroke-width="1"></path><path id="Path_66" data-name="Path 66" d="M13.02,86.566a.947.947,0,0,1,.371,1.207c-.22.765-.561.816-.939.684a2.275,2.275,0,0,1-1.287-1.5c0-1.114,1.224-.811,1.855-.386m3.726,1.585a.954.954,0,0,1,1.1-.284,17.041,17.041,0,0,1,2.272,1.2,38.545,38.545,0,0,0,3.593,1.846,12.384,12.384,0,0,0,5.653.977c1.631-.211,2.286-.491,2.567-1.083.3-.637-1.924-.665-3.142-.947a20.077,20.077,0,0,1-4.939-2.073c-1.088-.664-2.617-1.443-4.032-2.11s-4.242-1.828-4.242-1.828c-3.644-1.434-8.543-2.365-8.158,1.618a8.126,8.126,0,0,0,2.7,5c1.006.927,2.746,2.43,4.24,2.282,3.006-.29,1.309-3.459,2.389-4.6" transform="translate(-4.705 -52.549)" fill="#999" stroke="rgba(0,0,0,0)" stroke-width="1"></path><path id="Path_67" data-name="Path 67" d="M20.612,114.975a.892.892,0,0,1-1.39.023,1.281,1.281,0,0,1-.385-1.183.885.885,0,0,1,.725-.693.959.959,0,0,1,1.017.379,1.393,1.393,0,0,1,.033,1.474m13.15-1.7a12.317,12.317,0,0,0-5.485.458,7.22,7.22,0,0,0-2.484,1.37c-1.009.854-1.456,1.292-1.9.973a3.614,3.614,0,0,1-.63-.513s-.206-.068-.158-.218a4.37,4.37,0,0,0,.115-2.119,3.414,3.414,0,0,0-1.979-2.415,3.4,3.4,0,0,0-3.042-.076c-1.279.485-1.77.454-2.6-.078-.6-.377-.746-.708-1.4-1.465,0,0-.87-.673-.494.466.69,2.079,2.1,2.647,2.22,3.137a6.805,6.805,0,0,0,.36,2.805,3.578,3.578,0,0,0,3.946,2.357,3.07,3.07,0,0,0,1.611-.639c.29.237.509.443.509.443a.36.36,0,0,0,.05.047,17,17,0,0,1-2.266,1.821c-1.266.961-.662,1.435.369,1.956a16.884,16.884,0,0,0,2.412,1.025c.925.292,1.306.044,1.886-1.279a11.7,11.7,0,0,1,2.618-4.208c1.814-1.906,4.081-2.222,6.161-2.855,1.3-.393.953-.911.183-.992" transform="translate(-8.656 -69.324)" fill="#999" stroke="rgba(0,0,0,0)" stroke-width="1"></path><path id="Path_68" data-name="Path 68" d="M25.124,45.264l-.3.174c-.387.221-.768.445-1.167.649-.238.12-.925.264-.987.568s.436.8.7.977a6.063,6.063,0,0,0,1.982.858,3.894,3.894,0,0,0,1.062-.482l.12-.066a9.658,9.658,0,0,0,1.084-.7.332.332,0,0,0,.145-.287c0-.341-.764-.94-.971-1.086l-1.059-.7-.04-.006a1.234,1.234,0,0,0-.567.1" transform="translate(-14.414 -28.724)" fill="#999" stroke="rgba(0,0,0,0)" stroke-width="1"></path><path id="Path_69" data-name="Path 69" d="M13.46,50.98l-.325.177c-.411.22-.819.448-1.241.651-.253.12-.979.257-1.049.571-.074.334.438.853.712,1.042a6.21,6.21,0,0,0,2.062.947,4.007,4.007,0,0,0,1.126-.479l.128-.065a15.665,15.665,0,0,0,1.582-.68.357.357,0,0,0,.162-.3c0-.36-1.207-1.034-1.425-1.193l-1.09-.762-.044,0a1.239,1.239,0,0,0-.6.09" transform="translate(-6.894 -32.365)" fill="#999" stroke="rgba(0,0,0,0)" stroke-width="1"></path><path id="Path_70" data-name="Path 70" d="M27.118,56.306l-.338.183c-.431.233-.859.471-1.3.681-.265.125-1.028.269-1.1.6-.079.352.46.894.751,1.094a6.644,6.644,0,0,0,2.155,1,4.407,4.407,0,0,0,1.177-.506l.139-.067a16.616,16.616,0,0,0,1.655-.714.4.4,0,0,0,.171-.312c0-.378-1.268-1.081-1.5-1.247l-1.141-.8-.05,0a1.33,1.33,0,0,0-.622.1" transform="translate(-15.501 -35.748)" fill="#999" stroke="rgba(0,0,0,0)" stroke-width="1"></path><path id="Path_71" data-name="Path 71" d="M25.693,53.429l.155.223a2.184,2.184,0,0,1,.053,2.467c-.519,1-4.6-.75-5.372-1.007a73.048,73.048,0,0,1-7.284-2.9c-1.34-.607-2.663-1.248-3.987-1.9-1.634-.8-3.194-1.7-4.755-2.638C2.053,46.2.96,45.44.361,46.025c-.624.614-.3,1.945-.07,3.9.114.989,3.889,2.623,6.06,3.56,1.858.8,6.8,2.917,11.819,4.742A41.328,41.328,0,0,0,26,60.54c3.72.682,4.2-5.3,3-7.393l-.167-.22.162-.049c1.745-.533,2.387-1.647,2.23-2.826-.167-1.237-1.818-2.223-1.818-2.223A5.693,5.693,0,0,0,32.013,46.6c1.417-1.219.738-3.247-.336-4.216-3.162-2.845-7.175-2.852-11.255-1.88a42.927,42.927,0,0,0-6.442,2.111c-.479.2-.073.488,1.1,1.088a24.649,24.649,0,0,0,3.083,1.428c.826.268,1.22-.154,1.868-.488,2.3-1.191,5.2-2.237,7.783-1.324,1.1.39,1.214,1.256.874,1.652a2.8,2.8,0,0,1-2.459.819,12.341,12.341,0,0,0-3.645.067c-.588.156-1.034.594-.83.875.512.713,1.83.946,3.076,1.015a3.552,3.552,0,0,1,2.234.612c.629.553.654,1.7-.017,1.961-2.226.864-5.5-1.124-7.13-2.2-.322-.209-1.153.13-1.524.239-1.027.3-1.346.42-1.907.532s-1.254.341-1.062.623a14.352,14.352,0,0,0,9.925,3.932Z" transform="translate(0 -25.393)" fill="#999" stroke="rgba(0,0,0,0)" stroke-width="1"></path></g></g></g></svg>