<svg width="69" height="70" viewBox="0 0 69 70" fill="none" xmlns="http://www.w3.org/2000/svg">
<g clip-path="url(#clip0_1_3447)">
<g clip-path="url(#clip1_1_3447)">
<g clip-path="url(#clip2_1_3447)">
<mask id="mask0_1_3447" style="mask-type:luminance" maskUnits="userSpaceOnUse" x="4" y="9" width="62" height="51">
<path d="M65.1964 9.84485H4.09619V59.4262H65.1964V9.84485Z" fill="white"/>
</mask>
<g mask="url(#mask0_1_3447)">
<path d="M63.4772 35.0444C63.2194 34.3172 62.9992 33.7137 62.787 33.1419C61.2534 29.0195 59.6992 24.8086 58.3619 21.1866L57.9197 19.9868C57.3511 18.4444 56.7815 16.9019 56.2108 15.3594C56.1383 15.0555 55.9973 14.7722 55.7985 14.5311C55.5997 14.29 55.3484 14.0976 55.0639 13.9686C54.7533 13.9252 54.4368 13.9537 54.1389 14.0516C53.841 14.1496 53.5694 14.3145 53.3451 14.5338C52.9313 14.8464 52.5347 15.1353 52.0567 15.4804C51.9397 15.5677 51.8194 15.6556 51.6991 15.7448L51.4664 15.9121C50.2331 16.8953 48.8777 17.7148 47.434 18.35L47.1186 18.5001L47.0063 18.1696C46.1866 15.7811 44.6529 13.7022 42.6126 12.2142C40.5724 10.7263 38.1242 9.90122 35.5995 9.85073C33.0748 9.80024 30.5956 10.5268 28.4975 11.9319C26.3994 13.3371 24.7837 15.353 23.8692 17.7068L23.78 17.9382L23.5334 17.9038C23.0617 17.8351 22.5856 17.8011 22.1088 17.802C19.7549 17.7957 17.4752 18.6254 15.6759 20.1432C13.8766 21.661 12.6746 23.7683 12.2842 26.0897C12.2234 26.4428 12.1821 26.799 12.1606 27.1567L12.1513 27.3365L12.0852 27.3695C12.0773 27.3741 12.0694 27.3774 12.0634 27.3808L12.029 27.3986L11.99 27.4171C9.53235 28.6556 7.2001 30.1287 5.02579 31.8158C4.01966 32.5972 3.90265 32.9918 4.33035 34.1718C7.2108 42.1349 10.0932 50.0962 12.9776 58.0558C13.0474 58.3486 13.1845 58.6211 13.3781 58.8515C13.5718 59.082 13.8165 59.264 14.0929 59.3832C14.3791 59.4311 14.6726 59.4112 14.9499 59.3252C15.2271 59.2392 15.4803 59.0895 15.6893 58.8881C22.5445 53.5499 30.9246 50.5392 39.6097 50.2943C40.4373 50.2659 41.2683 50.213 42.084 50.1363L42.3326 50.1112L42.3874 50.2765L42.4106 50.3485C42.4529 50.4768 42.4978 50.6031 42.5468 50.73C43.435 53.0118 45.1683 54.8636 47.3864 55.9005C49.6046 56.9374 52.1371 57.0797 54.4574 56.2978C56.7778 55.5159 58.7076 53.8699 59.8459 51.7019C60.9841 49.534 61.2431 47.0108 60.5692 44.6568C60.5315 44.5286 60.4912 44.4023 60.4475 44.2787L60.3649 44.0394L60.5791 43.9072C60.9209 43.6976 61.2818 43.4696 61.652 43.2263C61.8424 43.1014 62.0361 42.9797 62.2317 42.8574L62.3507 42.7808C63.475 42.1966 64.4495 41.3612 65.1986 40.3395V39.5198C64.5375 38.0079 63.9756 36.4346 63.4798 35.0444M26.4295 18.4558C27.1862 16.6342 28.4822 15.0878 30.1435 14.0243C31.8047 12.9608 33.7516 12.4311 35.7227 12.5065C37.6938 12.5818 39.5946 13.2586 41.1698 14.4458C42.745 15.633 43.9192 17.2739 44.5346 19.1479L44.6879 19.6226L44.4235 19.7336C40.6866 21.2972 36.7358 22.2898 32.7036 22.678C32.5959 22.6892 32.463 22.7031 32.3162 22.7044C32.0551 22.7216 31.798 22.7421 31.5428 22.7619L31.4866 22.7666C31.4337 22.7666 31.3802 22.7745 31.3286 22.7791L31.2414 22.7871C31.1508 22.793 31.0602 22.8009 30.971 22.8089L30.7727 22.8247L30.6728 22.6575C30.5182 22.3964 30.3463 22.1392 30.1638 21.8907C29.2256 20.6095 27.997 19.569 26.5789 18.8544L26.3198 18.7222L26.4295 18.4558ZM15.1803 25.4181C15.6689 23.9681 16.6009 22.7085 17.8446 21.8174C19.0884 20.9262 20.5808 20.4486 22.1108 20.4522C22.3537 20.4516 22.5965 20.4642 22.838 20.4899C23.3318 20.5357 23.8194 20.6341 24.2923 20.7834C25.456 21.1512 26.5102 21.8022 27.3603 22.678L27.7979 23.1295L27.1745 23.2062C26.8043 23.2518 26.4434 23.3 26.0937 23.3483C25.5596 23.4217 25.0129 23.5017 24.4721 23.5843C23.9208 23.6716 23.3787 23.7621 22.8605 23.8527C20.3722 24.2949 18.8227 24.6962 18.4069 24.8099L18.3838 24.8145C17.4623 25.108 16.5441 25.4346 15.6582 25.7817C15.6351 25.7909 15.6126 25.8002 15.5921 25.8081C15.5485 25.824 15.5029 25.8411 15.4599 25.8597L15.1803 25.9687L15.1334 25.9872L14.9681 26.0533L15.1803 25.4181ZM51.44 54.2085C50.1133 54.2077 48.8153 53.8225 47.7029 53.0996C46.5905 52.3767 45.7114 51.347 45.1718 50.135C45.1189 50.0213 45.0687 49.9023 45.0264 49.7866C44.7296 49.0086 44.5781 48.1827 44.5795 47.35C44.5795 47.1576 44.5855 46.9857 44.6 46.8112C44.6112 46.679 44.6251 46.5375 44.6456 46.4034C44.8217 45.1397 45.3467 43.9501 46.1616 42.9684C46.9765 41.9866 48.049 41.2516 49.2586 40.8457C50.4683 40.4399 51.7671 40.3794 53.0092 40.671C54.2513 40.9626 55.3875 41.5948 56.2901 42.4965C56.3886 42.5963 56.4825 42.6948 56.5731 42.7979C57.2414 43.5521 57.7363 44.4437 58.0228 45.4098C58.0572 45.5283 58.0884 45.6471 58.1167 45.7661C58.355 46.7737 58.3623 47.8222 58.138 48.833C57.9136 49.8438 57.4634 50.7907 56.8212 51.6029C56.1789 52.415 55.3611 53.0713 54.4292 53.5225C53.4973 53.9737 52.4754 54.2082 51.44 54.2085ZM61.065 40.0896C60.4416 40.5226 59.801 40.941 59.1624 41.3363L58.9284 41.4798L58.7552 41.2656C58.6924 41.1876 58.623 41.1109 58.5569 41.0342C58.3899 40.8452 58.216 40.6645 58.0353 40.4922C58.0353 40.4922 58.0353 40.4875 58.0294 40.4862C56.7293 39.2397 55.1022 38.3877 53.3372 38.029C51.5721 37.6703 49.7415 37.8197 48.058 38.4599C46.3745 39.1001 44.9072 40.2047 43.8264 41.6456C42.7457 43.0864 42.0959 44.8043 41.9525 46.5997C41.9445 46.7015 41.9386 46.8059 41.9353 46.9124L41.9227 47.186L41.651 47.2112C40.6138 47.3064 39.5284 47.3718 38.6564 47.4253H38.6313C36.7568 47.5055 34.8885 47.6953 33.0361 47.9939C27.1705 49.0481 21.5846 51.2984 16.626 54.6044C16.3603 54.8149 16.0383 54.9421 15.7005 54.97C15.5986 54.9695 15.4974 54.9532 15.4004 54.9217C15.2029 54.8364 15.0283 54.7058 14.8905 54.5406C14.7527 54.3754 14.6557 54.1801 14.6072 53.9705C12.6154 48.3845 10.4273 42.3253 7.72621 34.9115C7.56631 34.587 7.53594 34.2137 7.64129 33.8676C7.74664 33.5215 7.97979 33.2284 8.29339 33.048C9.99697 31.8457 11.7937 30.7811 13.6665 29.8643C14.1867 29.6098 14.699 29.3725 15.1869 29.1597C17.8811 27.9853 20.6998 27.1204 23.5889 26.5815C24.1515 26.4771 24.7127 26.3832 25.2667 26.3052C26.0117 26.1961 26.7759 26.1069 27.5335 26.0408C27.9413 26.0051 28.3539 25.9747 28.7644 25.9377L28.9157 25.9251C29.1141 25.9112 29.3018 25.8954 29.4922 25.8815L30.1374 25.8312C30.2795 25.82 30.4216 25.8094 30.5638 25.7969C33.3775 25.6478 36.1739 25.265 38.9242 24.6526C41.4182 24.0357 43.8552 23.2079 46.209 22.1782C46.7603 21.9363 47.307 21.6831 47.8352 21.424C49.4739 20.6229 51.0595 19.7176 52.5823 18.7136C52.6761 18.6475 52.7727 18.5887 52.8698 18.5292L53.445 18.1669L53.7794 18.3058C53.9568 18.3829 54.1124 18.5025 54.2327 18.654C54.3529 18.8054 54.434 18.9842 54.4689 19.1744L54.4828 19.2213C54.4856 19.2326 54.4894 19.2437 54.4941 19.2544C55.5235 22.0286 56.5524 24.8075 57.5805 27.591L59.5921 33.0361C60.2433 34.7952 60.9142 36.6131 61.5898 38.3907C61.7332 38.6883 61.7583 39.0292 61.6602 39.3446C61.562 39.66 61.3479 39.9265 61.061 40.0902" fill="#421C67"/>
<path d="M38.883 32.6923C38.3398 32.0944 37.6781 31.6161 36.9399 31.288C36.2017 30.9598 35.4032 30.7891 34.5954 30.7865H34.5861C33.1585 30.7853 31.7797 31.3058 30.709 32.2501C29.847 33.0159 29.2321 34.0205 28.9422 35.1365C28.6523 36.2525 28.7006 37.4295 29.081 38.5179C29.4613 39.6064 30.1565 40.5573 31.0784 41.2499C32.0002 41.9425 33.1071 42.3455 34.2584 42.4078C35.4097 42.4701 36.5536 42.1889 37.5448 41.5998C38.536 41.0107 39.3297 40.1403 39.8253 39.0993C40.3208 38.0582 40.4958 36.8933 40.3281 35.7526C40.1603 34.6118 39.6573 33.5467 38.883 32.6923ZM36.5885 38.6326C36.3248 38.8987 36.0118 39.1109 35.667 39.2573C35.3246 39.4005 34.9572 39.4742 34.5861 39.4741H34.5597C33.805 39.4579 33.0858 39.1506 32.5525 38.6164C32.0192 38.0822 31.713 37.3625 31.698 36.6078C31.6967 35.8509 31.9949 35.1242 32.5274 34.5863C33.06 34.0485 33.7836 33.7431 34.5405 33.7368H34.5623C34.9354 33.7316 35.3058 33.8001 35.6524 33.9383C35.999 34.0764 36.3149 34.2816 36.5822 34.542C36.8494 34.8024 37.0626 35.1129 37.2097 35.4558C37.3568 35.7987 37.4348 36.1673 37.4393 36.5403C37.4432 36.9277 37.3703 37.3121 37.2247 37.6711C37.0791 38.0301 36.8637 38.3567 36.5911 38.6319" fill="#421C67"/>
<path d="M48.3116 32.1126C48.3121 32.4999 48.161 32.8719 47.8907 33.1493C47.6204 33.4266 47.2523 33.5872 46.8652 33.5967H46.8493C46.6584 33.5988 46.469 33.563 46.292 33.4914C46.115 33.4199 45.954 33.3139 45.8182 33.1797C45.6824 33.0455 45.5746 32.8858 45.5009 32.7096C45.4272 32.5335 45.3892 32.3445 45.3891 32.1536V32.141C45.3847 31.9495 45.4183 31.759 45.488 31.5806C45.5577 31.4022 45.6621 31.2394 45.7951 31.1015C45.9281 30.9637 46.0872 30.8536 46.263 30.7776C46.4389 30.7017 46.628 30.6613 46.8196 30.6589H46.8355C47.2217 30.6637 47.5911 30.8178 47.8663 31.0889C48.1415 31.36 48.301 31.7271 48.3116 32.1133" fill="#421C67"/>
<path d="M23.7601 41.0818C23.7582 41.2778 23.7174 41.4715 23.6401 41.6517C23.5628 41.8319 23.4506 41.995 23.31 42.1316C23.1742 42.2631 23.0138 42.3666 22.838 42.436C22.6621 42.5054 22.4743 42.5395 22.2853 42.5361C21.8968 42.5276 21.5273 42.3659 21.2575 42.0861C20.9877 41.8064 20.8394 41.4314 20.8449 41.0428C20.8466 40.8525 20.8859 40.6645 20.9604 40.4894C21.035 40.3144 21.1433 40.1558 21.2793 40.0227C21.4153 39.8896 21.5762 39.7847 21.7528 39.7139C21.9294 39.6431 22.1182 39.6079 22.3085 39.6103H22.327C22.5186 39.6095 22.7085 39.6473 22.8852 39.7214C23.0619 39.7956 23.2219 39.9046 23.3556 40.0419C23.4893 40.1793 23.594 40.3421 23.6633 40.5208C23.7327 40.6994 23.7661 40.8902 23.7601 41.0818Z" fill="#421C67"/>
<path d="M47.1199 18.4981L44.6879 19.6219L44.5345 19.1473C43.9191 17.2732 42.745 15.6324 41.1698 14.4451C39.5946 13.2579 37.6938 12.5812 35.7227 12.5058C33.7516 12.4305 31.8047 12.9601 30.1434 14.0236C28.4822 15.0871 27.1862 16.6335 26.4295 18.4551L26.3178 18.7248L26.5769 18.8571C27.995 19.5716 29.2236 20.6122 30.1618 21.8933C30.3443 22.1418 30.5162 22.3997 30.6708 22.6601L30.7707 22.8274L30.969 22.8115C31.0582 22.8036 31.1488 22.7956 31.2393 22.7897C30.2788 22.8803 27.8019 23.1315 27.8019 23.1315L27.3642 22.68C26.5142 21.8042 25.46 21.1532 24.2963 20.7854C23.8233 20.6361 23.3358 20.5377 22.8419 20.4918C22.6004 20.4662 22.3577 20.4536 22.1148 20.4542C20.5847 20.4506 19.0923 20.9282 17.8486 21.8193C16.6049 22.7105 15.6728 23.9701 15.1842 25.42L14.9701 26.056L15.1353 25.9899C14.0115 26.446 12.6233 27.1137 12.1553 27.3378L12.1645 27.158C12.1861 26.8003 12.2273 26.4441 12.2881 26.091C12.6771 23.7688 13.8782 21.6602 15.6772 20.1411C17.4762 18.622 19.7562 17.7912 22.1108 17.7967C22.5875 17.7957 23.0637 17.8298 23.5354 17.8985L23.782 17.9329L23.8712 17.7015C24.7857 15.3477 26.4013 13.3318 28.4994 11.9266C30.5975 10.5214 33.0768 9.79493 35.6015 9.84542C38.1261 9.89591 40.5743 10.721 42.6146 12.2089C44.6548 13.6969 46.1886 15.7758 47.0082 18.1643L47.1199 18.4981Z" fill="#9057CD"/>
</g>
</g>
</g>
</g>
<defs>
<clipPath id="clip0_1_3447">
<rect width="68.75" height="68.75" fill="white" transform="translate(0.129883 0.590027)"/>
</clipPath>
<clipPath id="clip1_1_3447">
<rect width="68.75" height="68.75" fill="white" transform="translate(0.129883 0.590027)"/>
</clipPath>
<clipPath id="clip2_1_3447">
<rect width="68.75" height="68.75" fill="white" transform="translate(0.129883 0.590027)"/>
</clipPath>
</defs>
</svg>
