<svg width="69" height="70" viewBox="0 0 69 70" fill="none" xmlns="http://www.w3.org/2000/svg">
<g clip-path="url(#clip0_1_3505)">
<g clip-path="url(#clip1_1_3505)">
<g clip-path="url(#clip2_1_3505)">
<mask id="mask0_1_3505" style="mask-type:luminance" maskUnits="userSpaceOnUse" x="6" y="10" width="58" height="51">
<path d="M63.1672 10.0048H6.07959V60.1209H63.1672V10.0048Z" fill="white"/>
</mask>
<g mask="url(#mask0_1_3505)">
<path d="M43.7133 23.7151C43.5251 23.4066 43.3365 23.0981 43.1474 22.7896L41.3626 19.8863C39.5116 16.8758 37.6584 13.8664 35.8031 10.8582C35.7219 10.6103 35.5647 10.3942 35.3538 10.2407C35.1429 10.0871 34.8891 10.0039 34.6282 10.0027C34.3674 10.0015 34.1128 10.0825 33.9005 10.2342C33.6883 10.3858 33.5292 10.6004 33.4457 10.8476C33.2117 11.2171 32.983 11.5906 32.7549 11.9641L30.5523 15.5471C28.4748 18.9273 26.3942 22.3064 24.3106 25.6844C24.1189 25.8976 23.9962 26.1638 23.9586 26.448C23.921 26.7322 23.9701 27.0211 24.0997 27.2769C24.2581 27.5004 24.4777 27.6733 24.7321 27.7749C24.9865 27.8765 25.2648 27.9023 25.5335 27.8494C25.8185 27.8494 26.104 27.8494 26.3896 27.8546C26.9132 27.8626 27.4546 27.8698 27.9854 27.8335C28.0797 27.8142 28.1769 27.8143 28.2712 27.8336C28.3655 27.8529 28.4549 27.8911 28.5341 27.9459C28.6405 28.0463 28.6835 28.2295 28.6782 28.558C28.6471 30.4982 28.6564 56.2444 28.6696 58.6791C28.6749 59.6046 29.0953 60.1169 29.8542 60.1202H29.8622C30.0255 60.13 30.1889 60.1021 30.3397 60.0388C30.4906 59.9754 30.6248 59.8782 30.7321 59.7546C30.9528 59.4441 31.0602 59.0672 31.0362 58.687C31.0461 55.8154 31.0461 29.4022 31.0362 26.9345C31.0322 25.8953 30.6184 25.4861 29.56 25.4748C29.0312 25.4695 28.5024 25.4702 27.9391 25.4748H27.2563L27.3627 25.2864C27.4519 25.1284 27.52 25.0068 27.5927 24.8898C28.1961 23.9088 28.8001 22.928 29.4047 21.9474C31.0025 19.3534 32.6551 16.6709 34.2661 14.024C34.3838 13.831 34.5173 13.634 34.6204 13.634C34.7282 13.634 34.873 13.8515 34.9721 14.0147C36.5851 16.6682 38.2404 19.3554 39.8421 21.9547C40.4428 22.93 41.0435 23.9055 41.6442 24.8812C41.7176 25.0002 41.7856 25.1218 41.8756 25.2818L41.9853 25.4762H41.2912C40.7286 25.4762 40.2097 25.4762 39.6901 25.4762C38.6245 25.4867 38.208 25.8926 38.2034 26.9252C38.1921 29.5033 38.1981 55.7341 38.2034 58.6771C38.1985 58.8555 38.2127 59.0339 38.2457 59.2093C38.3 59.4613 38.4366 59.6881 38.6341 59.8538C38.8315 60.0196 39.0785 60.1149 39.3361 60.1248C39.5937 60.1346 39.8473 60.0585 40.0568 59.9082C40.2663 59.758 40.4199 59.5424 40.4933 59.2952C40.5597 58.9997 40.587 58.6968 40.5746 58.3942C40.5792 57.0013 40.601 30.5035 40.564 28.4959C40.549 28.4009 40.553 28.304 40.5757 28.2106C40.5984 28.1172 40.6393 28.0293 40.6962 27.9518C40.7755 27.897 40.8649 27.8586 40.9593 27.839C41.0537 27.8193 41.151 27.8188 41.2456 27.8375C41.7678 27.8646 42.2999 27.8593 42.8136 27.854C43.1322 27.854 43.4515 27.8474 43.7708 27.854C44.0413 27.9033 44.3204 27.8696 44.5714 27.7572C44.8223 27.6449 45.0334 27.4592 45.1769 27.2247C45.2847 26.9733 45.3194 26.6966 45.2771 26.4264C45.2348 26.1561 45.1171 25.9033 44.9376 25.697C44.5231 25.0418 44.1126 24.3689 43.7153 23.7184" fill="#421C67"/>
<path d="M15.6287 22.8497C15.2572 22.2316 14.8308 21.9044 14.3965 21.9044C13.9622 21.9044 13.5371 22.231 13.1643 22.8477C11.9118 24.9266 10.6619 27.0065 9.41475 29.0875L8.01397 31.421C7.85488 31.6854 7.69512 31.9499 7.53471 32.2143C7.15195 32.8482 6.75598 33.5033 6.37719 34.1545C6.22486 34.3544 6.12837 34.5913 6.09759 34.8408C6.06681 35.0903 6.10285 35.3434 6.20201 35.5744C6.35503 35.7822 6.55963 35.9463 6.79558 36.0507C7.03153 36.155 7.29064 36.1959 7.54727 36.1694C7.65766 36.1694 7.76872 36.1747 7.87779 36.178C8.21469 36.1961 8.55243 36.1906 8.88855 36.1614C8.99036 36.1346 9.09667 36.1294 9.20062 36.1461C9.30457 36.1628 9.40387 36.2012 9.4921 36.2586C9.55845 36.3471 9.60594 36.4483 9.63164 36.5558C9.65733 36.6634 9.66069 36.7751 9.6415 36.884C9.59192 38.4633 9.60977 40.0709 9.62629 41.6244L9.63026 42.0026C9.6134 42.167 9.6313 42.3332 9.68279 42.4904C9.73428 42.6475 9.81822 42.792 9.92917 42.9146C10.0401 43.0372 10.1756 43.1351 10.3268 43.202C10.478 43.2689 10.6416 43.3033 10.8069 43.3029H10.8215C10.9709 43.3076 11.1198 43.2826 11.2594 43.2294C11.3991 43.1762 11.5269 43.0958 11.6352 42.9928C11.7561 42.8634 11.85 42.7111 11.9113 42.5449C11.9726 42.3787 12.0001 42.202 11.9922 42.025C12.0048 39.7484 12.0048 37.428 11.9922 35.1282C12.0143 34.9507 11.9959 34.7704 11.9385 34.601C11.881 34.4315 11.786 34.2773 11.6604 34.1498C11.5349 34.0223 11.3822 33.9248 11.2136 33.8647C11.0451 33.8047 10.8652 33.7835 10.6873 33.8028C10.3938 33.7883 10.1023 33.7916 9.76181 33.7949L9.3579 33.7982L14.3952 25.4107L19.3809 33.7202C19.2492 33.7887 19.0994 33.8142 18.9525 33.7929C18.8957 33.7899 18.8388 33.7899 18.7819 33.7929C18.6676 33.8002 18.5499 33.7982 18.4355 33.7968C18.3033 33.7968 18.1711 33.7935 18.0389 33.8035C17.8735 33.7938 17.7079 33.8186 17.5526 33.8764C17.3973 33.9341 17.2558 34.0236 17.137 34.1391C17.0181 34.2545 16.9246 34.3935 16.8624 34.547C16.8002 34.7006 16.7707 34.8654 16.7756 35.031C16.7399 36.2447 16.7399 52.1412 16.7756 53.3205C16.7732 53.4978 16.8084 53.6736 16.8788 53.8363C16.9492 53.999 17.0533 54.1449 17.1842 54.2645C17.3974 54.4414 17.6674 54.5353 17.9444 54.5289C18.0025 54.5289 18.0606 54.5254 18.1182 54.5184C18.809 54.4351 19.1237 53.973 19.1376 53.0191C19.1376 52.8968 19.133 52.2774 19.1244 51.3393C19.0893 47.73 18.9816 36.7452 19.2334 36.3188C19.4794 36.0061 19.9652 36.0649 20.4789 36.1284C20.7015 36.161 20.9262 36.1776 21.1512 36.178C21.4228 36.2072 21.6973 36.1652 21.9478 36.0561C22.1983 35.947 22.4161 35.7747 22.5797 35.5559C22.675 35.3023 22.7027 35.0283 22.6599 34.7607C22.6171 34.4932 22.5054 34.2414 22.3358 34.0302C20.3248 30.6687 18.1308 27.0118 15.628 22.8491" fill="#9057CD"/>
<path d="M62.9314 34.2906C60.6772 30.4955 58.3186 26.5629 55.9202 22.6005C55.8292 22.3915 55.6792 22.2136 55.4887 22.0886C55.2981 21.9635 55.0752 21.8967 54.8473 21.8962C54.6194 21.8958 54.3963 21.9618 54.2053 22.0862C54.0143 22.2106 53.8636 22.3879 53.7718 22.5965C51.347 26.6032 48.9877 30.5358 46.7586 34.2867C46.6301 34.468 46.5524 34.6804 46.5337 34.9018C46.515 35.1233 46.5559 35.3457 46.6522 35.546C46.7815 35.7461 46.9611 35.9087 47.1731 36.0174C47.3851 36.1262 47.622 36.1772 47.86 36.1654C48.3888 36.1813 48.9838 36.1991 49.5721 36.1614C49.648 36.1468 49.7261 36.1479 49.8016 36.1646C49.8771 36.1813 49.9484 36.2133 50.011 36.2586C50.0588 36.3257 50.0922 36.4018 50.1093 36.4823C50.1263 36.5628 50.1266 36.646 50.1102 36.7266C50.0686 37.3996 50.1029 53.1209 50.1056 53.2385C50.1267 54.0563 50.5518 54.5269 51.271 54.5302H51.2783C51.4435 54.5344 51.6078 54.5034 51.7601 54.4393C51.9125 54.3752 52.0494 54.2794 52.162 54.1583C52.2745 54.0372 52.36 53.8936 52.4128 53.737C52.4656 53.5803 52.4845 53.4143 52.4682 53.2498C52.4946 52.126 52.494 36.1879 52.4682 35.109C52.4807 34.9312 52.4543 34.7528 52.3909 34.5862C52.3275 34.4196 52.2286 34.2688 52.101 34.1443C51.9734 34.0198 51.8202 33.9246 51.6521 33.8653C51.484 33.8059 51.305 33.7839 51.1276 33.8008C50.8347 33.7869 50.5445 33.7902 50.2074 33.7935H49.8107L54.848 25.408L59.8793 33.8034C59.7312 33.8034 59.5918 33.8034 59.4582 33.7995C59.0999 33.7948 58.7905 33.7909 58.4792 33.8094C57.7124 33.8543 57.2675 34.2523 57.2595 34.9021C57.2238 37.7704 57.2252 40.1033 57.2642 42.2451C57.2661 42.4425 57.3228 42.6355 57.4278 42.8026C57.5328 42.9697 57.6821 43.1044 57.8591 43.1918C58.053 43.2899 58.2699 43.3331 58.4866 43.3167C58.7032 43.3002 58.9112 43.2248 59.088 43.0986C59.273 42.9539 59.4182 42.7647 59.5101 42.5486C59.602 42.3325 59.6376 42.0966 59.6136 41.8631C59.6136 41.2681 59.6136 40.6732 59.6136 40.0828C59.6136 38.9888 59.6195 37.8577 59.599 36.7452C59.5857 36.6602 59.5895 36.5734 59.6103 36.49C59.6311 36.4065 59.6684 36.3281 59.72 36.2593C59.7886 36.2123 59.8661 36.1798 59.9477 36.1636C60.0293 36.1475 60.1133 36.1481 60.1946 36.1654C60.7402 36.1945 61.287 36.1961 61.8327 36.17C62.0703 36.1823 62.3069 36.132 62.5189 36.0243C62.731 35.9165 62.911 35.755 63.0411 35.5559C63.1364 35.3548 63.1763 35.1319 63.1565 34.9103C63.1367 34.6887 63.0581 34.4763 62.9288 34.2953" fill="#9057CD"/>
</g>
</g>
</g>
</g>
<defs>
<clipPath id="clip0_1_3505">
<rect width="68.75" height="68.75" fill="white" transform="translate(0.129883 0.75)"/>
</clipPath>
<clipPath id="clip1_1_3505">
<rect width="68.75" height="68.75" fill="white" transform="translate(0.129883 0.75)"/>
</clipPath>
<clipPath id="clip2_1_3505">
<rect width="68.75" height="68.75" fill="white" transform="translate(0.129883 0.75)"/>
</clipPath>
</defs>
</svg>
