<svg width="69" height="70" viewBox="0 0 69 70" fill="none" xmlns="http://www.w3.org/2000/svg">
<g clip-path="url(#clip0_1_3469)">
<g clip-path="url(#clip1_1_3469)">
<g clip-path="url(#clip2_1_3469)">
<mask id="mask0_1_3469" style="mask-type:luminance" maskUnits="userSpaceOnUse" x="7" y="7" width="55" height="55">
<path d="M61.8646 7.3606H7.40137V61.8119H61.8646V7.3606Z" fill="white"/>
</mask>
<g mask="url(#mask0_1_3469)">
<path d="M61.8645 34.6199C61.8645 35.4061 61.8325 36.1994 61.7686 36.9997C61.2572 42.8229 58.8847 48.3267 55.0022 52.6967C51.1196 57.0667 45.9334 60.0707 40.211 61.2641C34.4885 62.4575 28.5339 61.777 23.2282 59.3232C17.9226 56.8694 13.5479 52.7728 10.7515 47.6395C8.57168 43.695 7.41955 39.2654 7.40125 34.7587C7.37304 34.4457 7.4411 34.1314 7.59633 33.8581C7.75156 33.5847 7.98655 33.3652 8.26988 33.2291C8.48516 33.1176 8.72355 33.058 8.96597 33.0552C9.29715 33.0608 9.61735 33.1749 9.87757 33.3798C10.0909 33.5485 10.2593 33.7673 10.3678 34.0167C10.4763 34.2662 10.5216 34.5385 10.4996 34.8096C10.4993 38.5692 11.415 42.2721 13.1677 45.5981C16.9515 52.6893 22.7993 56.9862 30.5482 58.3731C31.9229 58.6183 33.3165 58.7419 34.7128 58.7426C40.6891 58.7348 46.4499 56.5094 50.8794 52.4974C55.3088 48.4855 58.0918 42.9724 58.6892 37.026C59.2867 31.0797 57.656 25.1232 54.1132 20.3102C50.5704 15.4973 45.3674 12.1704 39.5121 10.9739C31.6145 9.351 24.4797 11.3269 18.3008 16.8573C18.2188 16.9294 18.1362 17.0021 18.0363 17.084L17.686 17.3895L17.9028 17.5051C18.1079 17.6163 18.3419 17.6624 18.5738 17.6374C18.6088 17.6374 18.6445 17.6334 18.6756 17.6334C19.4402 17.6334 20.2048 17.6334 20.9695 17.6334C22.043 17.6334 23.1181 17.6347 24.1948 17.6374C24.5843 17.6084 24.971 17.7234 25.2814 17.9607C25.5918 18.1979 25.8042 18.5409 25.8785 18.9244C25.9157 19.1449 25.9047 19.3708 25.8463 19.5866C25.7879 19.8024 25.6834 20.0029 25.54 20.1745C25.3876 20.3483 25.1991 20.4866 24.9876 20.5799C24.7761 20.6732 24.5468 20.7192 24.3157 20.7146C22.9777 20.7265 21.6305 20.7245 20.3276 20.7225C19.7802 20.7225 19.2243 20.7225 18.6848 20.7225H17.3978C16.3401 20.7225 15.2824 20.7265 14.2293 20.7225C14.0093 20.7437 13.7872 20.7172 13.5784 20.6449C13.3695 20.5725 13.1787 20.456 13.0189 20.3032C12.8591 20.1505 12.7341 19.9651 12.6524 19.7596C12.5708 19.5542 12.5343 19.3336 12.5456 19.1128C12.5277 15.7295 12.5277 12.3145 12.5456 8.96824C12.5424 8.74684 12.5845 8.52711 12.6691 8.32251C12.7538 8.11791 12.8794 7.93274 13.0381 7.77834C13.1818 7.63836 13.3525 7.52912 13.5398 7.45729C13.7271 7.38546 13.9271 7.35255 14.1275 7.36055C14.3336 7.36929 14.536 7.41867 14.723 7.50586C14.91 7.59305 15.0779 7.71632 15.2171 7.8686C15.3563 8.02088 15.464 8.19917 15.5341 8.39321C15.6042 8.58725 15.6352 8.79323 15.6255 8.99931C15.6294 10.2002 15.6294 11.4005 15.6255 12.6001V15.046L15.9051 14.8173C16.136 14.6256 16.3623 14.4372 16.584 14.2521L16.7228 14.1364C17.2649 13.6809 17.7772 13.2526 18.3127 12.8453C21.2077 10.6604 24.5113 9.07791 28.0282 8.19129C31.5451 7.30468 35.2041 7.13194 38.789 7.6833C42.3738 8.23465 45.8117 9.49892 48.8997 11.4014C51.9877 13.3039 54.6631 15.8059 56.7677 18.7598C60.1024 23.372 61.8864 28.9239 61.8625 34.6153" fill="#9057CD"/>
<path d="M41.2726 37.3732C41.4307 38.588 41.1344 39.8184 40.4406 40.828C39.7469 41.8377 38.7045 42.5554 37.5139 42.8435C37.4279 42.8653 37.342 42.8864 37.2554 42.9023C36.2367 43.0682 36.1759 43.1409 36.1739 44.2046V44.4611C36.1739 44.6118 36.1739 44.7665 36.166 44.9165C36.1565 45.3133 35.9928 45.6907 35.7097 45.9686C35.4265 46.2466 35.0461 46.4033 34.6493 46.4053C34.2525 46.4074 33.8705 46.2547 33.5844 45.9797C33.2983 45.7047 33.1307 45.329 33.1172 44.9324C33.0934 44.4921 33.092 44.0508 33.1132 43.6103C33.1329 43.5279 33.1318 43.442 33.11 43.3602C33.0882 43.2783 33.0464 43.2032 32.9884 43.1415C32.9304 43.0798 32.858 43.0335 32.7776 43.0068C32.6973 42.98 32.6116 42.9737 32.5282 42.9882H32.4951C31.7151 43.0041 30.9185 43.0001 30.1503 42.9962H29.7121C29.4932 43.0219 29.2713 43.0009 29.0612 42.9345C28.851 42.8682 28.6574 42.758 28.4929 42.6113C28.3285 42.4646 28.1971 42.2846 28.1073 42.0834C28.0175 41.8821 27.9715 41.6641 27.9722 41.4437C27.9729 41.2233 28.0203 41.0056 28.1114 40.8049C28.2024 40.6042 28.335 40.4252 28.5004 40.2795C28.6658 40.1338 28.8602 40.0249 29.0707 39.9599C29.2813 39.8949 29.5033 39.8753 29.722 39.9024C30.2753 39.8985 30.8273 39.9024 31.3786 39.9024H33.9508C34.7156 39.9024 35.4785 39.9024 36.2426 39.9024C36.4928 39.9118 36.7423 39.8712 36.9766 39.7831C37.2109 39.695 37.4253 39.5611 37.6072 39.3892C37.7892 39.2173 37.9351 39.0109 38.0365 38.782C38.1378 38.5531 38.1925 38.3064 38.1974 38.0561C38.2024 37.8058 38.1574 37.5571 38.0651 37.3244C37.9728 37.0917 37.8352 36.8797 37.6601 36.7008C37.485 36.5219 37.276 36.3797 37.0454 36.2824C36.8147 36.1852 36.567 36.1349 36.3167 36.1344C35.7065 36.1185 35.0944 36.1205 34.5193 36.1245H34.3494C33.845 36.1245 33.3188 36.1284 32.8065 36.1165C31.6036 36.0844 30.4535 35.6158 29.5706 34.7982C28.6877 33.9807 28.1322 32.8699 28.0078 31.6731C27.8833 30.4762 28.1984 29.275 28.8943 28.2933C29.5901 27.3116 30.6192 26.6165 31.7898 26.3375C31.8076 26.3336 31.8248 26.3296 31.8559 26.3197L31.8988 26.3078C32.0148 26.2844 32.1329 26.274 32.2512 26.2767C32.5229 26.2708 32.8633 26.2628 33.0299 25.9713C33.1397 25.7068 33.1716 25.4164 33.1218 25.1344L33.1178 25.0875C33.1119 24.9896 33.1039 24.8891 33.1059 24.7979C33.1059 24.7177 33.1059 24.6375 33.1059 24.5573C33.0907 24.3199 33.113 24.0817 33.172 23.8513C33.2833 23.5155 33.5062 23.2279 33.8036 23.0365C34.1011 22.845 34.4551 22.7611 34.8068 22.7989C35.16 22.8295 35.4904 22.9859 35.738 23.2396C35.9856 23.4933 36.1339 23.8274 36.156 24.1812C36.184 24.6579 36.188 25.1358 36.1679 25.613C36.1566 25.693 36.1626 25.7745 36.1854 25.8521C36.2082 25.9296 36.2473 26.0014 36.3002 26.0625C36.3627 26.1178 36.4364 26.1589 36.5162 26.1832C36.5961 26.2075 36.6802 26.2144 36.7629 26.2033C37.5667 26.1894 38.3785 26.1934 39.1645 26.1974H39.544C39.7626 26.1698 39.9846 26.1885 40.1955 26.2523C40.4064 26.316 40.6016 26.4234 40.7683 26.5675C40.935 26.7115 41.0696 26.889 41.1634 27.0884C41.2571 27.2879 41.3078 27.5048 41.3123 27.7251C41.3202 27.9217 41.2884 28.1179 41.2189 28.302C41.1494 28.4861 41.0436 28.6543 40.9077 28.7967C40.7228 28.9662 40.506 29.0973 40.27 29.1823C40.0339 29.2674 39.7833 29.3046 39.5327 29.2918C38.8168 29.2918 38.1009 29.2918 37.3849 29.2918H36.3094C35.2473 29.2918 34.1859 29.2918 33.1251 29.2918C32.8662 29.2694 32.6055 29.2999 32.3588 29.3813C32.1121 29.4628 31.8845 29.5936 31.6899 29.7657C31.4953 29.9378 31.3377 30.1477 31.2266 30.3826C31.1156 30.6175 31.0535 30.8725 31.0441 31.1322C31.0359 31.3714 31.0755 31.6098 31.1608 31.8335C31.2461 32.0571 31.3752 32.2614 31.5405 32.4345C31.7473 32.638 31.9924 32.7983 32.2618 32.9061C32.5311 33.014 32.8192 33.0671 33.1092 33.0625C33.6096 33.0684 34.1167 33.0664 34.6072 33.0625H34.789C35.3343 33.0625 35.8996 33.0585 36.4515 33.0704C37.6507 33.1016 38.7999 33.5577 39.694 34.3575C40.5786 35.1287 41.1424 36.2031 41.2746 37.3693" fill="#421C67"/>
</g>
</g>
</g>
</g>
<defs>
<clipPath id="clip0_1_3469">
<rect width="68.75" height="68.75" fill="white" transform="translate(0.129883 0.75)"/>
</clipPath>
<clipPath id="clip1_1_3469">
<rect width="68.75" height="68.75" fill="white" transform="translate(0.129883 0.75)"/>
</clipPath>
<clipPath id="clip2_1_3469">
<rect width="68.75" height="68.75" fill="white" transform="translate(0.129883 0.75)"/>
</clipPath>
</defs>
</svg>
