<svg width="69" height="70" viewBox="0 0 69 70" fill="none" xmlns="http://www.w3.org/2000/svg">
<g clip-path="url(#clip0_1_3487)">
<g clip-path="url(#clip1_1_3487)">
<g clip-path="url(#clip2_1_3487)">
<mask id="mask0_1_3487" style="mask-type:luminance" maskUnits="userSpaceOnUse" x="10" y="10" width="50" height="50">
<path d="M59.2028 10.6659H10.0459V59.7812H59.2028V10.6659Z" fill="white"/>
</mask>
<g mask="url(#mask0_1_3487)">
<path d="M59.1982 35.3935C59.2142 35.1593 59.1828 34.9244 59.1059 34.7027C59.029 34.481 58.9082 34.277 58.7506 34.1031C58.5724 33.9474 58.3652 33.8286 58.141 33.7532C57.9167 33.6779 57.6797 33.6476 57.4437 33.6641H51.4836C49.0919 33.6641 46.6989 33.6641 44.3045 33.6641C43.7537 33.6595 43.2043 33.7187 42.6671 33.8406C40.909 34.2276 39.3561 35.2511 38.3073 36.7141C37.2584 38.1772 36.7877 39.9764 36.9857 41.7657C37.1837 43.5549 38.0364 45.2078 39.3797 46.4061C40.723 47.6045 42.4621 48.2637 44.2622 48.257C46.7623 48.2669 49.162 48.2649 51.397 48.251C51.5197 48.2387 51.6436 48.251 51.7614 48.2872C51.8792 48.3235 51.9886 48.3828 52.0832 48.4619C52.1606 48.5525 52.2191 48.6577 52.2553 48.7712C52.2915 48.8847 52.3047 49.0043 52.2941 49.123C52.2802 50.0941 52.2822 51.0771 52.2842 52.0316V52.4851C52.2842 53.0992 52.2842 53.7272 52.2802 54.3433C52.2895 54.6543 52.2352 54.9639 52.1208 55.2532C52.0063 55.5425 51.834 55.8055 51.6145 56.0259C51.395 56.2464 51.1328 56.4197 50.844 56.5354C50.5552 56.6511 50.2458 56.7066 49.9348 56.6987H45.4581C37.2834 56.7046 28.02 56.7106 19.1592 56.6888C17.5659 56.6824 16.0395 56.0472 14.9119 54.9215C13.7843 53.7958 13.1467 52.2704 13.1376 50.6771C13.1198 44.5293 13.1138 38.1388 13.1198 31.3425C13.1238 28.2025 13.1291 24.9688 13.1357 21.6415C13.1573 20.2191 13.6769 18.8494 14.604 17.7704C15.5311 16.6915 16.807 15.9717 18.2099 15.7363C19.257 15.5963 20.3149 15.5547 21.3698 15.612H21.4822C21.978 15.6239 22.4916 15.6358 22.9934 15.6219C23.2041 15.6319 23.4147 15.5995 23.6126 15.5264C23.8105 15.4534 23.9918 15.3413 24.1455 15.1968C24.2992 15.0523 24.4222 14.8783 24.5073 14.6852C24.5924 14.4922 24.6378 14.284 24.6407 14.073C24.6376 13.8625 24.5918 13.6548 24.5061 13.4626C24.4204 13.2703 24.2965 13.0974 24.142 12.9545C23.9874 12.8115 23.8055 12.7014 23.6071 12.6308C23.4088 12.5603 23.1982 12.5307 22.9881 12.544C21.816 12.5361 20.6506 12.54 19.4184 12.544H19.3926C17.7491 12.5318 16.1319 12.9559 14.706 13.7731C13.28 14.5902 12.0965 15.7711 11.2761 17.1952C10.4686 18.6177 10.0468 20.2265 10.0525 21.8623C10.0481 27.6487 10.0459 33.4359 10.0459 39.2236V50.4781C10.0395 51.0919 10.098 51.7045 10.2204 52.306C10.6279 54.4334 11.7729 56.3489 13.4536 57.7152C15.1344 59.0816 17.2433 59.8113 19.4091 59.7759C22.9021 59.7819 26.45 59.7819 29.8849 59.7799H34.7694C36.2321 59.7799 37.6942 59.7799 39.1556 59.7799H41.2802C44.1227 59.7799 47.0631 59.7799 49.9401 59.7719C51.225 59.7938 52.4739 59.3473 53.4539 58.5159C54.4338 57.6845 55.0778 56.5249 55.2655 55.2536C55.3879 54.2629 55.4242 53.2633 55.3739 52.2663V52.2101C55.3601 51.6462 55.3462 51.0083 55.366 50.3882C55.3669 50.2335 55.3567 50.0788 55.3356 49.9255L55.3297 49.8673C55.2579 49.6271 55.246 49.373 55.295 49.1271C55.344 48.8812 55.4523 48.651 55.6106 48.4566C55.8143 48.3296 56.0413 48.2444 56.2782 48.2058C56.5151 48.1672 56.7574 48.1761 56.9909 48.2319C57.1522 48.2495 57.3145 48.2581 57.4768 48.2576C57.7075 48.2805 57.9405 48.2521 58.159 48.1745C58.3776 48.0969 58.5763 47.9719 58.7409 47.8086C58.9055 47.6453 59.0321 47.4476 59.1115 47.2297C59.1909 47.0118 59.2211 46.7791 59.2001 46.5482C59.2061 43.0208 59.2061 39.3711 59.2001 35.3921M56.1361 44.2503V44.2946C56.1457 44.4165 56.131 44.539 56.0927 44.6551C56.0545 44.7712 55.9935 44.8786 55.9134 44.9709C55.8199 45.053 55.7107 45.1151 55.5923 45.1534C55.474 45.1917 55.349 45.2054 55.2252 45.1936H55.1849C53.9249 45.1758 52.6405 45.1778 51.399 45.1798H51.1081C50.6106 45.1798 50.113 45.1798 49.6155 45.1798H47.3018C46.3349 45.1798 45.3677 45.1784 44.4004 45.1758C43.8077 45.1842 43.2193 45.0743 42.6695 44.8528C42.1197 44.6312 41.6195 44.3024 41.1982 43.8854C40.8138 43.4955 40.5106 43.0331 40.3063 42.525C40.1021 42.017 40.0008 41.4734 40.0083 40.9259C40.0119 40.3595 40.1295 39.7997 40.3541 39.2799C40.5787 38.76 40.9057 38.2906 41.3156 37.8998C41.7254 37.509 42.2098 37.2047 42.7398 37.0051C43.2698 36.8055 43.8345 36.7147 44.4004 36.7381C45.7608 36.7341 47.1206 36.7341 48.4798 36.7381C50.6791 36.7381 52.9525 36.7381 55.1875 36.7281C55.3176 36.7159 55.4487 36.7294 55.5735 36.768C55.6983 36.8065 55.8143 36.8694 55.9147 36.9529C55.998 37.0508 56.0606 37.1647 56.0985 37.2875C56.1365 37.4104 56.1491 37.5396 56.1355 37.6675C56.1097 39.8186 56.1097 42.0305 56.1355 44.249" fill="#421C67"/>
<path d="M55.3437 25.9033V25.7631C55.361 25.0408 55.2321 24.3225 54.9647 23.6513C54.6973 22.9801 54.2969 22.3699 53.7877 21.8574C53.2784 21.3448 52.6708 20.9406 52.0013 20.6689C51.3318 20.3972 50.6143 20.2637 49.8919 20.2764C49.6519 20.2948 49.4128 20.2301 49.2148 20.0931C49.0168 19.9561 48.8719 19.7552 48.8045 19.5241C48.0773 17.6539 47.3198 15.756 46.5893 13.9183L45.8291 12.0145C45.4648 11.089 45.0285 10.6659 44.3483 10.6659C43.9872 10.6809 43.6318 10.7611 43.2992 10.9026L22.9386 18.6713C22.5856 18.8035 22.2326 18.9357 21.881 19.0726L21.5438 19.2008C20.6448 19.5399 19.716 19.8929 18.815 20.2519C18.6173 20.3045 18.432 20.3958 18.2697 20.5204C18.1075 20.645 17.9715 20.8005 17.8697 20.9779C17.7679 21.1554 17.7022 21.3512 17.6764 21.5541C17.6506 21.7571 17.6653 21.9631 17.7196 22.1604C17.836 22.5126 18.0709 22.8136 18.3843 23.0123C18.6976 23.2109 19.0701 23.2948 19.4383 23.2498C21.8503 23.2599 24.2627 23.2679 26.6756 23.2736L42.7234 23.3179C45.0689 23.324 47.4145 23.3313 49.7604 23.3397H49.7802C50.1116 23.3128 50.445 23.3579 50.7573 23.4719C51.0696 23.586 51.3536 23.7662 51.5897 24.0003C51.8258 24.2344 52.0085 24.5169 52.1252 24.8282C52.2419 25.1396 52.2899 25.4725 52.2658 25.8041C52.2658 26.0447 52.2658 26.2854 52.2658 26.5266C52.2618 26.8836 52.2618 27.2227 52.2658 27.5381C52.2594 27.9455 52.4137 28.339 52.6953 28.6334C52.9769 28.9279 53.3631 29.0996 53.7704 29.1114H53.8028C54.2122 29.1051 54.6027 28.9378 54.8896 28.6457C55.1766 28.3535 55.3368 27.9601 55.3358 27.5506C55.3496 26.9828 55.3477 26.403 55.3437 25.9053M27.7115 20.1626L29.5995 19.4242L38.5356 16.0152C39.4364 15.6719 40.3372 15.3294 41.238 14.9879L42.6223 14.459C42.6415 14.453 42.6602 14.4457 42.6785 14.4372C42.7676 14.3876 42.866 14.3572 42.9676 14.3478C43.0691 14.3385 43.1715 14.3505 43.2682 14.383C43.3551 14.4227 43.4326 14.4804 43.4955 14.5523C43.5585 14.6242 43.6053 14.7087 43.6331 14.8001C43.9702 15.6727 44.3093 16.5295 44.6584 17.4107L45.7656 20.2096L27.7115 20.1626Z" fill="#9057CD"/>
</g>
</g>
</g>
</g>
<defs>
<clipPath id="clip0_1_3487">
<rect width="68.75" height="68.75" fill="white" transform="translate(0.129883 0.75)"/>
</clipPath>
<clipPath id="clip1_1_3487">
<rect width="68.75" height="68.75" fill="white" transform="translate(0.129883 0.75)"/>
</clipPath>
<clipPath id="clip2_1_3487">
<rect width="68.75" height="68.75" fill="white" transform="translate(0.129883 0.75)"/>
</clipPath>
</defs>
</svg>
