<svg width="69" height="70" viewBox="0 0 69 70" fill="none" xmlns="http://www.w3.org/2000/svg">
<g clip-path="url(#clip0_1_3423)">
<g clip-path="url(#clip1_1_3423)">
<g clip-path="url(#clip2_1_3423)">
<mask id="mask0_1_3423" style="mask-type:luminance" maskUnits="userSpaceOnUse" x="5" y="9" width="59" height="51">
<path d="M63.5856 9.84485H5.41846V59.4262H63.5856V9.84485Z" fill="white"/>
</mask>
<g mask="url(#mask0_1_3423)">
<path d="M38.7955 59.4242C32.6633 59.4291 26.7479 57.1564 22.1964 53.047C21.9173 52.7857 21.752 52.4254 21.7359 52.0435C21.7198 51.6616 21.8542 51.2886 22.1102 51.0048C22.3663 50.7209 22.7234 50.5489 23.105 50.5257C23.4865 50.5025 23.8619 50.63 24.1505 50.8807C26.7866 53.2577 29.9615 54.9574 33.4013 55.8333C36.841 56.7091 40.4423 56.7347 43.8941 55.9078C47.346 55.0809 50.5447 53.4264 53.2143 51.0871C55.8839 48.7478 57.9441 45.794 59.2171 42.4806C60.4901 39.1672 60.9377 35.5938 60.5211 32.0689C60.1046 28.5439 58.8364 25.1732 56.8262 22.2478C54.816 19.3224 52.124 16.9302 48.9827 15.2775C45.8414 13.6249 42.345 12.7616 38.7955 12.7621C33.976 12.7461 29.2888 14.3375 25.4752 17.2844C21.7378 20.1648 19.0242 24.1693 17.7342 28.7081C17.6824 28.8926 17.5948 29.065 17.4764 29.2156C17.358 29.3661 17.2111 29.4919 17.0441 29.5857C16.877 29.6795 16.6932 29.7395 16.503 29.7622C16.3128 29.785 16.1199 29.77 15.9355 29.7182C15.7511 29.6665 15.5786 29.5788 15.4281 29.4604C15.2775 29.342 15.1517 29.1951 15.0579 29.0281C14.9641 28.861 14.9041 28.6772 14.8814 28.487C14.8587 28.2967 14.8736 28.1039 14.9254 27.9195C16.3868 22.7755 19.4616 18.2368 23.697 14.972C28.0196 11.6314 33.3325 9.82718 38.7955 9.84486C45.3702 9.84486 51.6755 12.4566 56.3245 17.1056C60.9734 21.7545 63.5852 28.0599 63.5852 34.6345C63.5852 41.2091 60.9734 47.5145 56.3245 52.1635C51.6755 56.8124 45.3702 59.4242 38.7955 59.4242Z" fill="#9057CD"/>
<path d="M49.8549 44.005C49.6139 44.0049 49.3768 43.9449 49.1647 43.8305L36.7554 37.1498V24.1376C36.7554 23.7507 36.909 23.3797 37.1826 23.1062C37.4561 22.8326 37.8271 22.679 38.214 22.679C38.6008 22.679 38.9718 22.8326 39.2454 23.1062C39.5189 23.3797 39.6726 23.7507 39.6726 24.1376V35.4113L50.5477 41.2656C50.8337 41.4197 51.0602 41.6649 51.1911 41.9622C51.322 42.2596 51.3499 42.5922 51.2703 42.9072C51.1907 43.2223 51.0083 43.5017 50.7519 43.7013C50.4955 43.9009 50.1798 44.0092 49.8549 44.009" fill="#421C67"/>
<path d="M23.9501 36.0941H6.87761C6.49613 36.086 6.13302 35.9288 5.8661 35.6561C5.59919 35.3834 5.44971 35.0171 5.44971 34.6355C5.44971 34.2539 5.59919 33.8876 5.8661 33.6149C6.13302 33.3422 6.49613 33.185 6.87761 33.1769H23.9501C24.3316 33.185 24.6947 33.3422 24.9616 33.6149C25.2285 33.8876 25.378 34.2539 25.378 34.6355C25.378 35.0171 25.2285 35.3834 24.9616 35.6561C24.6947 35.9288 24.3316 36.086 23.9501 36.0941Z" fill="#421C67"/>
<path d="M55.8472 36.0948C55.7516 36.0947 55.6562 36.0854 55.5623 36.067C55.4695 36.0473 55.3786 36.0194 55.2906 35.9837C55.2027 35.9476 55.1184 35.9033 55.0388 35.8515C54.9588 35.7983 54.8842 35.7374 54.816 35.6697C54.6128 35.4657 54.4748 35.206 54.4193 34.9234C54.3804 34.7352 54.3804 34.5411 54.4193 34.3529C54.4384 34.2595 54.4661 34.1682 54.502 34.0799C54.576 33.9035 54.6831 33.7429 54.8173 33.6066C54.8852 33.5385 54.9598 33.4776 55.0401 33.4248C55.1197 33.373 55.2041 33.3287 55.2919 33.2926C55.3799 33.2568 55.4708 33.2289 55.5636 33.2093C55.752 33.1722 55.9458 33.1722 56.1341 33.2093C56.2274 33.2289 56.3188 33.2568 56.4071 33.2926C56.4948 33.3293 56.579 33.3735 56.659 33.4248C56.8187 33.5313 56.9557 33.6684 57.0623 33.828C57.1136 33.908 57.1578 33.9923 57.1945 34.0799C57.2307 34.1681 57.2586 34.2595 57.2778 34.3529C57.3151 34.5412 57.3151 34.7351 57.2778 34.9234C57.2586 35.0168 57.2307 35.1082 57.1945 35.1964C57.1578 35.2841 57.1136 35.3683 57.0623 35.4483C57.0091 35.5279 56.9482 35.6021 56.8805 35.6697C56.8124 35.7371 56.7383 35.7979 56.659 35.8515C56.4996 35.957 56.3214 36.0308 56.1341 36.069C56.0403 36.0875 55.9449 36.0967 55.8492 36.0968" fill="#421C67"/>
<path d="M39.2297 52.9465C39.134 52.9461 39.0386 52.9364 38.9448 52.9174C38.5664 52.841 38.2336 52.6178 38.0193 52.2967C37.9665 52.2176 37.9222 52.1332 37.8871 52.0448C37.8502 51.9573 37.8223 51.8663 37.8038 51.7731C37.7666 51.5848 37.7666 51.391 37.8038 51.2026C37.8223 51.109 37.8502 51.0176 37.8871 50.9296C37.9598 50.7525 38.067 50.5916 38.2025 50.4563C38.4071 50.2539 38.6666 50.116 38.9488 50.0597C39.1367 50.0224 39.3301 50.0224 39.518 50.0597C39.7053 50.0978 39.8835 50.1716 40.0428 50.2771C40.1227 50.33 40.1969 50.3909 40.2643 50.4589C40.332 50.5266 40.3929 50.6008 40.4461 50.6804C40.4984 50.7598 40.5426 50.8441 40.5783 50.9323C40.6152 51.0202 40.6431 51.1117 40.6616 51.2053C40.6987 51.3936 40.6987 51.5874 40.6616 51.7758C40.6431 51.8689 40.6152 51.9599 40.5783 52.0474C40.5432 52.1358 40.4989 52.2202 40.4461 52.2993C40.2309 52.6196 39.8986 52.8425 39.5206 52.92C39.4272 52.939 39.3323 52.9488 39.237 52.9491" fill="#421C67"/>
<path d="M25.5203 47.1603H17.6233C17.4291 47.1644 17.2361 47.1297 17.0555 47.0583C16.8749 46.9868 16.7104 46.88 16.5717 46.7442C16.4329 46.6083 16.3226 46.4461 16.2473 46.2671C16.1721 46.0881 16.1333 45.8958 16.1333 45.7016C16.1333 45.5074 16.1721 45.3152 16.2473 45.1361C16.3226 44.9571 16.4329 44.7949 16.5717 44.6591C16.7104 44.5232 16.8749 44.4164 17.0555 44.345C17.2361 44.2735 17.4291 44.2389 17.6233 44.243H25.5203C25.7145 44.2389 25.9075 44.2735 26.0881 44.345C26.2687 44.4164 26.4332 44.5232 26.572 44.6591C26.7107 44.7949 26.821 44.9571 26.8963 45.1361C26.9715 45.3152 27.0103 45.5074 27.0103 45.7016C27.0103 45.8958 26.9715 46.0881 26.8963 46.2671C26.821 46.4461 26.7107 46.6083 26.572 46.7442C26.4332 46.88 26.2687 46.9868 26.0881 47.0583C25.9075 47.1297 25.7145 47.1644 25.5203 47.1603Z" fill="#421C67"/>
<path d="M18.2491 25.032H8.57448C8.38032 25.0362 8.18729 25.0015 8.0067 24.93C7.82611 24.8586 7.66161 24.7518 7.52283 24.616C7.38405 24.4801 7.27379 24.3179 7.19852 24.1389C7.12325 23.9599 7.08447 23.7676 7.08447 23.5734C7.08447 23.3792 7.12325 23.1869 7.19852 23.0079C7.27379 22.8289 7.38405 22.6667 7.52283 22.5308C7.66161 22.395 7.82611 22.2882 8.0067 22.2168C8.18729 22.1453 8.38032 22.1106 8.57448 22.1148H18.2491C18.4432 22.1106 18.6363 22.1453 18.8168 22.2168C18.9974 22.2882 19.1619 22.395 19.3007 22.5308C19.4395 22.6667 19.5497 22.8289 19.625 23.0079C19.7003 23.1869 19.7391 23.3792 19.7391 23.5734C19.7391 23.7676 19.7003 23.9599 19.625 24.1389C19.5497 24.3179 19.4395 24.4801 19.3007 24.616C19.1619 24.7518 18.9974 24.8586 18.8168 24.93C18.6363 25.0015 18.4432 25.0362 18.2491 25.032Z" fill="#9057CD"/>
<path d="M11.9292 47.1603H9.907C9.71284 47.1644 9.5198 47.1297 9.33922 47.0583C9.15863 46.9868 8.99413 46.88 8.85535 46.7442C8.71657 46.6083 8.60631 46.4461 8.53104 46.2671C8.45577 46.0881 8.41699 45.8958 8.41699 45.7016C8.41699 45.5074 8.45577 45.3152 8.53104 45.1361C8.60631 44.9571 8.71657 44.7949 8.85535 44.6591C8.99413 44.5232 9.15863 44.4164 9.33922 44.345C9.5198 44.2735 9.71284 44.2389 9.907 44.243H11.9292C12.1233 44.2389 12.3164 44.2735 12.497 44.345C12.6775 44.4164 12.842 44.5232 12.9808 44.6591C13.1196 44.7949 13.2299 44.9571 13.3051 45.1361C13.3804 45.3152 13.4192 45.5074 13.4192 45.7016C13.4192 45.8958 13.3804 46.0881 13.3051 46.2671C13.2299 46.4461 13.1196 46.6083 12.9808 46.7442C12.842 46.88 12.6775 46.9868 12.497 47.0583C12.3164 47.1297 12.1233 47.1644 11.9292 47.1603Z" fill="#421C67"/>
</g>
</g>
</g>
</g>
<defs>
<clipPath id="clip0_1_3423">
<rect width="68.75" height="68.75" fill="white" transform="translate(0.129883 0.590027)"/>
</clipPath>
<clipPath id="clip1_1_3423">
<rect width="68.75" height="68.75" fill="white" transform="translate(0.129883 0.590027)"/>
</clipPath>
<clipPath id="clip2_1_3423">
<rect width="68.75" height="68.75" fill="white" transform="translate(0.129883 0.590027)"/>
</clipPath>
</defs>
</svg>
