<svg width="69" height="70" viewBox="0 0 69 70" fill="none" xmlns="http://www.w3.org/2000/svg">
<g clip-path="url(#clip0_1_3524)">
<g clip-path="url(#clip1_1_3524)">
<g clip-path="url(#clip2_1_3524)">
<mask id="mask0_1_3524" style="mask-type:luminance" maskUnits="userSpaceOnUse" x="0" y="13" width="69" height="50">
<path d="M68.6854 13.9712H0.98584V62.2033H68.6854V13.9712Z" fill="white"/>
</mask>
<g mask="url(#mask0_1_3524)">
<path d="M68.6781 37.6906V37.5082C68.6781 36.7579 68.6827 35.9818 68.6582 35.2229C68.602 33.5748 68.0292 31.9861 67.0209 30.6813C66.0127 29.3764 64.6198 28.4214 63.0392 27.9512C62.794 27.8812 62.5382 27.819 62.2757 27.7642H61.5849L62.0642 27.2161C62.7603 26.4653 63.3017 25.5846 63.6574 24.6244C64.0131 23.6643 64.1762 22.6435 64.1373 21.6203C64.1211 20.5389 63.8745 19.4733 63.414 18.4947C62.9534 17.5161 62.2896 16.6469 61.4666 15.9451C60.3857 14.9988 59.0651 14.3684 57.6496 14.1232C56.2341 13.878 54.7784 14.0274 53.4422 14.555C52.106 15.0826 50.9409 15.9681 50.0748 17.1142C49.2087 18.2604 48.6751 19.623 48.5323 21.0524C48.4174 22.1653 48.5386 23.2898 48.8879 24.3526C49.2373 25.4154 49.807 26.3925 50.5598 27.2201L50.9095 27.6293L50.3892 27.7569C49.2187 27.9833 48.1127 28.4655 47.1501 29.1689C46.4612 29.6792 46.1836 29.8928 46.1724 30.1056V30.1169C46.1724 30.3277 46.45 30.5895 47.0212 31.1045L47.0542 31.1329C47.0674 31.1441 47.0807 31.1574 47.0959 31.1679C47.1439 31.209 47.1892 31.2531 47.2314 31.3002C47.3451 31.4429 47.4416 31.511 47.5289 31.5157C47.6611 31.5269 47.8065 31.3993 47.905 31.3048C48.8812 30.3235 50.2063 29.769 51.5904 29.7625C54.1685 29.7361 57.5697 29.7116 61.0561 29.7625C62.3484 29.8055 63.5874 30.2879 64.5684 31.1302C65.5494 31.9725 66.2137 33.1243 66.4516 34.3952C66.5689 35.1252 66.6086 35.8655 66.57 36.6038C66.5653 36.8392 66.5614 37.0765 66.5634 37.3145C66.5719 38.5044 66.5746 39.1575 66.2705 39.5621C65.9684 39.9587 65.4151 40.1101 64.1928 40.4175C60.39 41.3073 56.4626 41.5371 52.582 41.097L52.4418 41.0858C52.9847 41.7843 53.4566 42.5353 53.8506 43.3274L54.384 43.3519C55.0451 43.385 55.718 43.4002 56.3963 43.4002C58.6911 43.4042 60.9818 43.2051 63.2415 42.8052C64.9142 42.5683 66.5209 41.9927 67.9635 41.1136C68.197 40.9778 68.3878 40.7793 68.5142 40.5406C68.6407 40.3019 68.6977 40.0325 68.6787 39.763C68.6675 39.1119 68.6675 38.4627 68.6721 37.6886M56.3256 27.6253H56.3123C55.5577 27.6256 54.8105 27.4754 54.1146 27.1834C53.4187 26.8915 52.788 26.4637 52.2594 25.9251C51.33 24.9844 50.7551 23.7508 50.6325 22.4341C50.51 21.1174 50.8474 19.7989 51.5872 18.7028C52.3271 17.6067 53.4238 16.8008 54.6908 16.4221C55.9578 16.0434 57.3169 16.1152 58.5369 16.6254C59.7569 17.1357 60.7625 18.0527 61.3827 19.2207C62.0028 20.3887 62.1993 21.7354 61.9386 23.0318C61.6778 24.3283 60.9761 25.4944 59.9527 26.3319C58.9292 27.1693 57.6473 27.6264 56.3249 27.6253" fill="#9057CD"/>
<path d="M54.0731 43.8146L53.8562 43.326C53.4623 42.5339 52.9904 41.783 52.4475 41.0844L52.3603 40.9747C50.9669 39.2171 49.1461 37.8463 47.0718 36.9931L46.925 36.9336L46.8814 36.7816C45.9824 33.7724 43.9814 31.9334 40.762 31.1573L40.2332 31.0297L40.5941 30.6185C41.9471 29.1548 42.6896 27.2294 42.6698 25.2362C42.678 24.1786 42.4676 23.1308 42.0517 22.1584C41.6358 21.186 41.0234 20.31 40.253 19.5855C38.9202 18.3092 37.1792 17.545 35.3375 17.4279C33.4959 17.3108 31.6721 17.8483 30.1884 18.9456C28.6589 20.0608 27.5969 21.7033 27.2077 23.5558C26.9287 24.8024 26.9544 26.0979 27.2826 27.3324C27.6108 28.567 28.2318 29.7042 29.093 30.6476L29.4559 31.0786L28.9046 31.1844C27.3038 31.4762 25.8351 32.2634 24.7057 33.4348C23.5763 34.6062 22.8433 36.1026 22.61 37.713C22.4715 38.8409 22.4297 39.9785 22.4851 41.1135C22.4983 41.7494 22.5135 42.4706 22.4851 43.1628C22.4624 43.4441 22.522 43.726 22.6568 43.974C22.7915 44.2221 22.9956 44.4255 23.244 44.5596C24.4837 45.3156 25.8538 45.8333 27.2837 46.086C27.8985 46.2182 28.5106 46.3279 29.1009 46.4165L29.4354 46.4648L29.3766 46.8012C29.2403 47.5665 29.1715 48.3423 29.171 49.1196C29.1698 51.2565 29.6915 53.3614 30.6906 55.2504C31.6898 57.1394 33.136 58.7552 34.903 59.9569L34.9731 60.0032C37.1012 61.4403 39.6108 62.2073 42.1786 62.2052C44.3515 62.1925 46.487 61.6391 48.3925 60.5948C50.2979 59.5506 51.9135 58.0484 53.0933 56.2238C54.2732 54.3991 54.9803 52.3095 55.1507 50.1433C55.3212 47.9771 54.9497 45.8026 54.0698 43.8159M29.1161 25.1899C29.1355 23.6826 29.7459 22.2432 30.816 21.1814C31.886 20.1196 33.3302 19.5204 34.8376 19.5128H34.872C36.3981 19.5325 37.8544 20.1554 38.9227 21.2454C39.991 22.3354 40.5846 23.8039 40.5736 25.3301C40.5635 26.8481 39.9528 28.3003 38.8752 29.3694C37.7975 30.4386 36.3404 31.0376 34.8224 31.0357H34.7768C34.0265 31.0306 33.2849 30.8756 32.5953 30.5799C31.9058 30.2842 31.2823 29.8536 30.7615 29.3136C30.2288 28.769 29.8091 28.1243 29.5265 27.4169C29.2439 26.7094 29.104 25.953 29.1148 25.1913M30.0403 44.4095L29.7891 44.3765C29.0566 44.2753 28.2978 44.1411 27.5323 43.9759C26.6965 43.8035 25.8829 43.5374 25.1068 43.1826L25.0196 43.1429C24.8272 43.0596 24.5753 42.9492 24.5866 42.5817C24.613 42.0317 24.5998 41.4711 24.5866 40.9291V40.8563C24.5281 39.8408 24.5724 38.8221 24.7188 37.8155C24.952 36.5327 25.62 35.3694 26.6102 34.5214C27.6005 33.6733 28.8526 33.1922 30.156 33.159C30.6921 33.1477 31.2798 33.1411 31.958 33.1411C32.4499 33.1411 32.9397 33.1411 33.4236 33.1477C33.883 33.1477 34.3491 33.1524 34.8118 33.1524L35.1377 33.1477H35.1463C35.5158 33.1477 35.8854 33.1477 36.2549 33.1477C37.2392 33.1477 38.2539 33.1431 39.2687 33.1524C40.2095 33.1387 41.1394 33.3557 41.9771 33.7844C42.8147 34.2131 43.5346 34.8404 44.0739 35.6115L44.4871 36.2164L43.7599 36.1265C40.92 35.7777 38.0445 36.3773 35.5807 37.8321C33.1169 39.2868 31.203 41.5151 30.1368 44.1702L30.0403 44.4095ZM42.1786 59.6753C40.3624 59.6747 38.5778 59.1994 37.0019 58.2964C35.3874 57.3681 34.0462 56.0307 33.1133 54.4189C32.1805 52.8071 31.6889 50.9779 31.6883 49.1156C31.6872 48.4031 31.7598 47.6924 31.9051 46.9949C32.1842 45.5923 32.7475 44.2616 33.5603 43.0849C34.3732 41.9083 35.4184 40.9105 36.6316 40.1532C37.8448 39.3959 39.2002 38.895 40.6143 38.6814C42.0284 38.4679 43.4713 38.5462 44.854 38.9115C45.86 39.177 46.8201 39.5931 47.7018 40.1457C48.3553 40.5537 48.9624 41.0316 49.5124 41.5709C50.0047 42.056 50.4492 42.5873 50.8398 43.1575C51.9195 44.7403 52.5483 46.5868 52.6591 48.4996C52.7699 50.4123 52.3585 52.3192 51.4688 54.016C50.5792 55.7129 49.2448 57.1358 47.6086 58.1326C45.9724 59.1294 44.0959 59.6624 42.18 59.6747" fill="#421C67"/>
<path d="M23.3579 29.8603C23.2594 29.7836 23.1655 29.6997 23.0716 29.6164L23.0346 29.5813C22.9474 29.502 22.8594 29.4253 22.7702 29.3506C21.7631 28.5414 20.5716 27.9937 19.3016 27.7562L18.7569 27.6398L19.1225 27.2174C19.8404 26.441 20.3933 25.527 20.7478 24.5307C21.1023 23.5345 21.251 22.4766 21.185 21.4213C21.0793 19.4223 20.213 17.5396 18.7636 16.159C17.3141 14.7784 15.3915 14.0046 13.3898 13.9963C11.4015 13.9901 9.48562 14.7419 8.03213 16.0986C6.57864 17.4553 5.69682 19.315 5.56617 21.299C5.43165 23.4718 6.16298 25.6094 7.60024 27.2445L7.9592 27.6735L7.4125 27.7793C5.81562 28.0725 4.35113 28.8598 3.22566 30.03C2.10019 31.2002 1.37056 32.6942 1.13973 34.3013C0.984457 35.5908 0.940224 36.8913 1.00752 38.1883C1.02272 38.7932 1.04057 39.4595 1.02735 40.1054C1.03572 40.2951 1.09294 40.4794 1.19346 40.6405C1.29399 40.8016 1.43442 40.934 1.60115 41.0249C2.40592 41.5879 3.30309 42.0057 4.25199 42.2591C7.09433 43.0468 10.0333 43.4311 12.9826 43.4008C14.9456 43.3932 16.9064 43.2691 18.8548 43.0292C19.5938 42.9433 19.931 42.8865 20.0685 42.6987C20.206 42.511 20.1471 42.1507 20.0023 41.3528L19.9891 41.2827C19.9039 40.8273 19.7987 40.7479 19.3572 40.82C16.1844 41.3167 12.9626 41.4201 9.76455 41.128C7.70951 41.009 5.68502 40.5744 3.76214 39.8396C3.5541 39.7885 3.37198 39.663 3.25018 39.4868C3.12839 39.3105 3.07535 39.0958 3.10109 38.8831C3.12951 38.2538 3.12488 37.6119 3.12092 36.9938V36.7102C3.12092 36.2832 3.11629 35.8389 3.12555 35.4033C3.13943 33.9119 3.73688 32.4852 4.7899 31.429C5.84292 30.3728 7.26773 29.771 8.75908 29.7526C11.6016 29.7215 14.4475 29.7347 17.2008 29.7479H18.0119C19.0923 29.775 20.1444 30.099 21.0528 30.6847C21.2086 30.7904 21.3486 30.9177 21.4686 31.0628L21.4838 31.0806C21.7528 31.3774 21.9346 31.5513 22.1971 31.472C22.4736 31.3537 22.7158 31.1675 22.9011 30.9306L22.9408 30.8889C23.0685 30.7496 23.2059 30.6195 23.3519 30.4996C23.5621 30.3435 23.5926 30.2312 23.5926 30.1763C23.5926 30.0864 23.5185 29.9826 23.3605 29.8577M13.3786 27.6226H13.3673C12.6125 27.6229 11.8652 27.4729 11.1691 27.1813C10.4729 26.8897 9.8417 26.4625 9.31238 25.9244C8.38248 24.9841 7.807 23.7507 7.68384 22.4341C7.56067 21.1174 7.89742 19.7987 8.63681 18.7022C9.3762 17.6058 10.4726 16.7994 11.7395 16.4201C13.0063 16.0408 14.3655 16.1121 15.5857 16.6218C16.806 17.1316 17.812 18.0482 18.4326 19.216C19.0533 20.3837 19.2502 21.7304 18.99 23.027C18.7298 24.3236 18.0285 25.49 17.0053 26.3278C15.9821 27.1657 14.701 27.6232 13.3786 27.6226Z" fill="#9057CD"/>
<path d="M49.0974 46.4165C49.0416 46.4846 48.9818 46.5493 48.9183 46.6102L48.8945 46.6347C47.2716 48.2648 46.0645 49.4111 44.8858 50.5256C43.7244 51.6256 42.5239 52.7627 40.9195 54.377C40.8141 54.5157 40.6773 54.6274 40.5203 54.703C40.3633 54.7786 40.1906 54.8159 40.0164 54.8119C39.8423 54.8078 39.6715 54.7625 39.5182 54.6796C39.365 54.5968 39.2335 54.4788 39.1346 54.3353C39.1346 54.3353 36.1645 51.0961 35.3884 50.244C35.276 50.1371 35.187 50.008 35.1271 49.8648C35.0672 49.7216 35.0378 49.5676 35.0407 49.4124C35.0386 49.2132 35.0945 49.0176 35.2017 48.8496C35.3089 48.6816 35.4627 48.5485 35.6443 48.4665C35.7905 48.3941 35.9511 48.3557 36.1143 48.3541C36.3603 48.358 36.5975 48.4464 36.7859 48.6046C36.854 48.6607 36.917 48.7226 36.9743 48.7897L37.558 49.4256C38.3213 50.2573 39.084 51.0908 39.8459 51.9264L40.0753 52.1816L40.3179 51.9377C41.6982 50.5607 42.7328 49.5843 43.7343 48.6383C44.7973 47.6375 45.8953 46.6016 47.4018 45.0884C47.5088 44.9637 47.6403 44.8622 47.7881 44.7903C47.936 44.7184 48.097 44.6777 48.2612 44.6707C48.3244 44.6711 48.3875 44.6771 48.4496 44.6885C48.6341 44.7194 48.8072 44.7981 48.9518 44.9167C49.0964 45.0353 49.2074 45.1897 49.2738 45.3645C49.3402 45.5393 49.3596 45.7285 49.3302 45.9132C49.3007 46.0979 49.2235 46.2716 49.106 46.4172" fill="#421C67"/>
</g>
</g>
</g>
</g>
<defs>
<clipPath id="clip0_1_3524">
<rect width="68.75" height="68.75" fill="white" transform="translate(0.129883 0.75)"/>
</clipPath>
<clipPath id="clip1_1_3524">
<rect width="68.75" height="68.75" fill="white" transform="translate(0.129883 0.75)"/>
</clipPath>
<clipPath id="clip2_1_3524">
<rect width="68.75" height="68.75" fill="white" transform="translate(0.129883 0.75)"/>
</clipPath>
</defs>
</svg>
