<svg width="69" height="70" viewBox="0 0 69 70" fill="none" xmlns="http://www.w3.org/2000/svg">
<g clip-path="url(#clip0_1_3404)">
<g clip-path="url(#clip1_1_3404)">
<g clip-path="url(#clip2_1_3404)">
<mask id="mask0_1_3404" style="mask-type:luminance" maskUnits="userSpaceOnUse" x="6" y="6" width="57" height="58">
<path d="M62.8433 6.53955H6.07959V63.3674H62.8433V6.53955Z" fill="white"/>
</mask>
<g mask="url(#mask0_1_3404)">
<path d="M62.84 34.1903H62.7917L62.7812 34.1156C62.5747 32.976 62.0962 31.9031 61.3863 30.9881L61.3705 30.967C61.2511 30.7962 61.1229 30.6318 60.9864 30.4745C60.7306 30.1882 60.478 29.9007 60.2255 29.6151L60.1772 29.5602C59.5592 28.8536 58.9179 28.1271 58.2569 27.429C57.1584 26.2624 56.5414 24.7238 56.5295 23.1215C56.5137 22.7787 56.4993 22.4345 56.4866 22.089C56.4628 20.8594 56.3662 19.6323 56.197 18.4141C56.0625 17.0771 55.4712 15.8274 54.5228 14.8754C53.5745 13.9235 52.327 13.3275 50.9905 13.1878C49.6601 12.9825 48.3154 12.8843 46.9693 12.8943H46.771C45.709 12.9009 44.6577 12.6822 43.6864 12.2528C42.7151 11.8233 41.8459 11.1928 41.1361 10.4028C40.2207 9.43385 39.2082 8.56152 38.1144 7.79953C37.061 7.01554 35.7913 6.57555 34.4786 6.53955C33.1884 6.57303 31.9387 6.9969 30.8944 7.75524C30.5765 7.96137 30.2731 8.18885 29.9861 8.43613C29.7997 8.59941 29.6146 8.76335 29.4262 8.92663L29.3872 8.96233C28.6441 9.61281 27.8766 10.2844 27.1515 10.9865C25.9201 12.1769 24.2777 12.8475 22.565 12.8593L21.9271 12.8824C20.6001 12.9004 19.2754 13.0007 17.9608 13.1825C15.0872 13.6393 13.3995 15.2384 12.7986 18.0691C12.522 19.62 12.3958 21.194 12.4218 22.7692C12.42 23.7476 12.2194 24.7154 11.832 25.6139C11.4446 26.5123 10.8785 27.3226 10.1682 27.9955C9.13242 28.9992 8.1876 30.0926 7.34485 31.2631C6.72556 32.106 6.31237 33.0822 6.13842 34.1136L6.12785 34.1903H6.07959V35.0021L6.08488 35.7127H6.13115L6.14371 35.7894C6.35031 36.9276 6.82706 37.9997 7.53392 38.9155L7.56234 38.9512C7.67076 39.1006 7.79503 39.2712 7.93584 39.4292C8.18969 39.7154 8.44221 40.0016 8.69473 40.2885L8.7886 40.395C9.39479 41.0811 10.0202 41.7918 10.6653 42.4707C11.7636 43.6372 12.3799 45.176 12.3907 46.7781C12.4086 47.1225 12.4224 47.4656 12.435 47.8127C12.4576 49.0417 12.5543 50.2682 12.7245 51.4855C12.8582 52.8236 13.4496 54.0745 14.3987 55.0271C15.3479 55.9796 16.5968 56.5754 17.9343 56.7138C19.2642 56.9197 20.6085 57.0179 21.9542 57.0073H22.1525C23.2145 57.0008 24.2658 57.2197 25.2369 57.6496C26.208 58.0794 27.0769 58.7104 27.7861 59.5008C28.7028 60.4702 29.717 61.3425 30.8124 62.1041C31.865 62.8902 33.135 63.3315 34.4482 63.3674C35.7377 63.3324 36.9865 62.9082 38.0305 62.1504C38.348 61.9427 38.6519 61.7148 38.9401 61.4682C39.1252 61.3049 39.3136 61.1409 39.5 60.9777L39.5496 60.9334C40.2873 60.2835 41.0495 59.6179 41.7767 58.9178C43.0071 57.7279 44.6482 57.057 46.3598 57.0444L47.0295 57.0212C48.3452 57.0025 49.6586 56.9028 50.9621 56.7224C53.837 56.2637 55.5234 54.6646 56.1223 51.8306C56.402 50.2776 56.5288 48.7009 56.5011 47.1232C56.5031 46.1456 56.7037 45.1786 57.0908 44.2809C57.4778 43.3832 58.0432 42.5734 58.7527 41.9008C59.7907 40.8994 60.737 39.8069 61.58 38.6365C62.2005 37.7931 62.6138 36.8155 62.7864 35.7828L62.797 35.7061H62.8433L62.84 34.1903ZM59.1625 37.0745C58.431 38.089 57.6056 39.0325 56.6974 39.8926C55.6847 40.8701 54.8863 42.0475 54.3529 43.3501C53.8195 44.6527 53.5628 46.0519 53.5991 47.459C53.6029 48.6247 53.5252 49.7893 53.3664 50.9441C53.1019 52.7951 52.2769 53.6254 50.4114 53.899C49.3773 54.0312 48.3369 54.1088 47.2946 54.1317C46.7862 54.1529 46.2871 54.1727 45.7966 54.2045C43.6753 54.3007 41.6549 55.1377 40.087 56.5697C39.7763 56.852 39.465 57.1422 39.1616 57.4225L39.0743 57.5045C38.3169 58.2457 37.5139 58.939 36.67 59.5802C36.0447 60.1105 35.2651 60.4252 34.4469 60.4779C33.6257 60.4233 32.8438 60.1063 32.2165 59.5736C31.285 58.8862 30.4151 58.1191 29.6165 57.281C28.6289 56.2459 27.435 55.4295 26.112 54.8847C24.7891 54.3398 23.3666 54.0786 21.9364 54.1179H21.6806C20.6098 54.1172 19.5404 54.0412 18.4804 53.8905C16.6711 53.6313 15.8236 52.7832 15.5552 50.962C15.4162 49.8902 15.335 48.8118 15.3119 47.7314L15.3066 47.6071C15.2908 47.1966 15.2749 46.7735 15.2498 46.3511C15.1505 44.1647 14.268 42.087 12.7635 40.4974L12.6974 40.4313C11.9795 39.6585 11.1618 38.7807 10.4082 37.8955C9.47875 36.8008 9.03452 35.9672 8.96907 35.1964V34.9188C9.01101 34.1561 9.28995 33.4256 9.76697 32.8292C10.4975 31.8149 11.3212 30.8712 12.2274 30.0104C13.2393 29.033 14.037 27.856 14.5699 26.5541C15.1028 25.2521 15.3593 23.8536 15.3232 22.4472C15.32 21.2816 15.3977 20.1171 15.5559 18.9621C15.8203 17.1112 16.6473 16.2809 18.5128 16.0072C19.5275 15.878 20.5482 15.801 21.5708 15.7765H21.6297C22.136 15.7554 22.6338 15.7355 23.1276 15.7051C25.2482 15.6087 27.2679 14.7717 28.8352 13.3399C29.0996 13.1032 29.3561 12.8619 29.6099 12.6239L29.8235 12.4256C30.588 11.6766 31.3987 10.9763 32.2509 10.3287C32.8766 9.80037 33.6549 9.48583 34.472 9.43102C35.2939 9.4859 36.0763 9.80365 36.7037 10.3373C37.6351 11.0234 38.5044 11.7898 39.3017 12.6279C40.2896 13.6634 41.4838 14.4802 42.807 15.0254C44.1303 15.5706 45.5532 15.8321 46.9839 15.793H47.2417C48.313 15.7944 49.383 15.8703 50.4438 16.0204C52.2512 16.2796 53.0986 17.129 53.367 18.9489C53.5069 20.0199 53.5881 21.0977 53.6103 22.1775L53.6136 22.2502C53.6295 22.6786 53.6473 23.1209 53.6738 23.5565C53.772 25.743 54.653 27.8212 56.156 29.4121L56.1772 29.4333C56.911 30.2186 57.7446 31.1071 58.512 32.0114C59.4435 33.1061 59.8857 33.9397 59.9512 34.7105V34.9875C59.9105 35.7496 59.6332 36.48 59.1579 37.0771" fill="#9057CD"/>
<path d="M45.5046 35.2261C45.2815 35.1255 45.0399 35.0728 44.7952 35.0714C44.5099 35.0792 44.2306 35.1553 43.9808 35.2933C43.731 35.4314 43.5179 35.6273 43.3594 35.8647C43.34 35.8894 43.3204 35.916 43.3006 35.9447L43.251 36.0108C43.2299 36.0445 43.2028 36.0769 43.1849 36.1047C41.6334 37.9827 39.7976 38.932 37.7239 38.932C37.1529 38.929 36.5839 38.8641 36.027 38.7383C34.6743 38.5078 33.426 37.8647 32.4532 36.8969C31.4804 35.9292 30.8306 34.6843 30.5931 33.3329C29.9552 30.4242 30.8919 27.9558 33.3814 25.9991L33.4012 25.9845C33.7661 25.7634 34.0416 25.421 34.1794 25.0172C34.3172 24.6134 34.3085 24.174 34.1549 23.7759C34.0288 23.4552 33.8065 23.1813 33.5185 22.9919C33.2305 22.8025 32.891 22.7069 32.5465 22.7182C32.3777 22.7189 32.2093 22.7351 32.0434 22.7665C28.9266 23.2962 26.1216 24.975 24.182 27.4716C22.2424 29.9681 21.3091 33.1011 21.5663 36.2521C21.7291 38.2639 22.3833 40.2049 23.4715 41.9048C24.6062 43.6762 26.1635 45.1377 28.0034 46.1577C29.8433 47.1776 31.9079 47.7241 34.0114 47.7479H34.1344C36.2328 47.7446 38.2967 47.2129 40.1354 46.2017C41.9503 45.205 43.4924 43.7775 44.626 42.0449C45.2765 41.0566 45.7799 39.9791 46.1207 38.8461C46.2912 38.2881 46.4049 37.7143 46.4975 37.2536C46.6033 36.8523 46.5614 36.4264 46.3793 36.0535C46.1973 35.6806 45.8873 35.3856 45.5059 35.2222M43.3026 39.4833C43.1358 40.2308 42.788 40.9259 42.2898 41.5075C41.3097 42.6722 40.0928 43.6148 38.7201 44.2727C37.3842 44.9646 35.9137 45.3575 34.4107 45.4243H34.2487C32.0148 45.4362 29.8349 44.738 28.0235 43.4305C27.8689 43.3168 27.7128 43.1978 27.5608 43.0749C26.9548 42.5792 26.4074 42.0158 25.9293 41.3958C25.0163 40.2093 24.3823 38.8324 24.0744 37.3673C23.5839 35.0632 23.8984 32.6606 24.9652 30.5602C26.032 28.4599 27.7867 26.7889 29.9366 25.8259L30.2282 25.6976L30.047 25.9568C26.6756 30.7746 28.1491 35.8726 30.9448 38.5717C31.213 38.831 31.4967 39.0738 31.7942 39.2989C31.9132 39.3875 32.0342 39.4767 32.1604 39.5633C32.2226 39.6063 32.2847 39.6466 32.3469 39.6876C32.4711 39.7696 32.5994 39.8496 32.7309 39.9256C34.1876 40.7822 35.8463 41.2349 37.5362 41.2371C38.314 41.2366 39.0888 41.1394 39.8426 40.9476C39.9596 40.9172 40.0806 40.8854 40.1996 40.8517C40.3186 40.818 40.4342 40.779 40.5532 40.74C40.9755 40.596 41.3876 40.4238 41.7868 40.2244C41.9038 40.1655 42.0195 40.1054 42.1371 40.0432C42.2548 39.9811 42.3678 39.911 42.4815 39.8449C42.7195 39.7008 42.9509 39.5514 43.1657 39.3987L43.3455 39.2725L43.3026 39.4833Z" fill="#421C67"/>
<path d="M47.2862 26.1902C47.1655 25.7625 46.9091 25.3856 46.5555 25.1164C46.202 24.8472 45.7705 24.7001 45.3261 24.6975H45.1873C44.8554 24.7389 44.5205 24.6485 44.2545 24.4459C43.9884 24.2432 43.8123 23.9443 43.7641 23.6133C43.6368 23.182 43.3706 22.8047 43.0068 22.5403C42.6431 22.2758 42.2021 22.139 41.7525 22.1511H41.724C41.2646 22.1328 40.8124 22.27 40.4405 22.5405C40.0687 22.811 39.7989 23.199 39.6748 23.6418C39.6542 23.8039 39.6014 23.9602 39.5196 24.1016C39.4377 24.243 39.3284 24.3666 39.1981 24.4652C39.0678 24.5637 38.919 24.6352 38.7607 24.6755C38.6023 24.7157 38.4375 24.7238 38.276 24.6995C38.2581 24.6995 38.235 24.6995 38.2099 24.6995H38.1048C37.663 24.701 37.2338 24.8468 36.8825 25.1147C36.5312 25.3826 36.277 25.7579 36.1586 26.1835C35.9987 26.5968 35.9823 27.0518 36.1118 27.4755C36.2414 27.8993 36.5095 28.2672 36.8732 28.5204C37.2095 28.7012 37.4616 29.0064 37.5755 29.3708C37.6894 29.7352 37.6561 30.1297 37.4827 30.4698C37.387 30.7746 37.3652 31.0977 37.419 31.4125C37.4728 31.7273 37.6006 32.0248 37.7921 32.2805C37.9856 32.5479 38.2392 32.7661 38.5324 32.9177C38.8256 33.0692 39.1503 33.1499 39.4804 33.1531C39.8633 33.1529 40.2377 33.0406 40.5573 32.8298C40.8988 32.5747 41.3067 32.4235 41.732 32.3942C42.1434 32.4197 42.5374 32.569 42.8624 32.8225C43.1798 33.0424 43.5565 33.1606 43.9426 33.1617C44.5136 33.1328 45.0513 32.8838 45.4427 32.4669C45.834 32.05 46.0486 31.4977 46.0414 30.926V30.9048C46.0505 30.7111 46.0196 30.5176 45.9508 30.3363C45.8676 30.1823 45.8167 30.0129 45.8012 29.8385C45.7857 29.6641 45.8059 29.4884 45.8606 29.3221C45.9153 29.1558 46.0033 29.0024 46.1193 28.8712C46.2353 28.7401 46.3768 28.634 46.5352 28.5594C46.9025 28.3014 47.1746 27.9296 47.3095 27.5015C47.4444 27.0734 47.4346 26.6128 47.2816 26.1908M44.8753 27.3351L43.7733 28.5594C43.7032 28.6368 43.6516 28.7292 43.6226 28.8296C43.5936 28.9299 43.588 29.0356 43.6061 29.1385L43.8493 30.5207C43.8597 30.5806 43.8528 30.6422 43.8294 30.6983C43.806 30.7544 43.767 30.8027 43.7171 30.8374C43.6622 30.8784 43.5953 30.9002 43.5267 30.8995C43.4747 30.8993 43.4235 30.8866 43.3774 30.8625L42.0519 30.1697C41.9597 30.1206 41.8575 30.0933 41.7531 30.0899C41.6487 30.0864 41.5449 30.107 41.4497 30.1499L40.0317 30.7911C39.9782 30.8151 39.9191 30.824 39.8608 30.817C39.8026 30.81 39.7473 30.7873 39.7009 30.7513C39.6546 30.7153 39.6188 30.6674 39.5976 30.6127C39.5763 30.558 39.5703 30.4986 39.5802 30.4408L39.8222 29.0743C39.8422 28.9635 39.8346 28.8494 39.8 28.7421C39.7654 28.6349 39.7049 28.5378 39.6239 28.4596L38.551 27.4124C38.5084 27.3713 38.478 27.3192 38.463 27.2619C38.4479 27.2047 38.4489 27.1444 38.4657 27.0876C38.4825 27.0309 38.5146 26.9798 38.5584 26.94C38.6022 26.9002 38.6561 26.8731 38.7142 26.8618L40.2162 26.5795C40.3164 26.5615 40.4113 26.5214 40.4939 26.462C40.5766 26.4027 40.645 26.3256 40.6941 26.2364L41.4266 24.909C41.454 24.8595 41.4938 24.8181 41.5422 24.7887C41.5905 24.7594 41.6457 24.7432 41.7022 24.7418C41.7586 24.7396 41.8146 24.7527 41.8642 24.7795C41.9139 24.8064 41.9554 24.8461 41.9845 24.8945L42.795 26.2166C42.8461 26.2984 42.9136 26.3687 42.9932 26.4231C43.0728 26.4775 43.1629 26.5148 43.2577 26.5326L44.7008 26.797C44.7573 26.8076 44.8099 26.8331 44.8533 26.8708C44.8967 26.9084 44.9293 26.957 44.9477 27.0114C44.9662 27.0659 44.9698 27.1242 44.9582 27.1805C44.9467 27.2368 44.9203 27.289 44.8819 27.3318" fill="#421C67"/>
</g>
</g>
</g>
</g>
<defs>
<clipPath id="clip0_1_3404">
<rect width="68.75" height="68.75" fill="white" transform="translate(0.129883 0.590027)"/>
</clipPath>
<clipPath id="clip1_1_3404">
<rect width="68.75" height="68.75" fill="white" transform="translate(0.129883 0.590027)"/>
</clipPath>
<clipPath id="clip2_1_3404">
<rect width="68.75" height="68.75" fill="white" transform="translate(0.129883 0.590027)"/>
</clipPath>
</defs>
</svg>
