<svg width="69" height="70" viewBox="0 0 69 70" fill="none" xmlns="http://www.w3.org/2000/svg">
<g clip-path="url(#clip0_1_3383)">
<g clip-path="url(#clip1_1_3383)">
<g clip-path="url(#clip2_1_3383)">
<mask id="mask0_1_3383" style="mask-type:luminance" maskUnits="userSpaceOnUse" x="6" y="7" width="56" height="57">
<path d="M61.8649 7.20062H6.07959V63.0058H61.8649V7.20062Z" fill="white"/>
</mask>
<g mask="url(#mask0_1_3383)">
<path d="M61.7161 33.7546C61.7083 33.6535 61.6946 33.5528 61.6752 33.4532C61.4261 32.1896 60.8418 31.0162 59.9835 30.056C59.5453 29.591 59.2269 29.0263 59.0558 28.4107C58.8846 27.7951 58.8659 27.1471 59.0012 26.5227C59.3863 24.6714 59.072 22.743 58.119 21.1098C57.1659 19.4766 55.6416 18.2544 53.8403 17.679C53.2591 17.488 52.7318 17.1613 52.302 16.7259C51.8722 16.2906 51.5522 15.7592 51.3686 15.1756C50.77 13.4082 49.553 11.9165 47.9417 10.9752C46.3304 10.0339 44.4333 9.70647 42.5997 10.0531C41.9676 10.1947 41.3105 10.1809 40.6849 10.0129C40.0593 9.84494 39.4837 9.52777 39.0075 9.08859C37.919 8.12646 36.573 7.50353 35.135 7.29647C35.0586 7.28174 34.9837 7.2596 34.9116 7.23036C34.8832 7.22177 34.8547 7.21053 34.8263 7.19995H33.0996C33.0712 7.21053 33.0428 7.21978 33.013 7.23036C32.941 7.25983 32.8661 7.28198 32.7896 7.29647C31.369 7.49684 30.0382 8.10882 28.9614 9.05686C28.476 9.5137 27.8851 9.84332 27.2413 10.0163C26.5976 10.1893 25.9211 10.2004 25.272 10.0484C23.4452 9.70704 21.5566 10.0381 19.9548 10.9805C18.353 11.9229 17.1462 13.4129 16.5573 15.1756C16.3743 15.7595 16.0545 16.2912 15.6246 16.7266C15.1947 17.162 14.6671 17.4885 14.0856 17.679C12.2656 18.2598 10.7282 19.4997 9.77536 21.1556C8.8225 22.8115 8.52288 24.7637 8.93532 26.6291C9.06623 27.2191 9.0503 27.8322 8.88894 28.4146C8.72757 28.997 8.42571 29.5309 8.00984 29.9694C7.58558 30.4376 7.22322 30.9584 6.93165 31.5189C6.22383 32.9094 5.94706 34.4794 6.13679 36.028C6.32651 37.5766 6.97409 39.0334 7.99662 40.2118C8.41275 40.6606 8.71484 41.2028 8.87741 41.7928C9.03998 42.3828 9.05825 43.0032 8.93069 43.6018C8.52925 45.4679 8.83728 47.4168 9.79473 49.0682C10.7522 50.7196 12.2904 51.9552 14.1094 52.534C14.6822 52.7229 15.2018 53.0451 15.6257 53.4741C16.0495 53.9032 16.3654 54.4267 16.5474 55.0017C17.1339 56.7868 18.353 58.2958 19.975 59.2443C21.5971 60.1929 23.51 60.5155 25.3533 60.1513C25.6474 60.0959 25.9459 60.0673 26.2451 60.0661C27.2263 60.0671 28.1719 60.4339 28.8973 61.0947C30.2931 62.323 32.0877 63.0023 33.9471 63.0062C35.8064 63.0101 37.6039 62.3383 39.0048 61.1158C39.4833 60.68 40.0591 60.365 40.6841 60.1973C41.3092 60.0295 41.9653 60.0137 42.5977 60.1513C44.4323 60.5139 46.3362 60.1935 47.9512 59.2505C49.5661 58.3074 50.7808 56.8068 51.3666 55.0308C51.5505 54.4471 51.8705 53.9155 52.3003 53.4799C52.73 53.0443 53.2572 52.7171 53.8383 52.5254C55.6401 51.9512 57.1651 50.7296 58.1186 49.0966C59.0722 47.4635 59.3866 45.5351 59.0012 43.6837C58.866 43.0594 58.8846 42.4116 59.0553 41.7961C59.2261 41.1805 59.544 40.6158 59.9815 40.1504C60.8284 39.2044 61.409 38.0506 61.6639 36.8067C61.6855 36.6991 61.701 36.5903 61.7102 36.4808C61.7199 36.263 61.7722 36.0492 61.8642 35.8515V34.3555C61.7701 34.169 61.7199 33.9636 61.7161 33.7546ZM57.3981 38.3397C56.708 39.1429 56.214 40.0954 55.9552 41.1222C55.6964 42.149 55.6798 43.2219 55.9068 44.2562C56.1465 45.3507 55.9712 46.4952 55.415 47.4678C54.8587 48.4404 53.9612 49.1718 52.8963 49.5202C51.8283 49.8652 50.8584 50.4608 50.0675 51.2572C49.2766 52.0536 48.6878 53.0276 48.3502 54.098C47.9925 55.1393 47.2675 56.0144 46.3109 56.5594C45.3543 57.1045 44.2318 57.2821 43.1536 57.0589C42.0848 56.8158 40.9732 56.833 39.9124 57.1091C38.8517 57.3852 37.8727 57.9121 37.058 58.6454C36.2175 59.4293 35.111 59.8652 33.9616 59.8652C32.8123 59.8652 31.7058 59.4293 30.8652 58.6454C30.0506 57.9121 29.0716 57.3852 28.0108 57.1091C26.9501 56.833 25.8385 56.8158 24.7696 57.0589C23.6912 57.2824 22.5683 57.1051 21.6113 56.56C20.6543 56.0149 19.9289 55.1396 19.5711 54.098C19.2341 53.0271 18.6455 52.0525 17.8546 51.2557C17.0637 50.4589 16.0934 49.8631 15.025 49.5182C13.9606 49.1693 13.0635 48.4377 12.5077 47.4652C11.9519 46.4926 11.7769 45.3484 12.0165 44.2542C12.2508 43.1928 12.2286 42.0908 11.9517 41.0396C11.6749 39.9885 11.1514 39.0185 10.4247 38.2102C9.63418 37.3735 9.19244 36.2669 9.1895 35.1159C9.18655 33.9649 9.62261 32.8561 10.4088 32.0154C11.1431 31.2014 11.6718 30.2235 11.9507 29.1633C12.2296 28.1032 12.2505 26.9917 12.0119 25.9218C11.7803 24.8447 11.9518 23.72 12.494 22.7609C13.0361 21.8018 13.9113 21.0749 14.9536 20.7179C16.0479 20.367 17.0416 19.7577 17.8506 18.9414C18.6595 18.1251 19.2599 17.1259 19.6008 16.0284C19.9659 15.0074 20.6877 14.1528 21.6332 13.622C22.5787 13.0913 23.6841 12.9202 24.7458 13.1402C25.8138 13.3877 26.9255 13.3746 27.9874 13.1022C29.0492 12.8298 30.0299 12.3059 30.8467 11.5748C31.6885 10.7765 32.8045 10.3315 33.9646 10.3315C35.1248 10.3315 36.2407 10.7765 37.0825 11.5748C37.8918 12.3004 38.8629 12.8219 39.9148 13.0959C40.9666 13.37 42.0687 13.3885 43.1292 13.1501C44.2058 12.9213 45.3288 13.0927 46.2882 13.6321C47.2476 14.1714 47.9776 15.0419 48.3416 16.0806C48.6847 17.1687 49.2849 18.1581 50.0913 18.9652C50.8976 19.7722 51.8865 20.3732 52.9743 20.7173C53.8826 21.0276 54.667 21.6216 55.2119 22.4117C55.7568 23.2018 56.0333 24.1461 56.0006 25.1054C56.0091 25.3999 55.9793 25.6943 55.9121 25.9813C55.8929 26.0857 55.8731 26.1921 55.8552 26.2986C55.6809 27.2783 55.7274 28.2845 55.9915 29.2439C56.2556 30.2033 56.7305 31.0917 57.3816 31.8442C59.1704 33.9807 59.1744 36.227 57.3975 38.3384" fill="#9057CD"/>
<path d="M32.0114 29.553C32.0122 28.7843 31.8268 28.0269 31.471 27.3455C31.1153 26.6641 30.5999 26.0789 29.9687 25.6402C29.2422 25.0697 28.3678 24.7186 27.4485 24.6282C26.5292 24.5378 25.6032 24.7118 24.7794 25.1298C23.9286 25.4925 23.2023 26.0958 22.6898 26.8656C22.1773 27.6354 21.9009 28.5383 21.8946 29.4631C21.8483 30.7488 21.8608 32.059 21.8714 33.325C21.8747 33.8921 21.88 34.4613 21.88 35.0285V35.0946H21.8661V36.6018C21.8661 37.8235 21.8661 39.0462 21.8661 40.27C21.8221 41.1187 21.9935 41.9647 22.3643 42.7293C22.7351 43.4939 23.2933 44.1523 23.987 44.6432C24.6806 45.1341 25.4872 45.4416 26.3316 45.537C27.176 45.6324 28.0308 45.5127 28.8165 45.189C30.8592 44.4459 31.9618 42.833 32.0081 40.5226C32.0841 36.6997 32.0504 32.8543 32.0114 29.549M28.88 40.4532C28.8797 40.8039 28.7881 41.1485 28.6143 41.4531C28.4404 41.7577 28.1902 42.0118 27.8884 42.1904C27.6072 42.3496 27.2893 42.4328 26.9662 42.4317C26.6103 42.4298 26.2609 42.3358 25.9521 42.1587C25.6387 41.9812 25.3829 41.7174 25.2153 41.3985C25.0477 41.0797 24.9753 40.7194 25.0068 40.3606C25.0068 39.1072 25.0068 37.8526 25.0068 36.5965V35.0702C25.0068 34.5224 25.0057 33.9739 25.0035 33.4248C25.0035 32.2296 24.9982 30.9941 25.0121 29.7797C25.002 29.4973 25.0517 29.2159 25.1577 28.9539C25.2638 28.6919 25.4239 28.4552 25.6276 28.2593C25.8359 28.0798 26.0798 27.9464 26.3433 27.8678C26.6068 27.7892 26.884 27.7672 27.1566 27.8031C27.4067 27.8221 27.6505 27.8909 27.8735 28.0055C28.0966 28.1202 28.2944 28.2784 28.4554 28.4707C28.6163 28.6631 28.7371 28.8858 28.8106 29.1256C28.8841 29.3654 28.9088 29.6175 28.8833 29.867C28.8905 31.548 28.8886 33.2284 28.8866 34.9095V36.9026C28.8866 37.2609 28.8877 37.619 28.8899 37.9768C28.8952 38.7873 28.9005 39.6255 28.8793 40.4498" fill="#421C67"/>
<path d="M45.0218 27.0475C44.3303 28.7921 43.621 30.5617 42.9335 32.2745L41.9869 34.6345L41.1275 36.7869C40.1381 39.2548 39.1512 41.7246 38.1667 44.196C38.0848 44.5225 37.905 44.816 37.6514 45.0373C37.3978 45.2585 37.0826 45.3968 36.748 45.4335C36.4849 45.4652 36.2181 45.4276 35.974 45.3244C35.7299 45.2212 35.517 45.056 35.3565 44.8452C35.189 44.6113 35.0843 44.3384 35.0524 44.0526C35.0205 43.7667 35.0623 43.4774 35.174 43.2124C35.6368 42.0297 36.1174 40.8326 36.5854 39.6737C36.789 39.1667 36.9913 38.6617 37.1956 38.1533L38.4516 35.0153C39.6661 31.9797 40.8812 28.9454 42.0966 25.9125C42.1893 25.5805 42.389 25.2883 42.6648 25.0815C42.9406 24.8747 43.277 24.7648 43.6217 24.7689C43.8716 24.7629 44.1191 24.8191 44.3419 24.9324C44.5647 25.0457 44.7558 25.2126 44.8982 25.418C45.0514 25.6584 45.1429 25.9329 45.1646 26.2172C45.1863 26.5015 45.1375 26.7867 45.0225 27.0475" fill="#421C67"/>
<path d="M38.1632 27.5315C38.1632 27.7298 38.1665 27.9281 38.1579 28.1264C38.1445 28.5316 37.9765 28.9164 37.6883 29.2016C37.4002 29.4868 37.0137 29.6508 36.6084 29.6601H36.5906C36.1962 29.6563 35.8176 29.5049 35.5294 29.2356C35.2412 28.9664 35.0643 28.5989 35.0338 28.2057C34.9896 27.5381 34.9907 26.8683 35.0371 26.2008C35.0571 25.8048 35.233 25.4329 35.5262 25.1661C35.8195 24.8993 36.2064 24.7594 36.6025 24.7768C36.6223 24.7768 36.6415 24.7768 36.6593 24.7768C37.0559 24.7813 37.4349 24.9411 37.715 25.2219C37.995 25.5028 38.1538 25.8822 38.1573 26.2788C38.1659 26.4949 38.1645 26.7164 38.1626 26.9312C38.1626 27.0396 38.1593 27.1474 38.1593 27.2558C38.1593 27.3464 38.1592 27.4383 38.1626 27.5288" fill="#421C67"/>
<path d="M45.1602 42.9446V43.0107C45.1602 43.1244 45.1602 43.2375 45.1655 43.3532C45.1761 43.5995 45.1726 43.8463 45.1549 44.0922C45.1214 44.4508 44.9573 44.7846 44.6938 45.0301C44.4303 45.2755 44.0857 45.4156 43.7257 45.4236C43.3579 45.4732 42.9851 45.3794 42.6847 45.1615C42.3843 44.9437 42.1792 44.6185 42.112 44.2535C41.9677 43.4375 41.9653 42.6027 42.1048 41.7858C42.1729 41.4386 42.3588 41.1256 42.6312 40.8997C42.9036 40.6738 43.2456 40.549 43.5994 40.5463C43.6298 40.5463 43.6596 40.5463 43.69 40.5496C44.068 40.5681 44.4263 40.7238 44.6978 40.9875C44.9693 41.2512 45.1353 41.6048 45.1648 41.9821C45.1827 42.2142 45.1774 42.4535 45.1734 42.6862C45.1734 42.7714 45.1701 42.858 45.1681 42.9433L45.1602 42.9446Z" fill="#421C67"/>
</g>
</g>
</g>
</g>
<defs>
<clipPath id="clip0_1_3383">
<rect width="68.75" height="68.75" fill="white" transform="translate(0.129883 0.590027)"/>
</clipPath>
<clipPath id="clip1_1_3383">
<rect width="68.75" height="68.75" fill="white" transform="translate(0.129883 0.590027)"/>
</clipPath>
<clipPath id="clip2_1_3383">
<rect width="68.75" height="68.75" fill="white" transform="translate(0.129883 0.590027)"/>
</clipPath>
</defs>
</svg>
