<svg width="92" height="91" viewBox="0 0 92 91" fill="none" xmlns="http://www.w3.org/2000/svg">
<g clip-path="url(#clip0_1_3650)">
<g clip-path="url(#clip1_1_3650)">
<g clip-path="url(#clip2_1_3650)">
<mask id="mask0_1_3650" style="mask-type:luminance" maskUnits="userSpaceOnUse" x="15" y="15" width="63" height="61">
<path d="M77.134 15.8098H15.3672V75.437H77.134V15.8098Z" fill="white"/>
</mask>
<g mask="url(#mask0_1_3650)">
<path d="M41.6816 61.4922V75.3827C28.1768 74.0661 16.8936 62.5379 15.5399 48.9399C15.0517 44.823 15.4361 40.6494 16.6681 36.691C17.9001 32.7326 19.9521 29.078 22.6905 25.9654C27.5111 20.3073 34.2917 16.6799 41.6738 15.8098V29.7943C39.4293 30.3075 37.3214 31.2972 35.4929 32.6965C33.6645 34.0958 32.1583 35.8718 31.0765 37.9043C29.6733 40.3945 28.989 43.2254 29.0999 46.0815C29.2216 49.6731 30.5183 53.1256 32.791 55.9094C35.0637 58.6931 38.1869 60.6543 41.6816 61.4922Z" fill="#885AC6"/>
<path d="M72.4009 61.858L62.4248 51.8612C62.3636 51.8 62.3083 51.7309 62.2523 51.6645C62.8178 50.137 63.179 48.5415 63.3264 46.9193C63.5519 44.4185 63.1799 41.9 62.2411 39.5712C62.2264 39.5306 62.2342 39.4754 62.2091 39.4461C61.393 38.4772 61.921 37.8612 62.6699 37.133C65.5221 34.3575 68.3192 31.5251 71.1206 28.6978C71.5183 28.2966 71.6969 28.2914 72.0412 28.7884C74.1009 31.8036 75.5827 35.1753 76.4111 38.7317C76.9119 40.6892 77.1469 42.7051 77.1099 44.7253C77.0728 45.8961 77.1962 47.0781 77.0866 48.2402C76.9123 50.7896 76.358 53.2986 75.4422 55.6841C74.6312 57.6374 73.6373 59.5148 72.7184 61.4232C72.6249 61.5754 72.519 61.7197 72.4018 61.8546" fill="#DFD2EF"/>
<path d="M55.8713 45.4396C55.8845 47.5182 55.2676 49.5519 54.1018 51.2728C52.9361 52.9937 51.2763 54.321 49.3411 55.0797C47.4059 55.8383 45.2863 55.9928 43.2616 55.5228C41.2369 55.0527 39.4021 53.9801 37.9992 52.4464C36.5962 50.9128 35.6909 48.9899 35.4026 46.9315C35.1143 44.873 35.4566 42.7755 36.3842 40.9154C37.3119 39.0553 38.7814 37.52 40.599 36.5117C42.4167 35.5035 44.4973 35.0698 46.5664 35.2677C49.1054 35.5003 51.4662 36.6719 53.1871 38.5531C54.908 40.4344 55.8652 42.89 55.8713 45.4396ZM44.5924 50.5403C44.569 50.9099 44.5725 51.2807 44.6027 51.6498C44.6144 51.8808 44.7137 52.0987 44.8804 52.259C45.0471 52.4193 45.2687 52.51 45.5 52.5125C45.7415 52.5152 45.9747 52.4248 46.1514 52.2602C46.3281 52.0956 46.4347 51.8693 46.449 51.6282C46.4887 51.3918 46.3964 51.1244 46.468 50.9061C46.5008 50.801 46.5553 50.704 46.628 50.6214C46.7007 50.5387 46.7899 50.4723 46.8899 50.4264C47.5468 50.279 48.135 49.9147 48.5596 49.3923C48.9842 48.8698 49.2206 48.2196 49.2306 47.5465C49.2482 46.8926 49.0392 46.2527 48.6391 45.7352C48.2389 45.2178 47.6722 44.8546 47.0349 44.7071C46.4354 44.6145 45.8297 44.5683 45.2231 44.5691C45.0539 44.6089 44.8779 44.6101 44.7081 44.5727C44.5383 44.5353 44.3792 44.4601 44.2424 44.3528C44.1057 44.2455 43.9948 44.1088 43.918 43.9529C43.8413 43.7969 43.8006 43.6257 43.799 43.4518C43.7974 43.278 43.835 43.1061 43.9088 42.9487C43.9827 42.7914 44.0911 42.6527 44.2259 42.5429C44.3606 42.4331 44.5184 42.355 44.6874 42.3145C44.8565 42.2739 45.0324 42.2719 45.2024 42.3087C46.0194 42.3026 46.8373 42.3087 47.6543 42.3087C47.7851 42.3255 47.9179 42.3146 48.044 42.2764C48.1702 42.2383 48.2869 42.1738 48.3863 42.0874C48.4858 42.0009 48.5659 41.8943 48.6212 41.7747C48.6765 41.6551 48.7059 41.5251 48.7074 41.3933C48.7088 41.2615 48.6824 41.1308 48.6297 41.01C48.5771 40.8892 48.4994 40.7808 48.4019 40.6922C48.3044 40.6035 48.1892 40.5365 48.0639 40.4955C47.9386 40.4546 47.8061 40.4406 47.675 40.4546C47.2833 40.4391 46.8908 40.4546 46.4534 40.4546C46.4534 40.075 46.4396 39.748 46.4534 39.4193C46.4836 38.8343 46.0677 38.6065 45.6329 38.4702C45.1851 38.3339 44.8736 38.6376 44.7175 39.0241C44.6228 39.2876 44.5834 39.5678 44.6019 39.8472C44.6211 39.9332 44.622 40.0223 44.6044 40.1086C44.5869 40.195 44.5514 40.2767 44.5002 40.3484C44.449 40.4201 44.3833 40.4802 44.3073 40.5248C44.2313 40.5694 44.1468 40.5975 44.0592 40.6073C43.4577 40.7903 42.93 41.16 42.5526 41.6628C42.1752 42.1657 41.9677 42.7757 41.9601 43.4044C41.9363 44.0025 42.1068 44.5923 42.4462 45.0855C42.7855 45.5787 43.2755 45.9487 43.8426 46.1402C44.5965 46.3184 45.3681 46.4104 46.1428 46.4145C46.4313 46.4137 46.7114 46.5115 46.9366 46.6918C47.1619 46.8722 47.3186 47.1241 47.3808 47.4059C47.4025 47.5409 47.3953 47.6791 47.3598 47.8112C47.3242 47.9433 47.2611 48.0664 47.1745 48.1724C47.088 48.2783 46.98 48.3648 46.8576 48.426C46.7352 48.4872 46.6013 48.5217 46.4646 48.5274C45.4741 48.6594 44.4621 48.6396 43.4596 48.6784C43.2252 48.6925 43.0018 48.7827 42.8234 48.9353C42.6449 49.0879 42.5211 49.2946 42.4709 49.5239C42.4964 49.7681 42.5994 49.9976 42.7647 50.1791C42.93 50.3605 43.149 50.4844 43.3897 50.5325C43.7624 50.5575 44.1377 50.5377 44.5976 50.5377" fill="#885AC6"/>
<path d="M49.1538 75.3379V61.4526C51.7558 60.8178 54.1652 59.562 56.1758 57.7927L66.0182 67.636C64.3885 68.8438 62.9304 70.0638 61.342 71.0793C58.7204 72.7748 55.8334 74.0195 52.8007 74.7615C51.6334 75.0428 50.429 75.1679 49.2409 75.3655L49.2073 75.3197L49.1538 75.3379Z" fill="#885AC6"/>
<path d="M49.1461 15.8589C54.8933 16.5526 60.3119 18.9132 64.7336 22.6497L54.9921 32.3989C53.9672 31.8657 52.9129 31.2773 51.8232 30.7657C51.1282 30.4447 50.4065 30.1849 49.6663 29.9892C49.3022 29.8908 49.1383 29.7778 49.1392 29.3956C49.1452 24.9291 49.1392 20.4634 49.1392 15.8615" fill="#DFD2EF"/>
<path d="M49.1542 75.3387L49.2077 75.3188L49.2413 75.3646L49.1421 75.437L49.155 75.3387" fill="#885AC6"/>
</g>
</g>
</g>
</g>
<defs>
<clipPath id="clip0_1_3650">
<rect width="90.59" height="90.59" fill="white" transform="translate(0.700195 0.280029)"/>
</clipPath>
<clipPath id="clip1_1_3650">
<rect width="90.59" height="90.59" fill="white" transform="translate(0.700195 0.280029)"/>
</clipPath>
<clipPath id="clip2_1_3650">
<rect width="90.59" height="90.59" fill="white" transform="translate(0.700195 0.280029)"/>
</clipPath>
</defs>
</svg>
