<svg width="92" height="91" viewBox="0 0 92 91" fill="none" xmlns="http://www.w3.org/2000/svg">
<g clip-path="url(#clip0_1_3673)">
<g clip-path="url(#clip1_1_3673)">
<g clip-path="url(#clip2_1_3673)">
<mask id="mask0_1_3673" style="mask-type:luminance" maskUnits="userSpaceOnUse" x="9" y="10" width="74" height="70">
<path d="M82.1585 10.6331H9.32764V79.8844H82.1585V10.6331Z" fill="white"/>
</mask>
<g mask="url(#mask0_1_3673)">
<path d="M68.4062 46.8819C60.0279 46.8819 54.6512 53.3207 54.6512 63.3831C54.6374 65.3043 54.86 67.2199 55.3138 69.0868C55.7969 69.0376 56.2792 68.9936 56.7606 68.9427C58.9141 68.7315 60.9685 67.9336 62.6999 66.6357C62.9432 66.4539 63.1819 66.2613 63.416 66.0577C63.3122 65.17 63.2618 64.2768 63.265 63.3831C63.265 57.7372 65.0069 54.5277 68.1646 54.3733C68.3137 53.9116 68.5079 53.4657 68.7444 53.042C69.1007 52.4001 69.5322 51.8028 70.0299 51.263C70.9149 50.307 71.6803 49.247 72.3093 48.1062C72.4189 47.9017 72.5198 47.6972 72.6147 47.491C71.2497 47.0782 69.8305 46.8729 68.4045 46.8819M73.5224 41.4629C73.5224 41.4344 73.5163 41.4034 73.512 41.3723C73.2992 39.0903 72.4198 36.9213 70.9833 35.1354C70.1766 34.132 69.3242 33.1562 68.6098 32.089C68.446 31.8432 68.3084 31.5809 68.1991 31.3065C67.8547 30.227 67.6914 29.0979 67.716 27.965C67.717 27.9532 67.717 27.9414 67.716 27.9296C67.7039 27.682 67.6892 27.4361 67.6642 27.1928C67.4537 24.8316 66.5084 22.5958 64.9612 20.7998C64.1751 19.8658 63.2566 19.0519 62.2349 18.384C62.1486 18.3305 62.0701 18.277 61.9855 18.2227C59.975 17.0185 57.6737 16.3863 55.3302 16.3945C55.2059 16.3945 55.0808 16.3859 54.9523 16.3781H54.9462C54.0553 16.3321 53.1835 16.1024 52.3856 15.7034C51.247 15.0145 50.1749 14.2214 49.183 13.3343C48.1601 12.5016 47.0085 11.841 45.7734 11.3784C45.7613 11.3731 45.7489 11.3688 45.7363 11.3655C43.9484 10.7267 42.04 10.4967 40.1516 10.6925C39.3626 10.7616 38.5824 10.9081 37.8221 11.1299C37.7272 11.1584 37.6341 11.1877 37.5417 11.2162L37.5029 11.2283C37.4348 11.2507 37.3666 11.274 37.2984 11.2982C37.2303 11.3223 37.1621 11.3456 37.094 11.3706C36.7782 11.4903 36.4693 11.6217 36.1674 11.7649L35.9405 11.8762L35.7317 11.9815L35.61 12.0479C35.5479 12.0807 35.4884 12.1161 35.4262 12.1514C35.3641 12.1868 35.2779 12.2377 35.2037 12.2791C34.2996 12.823 33.4622 13.4707 32.7085 14.2091C32.4265 14.4822 32.1259 14.7353 31.8087 14.9666C31.0657 15.5049 30.2302 15.9023 29.3438 16.1391C28.6758 16.3185 27.9901 16.4238 27.299 16.4532C25.9973 16.5045 24.7065 16.7125 23.4546 17.0726C23.1328 17.1718 22.8187 17.2814 22.5133 17.4048L22.3934 17.454C20.7355 18.157 19.2721 19.2504 18.1279 20.641C18.0036 20.7834 17.8846 20.93 17.769 21.0724C17.7172 21.1388 17.6654 21.2061 17.618 21.2725C17.517 21.4063 17.4195 21.5426 17.3229 21.6815C17.2772 21.7497 17.2297 21.8152 17.1866 21.8834C17.1435 21.9515 17.096 22.0197 17.0546 22.0879C17.0279 22.1293 17.0028 22.1741 16.9778 22.2121C16.9286 22.2889 16.8829 22.3648 16.8372 22.4433C16.7035 22.6763 16.5784 22.9118 16.4576 23.1534C16.4248 23.2155 16.3954 23.2793 16.3644 23.3432C16.3256 23.4234 16.2876 23.5045 16.2531 23.5865C16.2243 23.6486 16.1976 23.7104 16.1729 23.772C16.1107 23.9143 16.0529 24.061 16.0003 24.2033C15.9477 24.3457 15.8933 24.4967 15.8416 24.6425C15.4032 25.9911 15.1546 27.3942 15.103 28.8114C15.0823 29.2678 15.0763 29.7276 15.0168 30.1797C14.9885 30.3833 14.9479 30.585 14.8951 30.7836C14.4646 32.4074 13.305 33.5824 12.2361 34.8179C11.1117 36.1079 10.2786 37.625 9.79354 39.266C9.30847 40.907 9.18284 42.6333 9.42519 44.3273C9.80025 47.1397 11.1326 49.737 13.1981 51.6823C13.4962 51.9791 13.7663 52.3029 14.0047 52.6495C14.4851 53.3333 14.8035 54.1175 14.9357 54.9427C15.1479 56.3084 15.1893 57.7035 15.4309 59.0641C15.6948 60.6178 16.2688 62.1024 17.1187 63.4295C17.9686 64.7565 19.0771 65.8989 20.378 66.7884C21.8319 67.8253 23.4971 68.528 25.2543 68.8461L25.2573 68.8467L25.2603 68.8461C25.98 68.9796 26.7083 69.0618 27.4397 69.092C27.6484 69.1006 27.8564 69.1067 28.0669 69.1084C28.9293 69.1014 29.7821 69.289 30.562 69.6571L30.5741 69.6631C30.8289 69.79 31.0725 69.9384 31.3022 70.1066C32.0658 70.6657 32.7802 71.2929 33.5187 71.8856C33.8224 72.1315 34.1295 72.3705 34.4453 72.5974C36.2873 73.946 38.4862 74.7212 40.7667 74.8259C43.0838 74.9507 45.3884 74.412 47.41 73.2729C47.4446 73.253 47.4803 73.2352 47.517 73.2194L47.5291 73.2134C48.515 72.629 49.4274 71.9286 50.2468 71.1272C50.7224 70.6644 51.2584 70.2679 51.8403 69.9487C52.1523 69.7787 52.4799 69.6391 52.8187 69.532C52.9593 69.4889 53.1034 69.4457 53.25 69.4147C52.8163 67.4343 52.603 65.4121 52.6142 63.3848C52.6142 51.8298 58.7864 44.4377 68.4079 44.4377C70.0802 44.4265 71.7443 44.6721 73.342 45.1659C73.5911 43.9483 73.6531 42.7 73.5258 41.4638M31.6387 36.4485C31.6238 35.9703 31.7069 35.494 31.883 35.0491C32.0591 34.6042 32.3244 34.2001 32.6625 33.8616C33.0007 33.5231 33.4046 33.2574 33.8493 33.0809C34.2941 32.9044 34.7703 32.8208 35.2485 32.8353C35.4211 32.8433 35.5861 32.8577 35.7437 32.8784C35.7972 32.8784 35.849 32.8905 35.9008 32.8991C35.981 32.9112 36.0621 32.9259 36.1398 32.9423C36.1872 32.9509 36.2347 32.9612 36.2804 32.9733C36.3229 32.9815 36.3649 32.9918 36.4063 33.0044C36.446 33.0126 36.4852 33.0229 36.5237 33.0354C36.5754 33.0501 36.6246 33.0665 36.6747 33.0829C36.7247 33.0993 36.792 33.1217 36.8472 33.145C37.0183 33.2093 37.1839 33.2872 37.3424 33.378C37.3899 33.4047 37.4373 33.4314 37.4848 33.4642C37.5323 33.4953 37.5797 33.5264 37.6254 33.5609C37.6712 33.5954 37.7117 33.6187 37.7471 33.6471C37.8006 33.6886 37.8506 33.7334 37.8998 33.7774C37.9326 33.8059 37.9662 33.8369 37.9964 33.868C38.0814 33.9505 38.1607 34.0387 38.2337 34.132C38.2888 34.1994 38.3403 34.2697 38.3881 34.3425C38.4235 34.3943 38.458 34.4478 38.4891 34.5039C38.5201 34.5599 38.5382 34.5901 38.5589 34.6316C38.5624 34.6347 38.5646 34.639 38.565 34.6436C38.59 34.6868 38.6107 34.7299 38.6314 34.7774C38.6521 34.8248 38.6702 34.8636 38.6909 34.9094C38.6909 34.9214 38.7013 34.9344 38.7056 34.9465C38.7203 34.9853 38.7367 35.0267 38.7513 35.0681C38.766 35.1095 38.7867 35.1691 38.8031 35.2208C38.8195 35.2726 38.8342 35.3244 38.8488 35.3778C38.8785 35.4852 38.9027 35.5941 38.9213 35.704C38.9316 35.76 38.942 35.8153 38.9498 35.8765V35.8826C38.9558 35.9197 38.9618 35.9568 38.9662 35.9939C38.9662 36.0146 38.9662 36.0353 38.9722 36.0577C38.9782 36.1008 38.9826 36.144 38.9843 36.1897C38.986 36.2354 38.9929 36.2906 38.9964 36.3424C38.9998 36.3942 38.9964 36.4563 39.0024 36.515C39.0067 36.6554 39.0027 36.796 38.9903 36.936C38.9903 36.9817 38.9817 37.0292 38.9739 37.0766C38.9662 37.1241 38.9593 37.1802 38.9515 37.2311C38.9232 37.3949 38.8825 37.5564 38.8298 37.7142C38.8135 37.7677 38.7945 37.8177 38.7738 37.8686C38.7531 37.9195 38.7349 37.9679 38.7116 38.017C38.6884 38.0662 38.6685 38.1137 38.6435 38.1637C38.6185 38.2137 38.596 38.2569 38.571 38.3017C38.546 38.3475 38.5193 38.3923 38.4925 38.4355C38.4658 38.4786 38.4364 38.5217 38.4062 38.5675C38.376 38.6132 38.3467 38.6537 38.3156 38.6952C38.2535 38.7814 38.1854 38.8582 38.1155 38.9367C38.0801 38.9738 38.0456 39.0135 38.0085 39.0506C37.9714 39.0877 37.9593 39.0998 37.9343 39.1231C37.8853 39.1727 37.8338 39.2196 37.7799 39.2637C37.7428 39.2965 37.7057 39.3276 37.666 39.3586C37.4202 39.5544 37.1513 39.7192 36.8653 39.8495C36.8282 39.8685 36.7911 39.8849 36.7514 39.9013C36.6939 39.926 36.6364 39.9488 36.5789 39.9695C36.5314 39.9884 36.4823 40.0066 36.4322 40.0212C36.3822 40.0359 36.352 40.048 36.3106 40.0601C36.2539 40.0789 36.1963 40.0947 36.138 40.1075C36.0889 40.1196 36.0388 40.1325 35.9896 40.1429C35.8916 40.1651 35.7926 40.1824 35.6928 40.1946C35.6394 40.2033 35.5859 40.2093 35.5341 40.2136C35.4823 40.2179 35.4332 40.2222 35.3814 40.224C35.3719 40.225 35.3624 40.225 35.3529 40.224C35.3037 40.224 35.2537 40.224 35.2062 40.224C35.1588 40.224 35.0889 40.224 35.0285 40.2179C34.9679 40.2155 34.9074 40.2101 34.8473 40.2015C34.7982 40.1955 34.7481 40.1895 34.7007 40.1808C34.6532 40.1722 34.6204 40.1662 34.579 40.1584C34.5376 40.1506 34.5048 40.142 34.4694 40.136C34.416 40.1213 34.3625 40.1092 34.3107 40.0928C34.2589 40.0764 34.1968 40.0601 34.1381 40.0393L34.0044 39.9902C33.9716 39.9781 33.938 39.9634 33.9052 39.9488L33.8474 39.9237C33.8043 39.9053 33.7608 39.8846 33.7171 39.8616C33.6653 39.8366 33.6162 39.8098 33.5644 39.7814C33.4781 39.7322 33.3919 39.6804 33.3056 39.6244C33.2624 39.5959 33.2193 39.5666 33.1753 39.5338C33.0178 39.4219 32.8695 39.2975 32.7318 39.1619C32.6904 39.1231 32.6456 39.0817 32.6102 39.0377C32.6063 39.036 32.6032 39.0329 32.6016 39.029C32.5956 39.0246 32.5906 39.0191 32.5869 39.0127C32.4807 38.8983 32.3816 38.7776 32.2901 38.6512C32.259 38.608 32.228 38.5649 32.1995 38.5192C32.171 38.4734 32.14 38.4286 32.1132 38.3811C32.0865 38.3337 32.0572 38.2879 32.033 38.2405C32.0088 38.193 31.9812 38.1456 31.9588 38.0964C31.9364 38.0472 31.92 38.0162 31.9027 37.9748C31.8717 37.9049 31.8432 37.8341 31.8165 37.7642C31.8018 37.7271 31.7897 37.6883 31.7776 37.6486C31.7655 37.6089 31.7492 37.5555 31.7362 37.5106C31.7233 37.4657 31.7112 37.42 31.7008 37.3725C31.6905 37.3251 31.6801 37.2776 31.6724 37.2285C31.6264 36.9677 31.6145 36.702 31.637 36.4382M38.9636 48.7274C37.9956 49.6994 37.0255 50.6706 36.0535 51.6409C35.6824 52.09 35.1685 52.3982 34.5975 52.5139C34.0265 52.6297 33.4331 52.5459 32.9165 52.2768C32.5053 52.0567 32.1663 51.7228 31.9401 51.315C31.714 50.9072 31.6102 50.4428 31.6413 49.9775C31.6273 49.658 31.6896 49.3397 31.8231 49.049C31.9567 48.7584 32.1576 48.5038 32.4092 48.3063C33.024 47.6915 33.6383 47.0778 34.252 46.4652C35.48 45.2372 36.7092 44.0106 37.9395 42.7855C38.2803 42.4447 38.6185 42.1065 38.9593 41.7683C39.8485 40.8791 40.7365 39.9905 41.6235 39.1024C42.3769 38.3472 43.1301 37.5911 43.883 36.8342C44.9684 35.7448 46.0506 34.652 47.1296 33.5557C47.3593 33.3174 47.6343 33.1275 47.9384 32.997C48.2426 32.8666 48.5697 32.7984 48.9007 32.7963C49.2316 32.7942 49.5596 32.8584 49.8654 32.9849C50.1711 33.1115 50.4485 33.298 50.6811 33.5334C50.9137 33.7688 51.0969 34.0483 51.2199 34.3556C51.3429 34.6628 51.4031 34.9915 51.3972 35.3224C51.3912 35.6533 51.3191 35.9796 51.1851 36.2822C51.0511 36.5848 50.8579 36.8576 50.6169 37.0844C49.707 37.9863 48.7976 38.8896 47.8888 39.7943C47.8888 39.7943 47.8888 39.7943 47.8828 39.7943C47.7154 39.9617 47.5481 40.1265 47.3833 40.2939C47.3833 40.2939 47.3772 40.2999 47.3746 40.3025C47.2884 40.3888 47.2021 40.475 47.1158 40.5613C46.0362 41.6409 44.9575 42.7208 43.8796 43.801C42.2432 45.4414 40.604 47.0826 38.9618 48.7248M47.7379 52.5899C47.2433 52.5991 46.7519 52.5083 46.2934 52.3228C45.8348 52.1373 45.4184 51.861 45.0693 51.5105C44.7202 51.16 44.4456 50.7426 44.2619 50.2833C44.0782 49.824 43.9892 49.3323 44.0004 48.8378C43.9963 48.6731 44.0026 48.5082 44.0194 48.3443C44.0297 48.2537 44.0418 48.1648 44.0582 48.076C44.0582 48.0553 44.0668 48.0346 44.0685 48.0139C44.091 47.9 44.1203 47.7913 44.1548 47.6817C44.2258 47.4474 44.3212 47.2213 44.4395 47.007C44.4596 46.9673 44.4818 46.9288 44.506 46.8914C44.5926 46.7456 44.6898 46.6063 44.7967 46.4747C44.8321 46.4315 44.8692 46.3884 44.9063 46.347C44.9806 46.2633 45.0592 46.1835 45.1418 46.108C45.1832 46.0692 45.2281 46.0312 45.2678 45.9967C45.3075 45.9622 45.3627 45.9182 45.4119 45.8811C45.4886 45.8233 45.5689 45.7672 45.6508 45.7163L45.7 45.6853C45.7391 45.6605 45.7782 45.6378 45.8174 45.6171C45.8648 45.5886 45.914 45.5636 45.9657 45.5386C46.0653 45.4883 46.1679 45.4442 46.2729 45.4066C46.3247 45.3859 46.3781 45.3678 46.4316 45.3505C46.4851 45.3333 46.5386 45.3177 46.5947 45.3031C46.6508 45.2884 46.706 45.2746 46.7621 45.2642C46.8182 45.2539 46.8734 45.2418 46.9295 45.2332C46.9993 45.2211 47.0701 45.2125 47.1417 45.2064C47.1805 45.2064 47.2202 45.2004 47.259 45.1978C47.2979 45.1952 47.3557 45.1918 47.4057 45.1918C47.4618 45.1918 47.5196 45.1918 47.5783 45.1918C47.756 45.1978 47.9234 45.2125 48.0899 45.2332C48.1641 45.2418 48.2365 45.2522 48.309 45.2642C48.3815 45.2763 48.4471 45.2867 48.5135 45.3013C48.5254 45.3025 48.5372 45.3045 48.5489 45.3074C48.6187 45.322 48.6869 45.3384 48.7551 45.3565C48.8232 45.3747 48.8974 45.3936 48.9656 45.4161C49.0976 45.4575 49.2244 45.5024 49.3478 45.5541C49.4202 45.5852 49.4919 45.618 49.56 45.6533L49.7188 45.7396C49.7766 45.7724 49.8301 45.806 49.8861 45.8431C49.9422 45.8802 49.9871 45.9113 50.0371 45.9484C50.0371 45.9484 50.0432 45.9484 50.0457 45.9544C50.0975 45.9915 50.145 46.0312 50.1941 46.0718C50.2433 46.1123 50.2683 46.1382 50.3054 46.1727C50.4071 46.2668 50.5017 46.3683 50.5884 46.4764C50.6523 46.5566 50.7144 46.6412 50.7696 46.7283C50.8209 46.8047 50.8678 46.884 50.9102 46.9656C50.9327 47.0087 50.956 47.0519 50.9767 47.0959C50.9974 47.1399 51.0138 47.1744 51.0327 47.2158C51.0517 47.2572 51.0681 47.3021 51.0819 47.34C51.1044 47.3961 51.1251 47.4513 51.144 47.5126C51.217 47.7335 51.2715 47.96 51.3071 48.1899C51.3131 48.2252 51.3192 48.2623 51.3235 48.2994C51.3278 48.3365 51.3356 48.3961 51.3399 48.4461C51.3442 48.4961 51.352 48.5634 51.3563 48.6238C51.3606 48.6842 51.3666 48.7705 51.3684 48.8447C51.3786 49.8214 51.0032 50.7628 50.3237 51.4644C49.6441 52.1661 48.7153 52.5715 47.7387 52.5925" fill="#DFD2EF"/>
<path d="M72.6158 47.491C71.2508 47.0782 69.8315 46.8729 68.4055 46.8819C60.0272 46.8819 54.6505 53.3207 54.6505 63.3831C54.6368 65.3043 54.8593 67.2199 55.3131 69.0868C56.9929 75.7999 61.7683 79.8842 68.4055 79.8842C76.7553 79.8842 82.1579 73.4187 82.1579 63.3831C82.1579 55.1281 78.5404 49.3106 72.6149 47.4901M68.4047 72.3989C65.6438 72.3989 63.9183 70.1557 63.4144 66.0568C63.3107 65.1691 63.2602 64.2759 63.2635 63.3822C63.2635 57.7363 65.0054 54.5268 68.1631 54.3724C68.2416 54.3724 68.3244 54.3663 68.4047 54.3663C71.6831 54.3663 73.5433 57.6207 73.5433 63.4098C73.5433 69.1989 71.7125 72.3989 68.4047 72.3989Z" fill="#885AC6"/>
</g>
</g>
</g>
</g>
<defs>
<clipPath id="clip0_1_3673">
<rect width="90.59" height="90.59" fill="white" transform="translate(0.700195 0.280029)"/>
</clipPath>
<clipPath id="clip1_1_3673">
<rect width="90.59" height="90.59" fill="white" transform="translate(0.700195 0.280029)"/>
</clipPath>
<clipPath id="clip2_1_3673">
<rect width="90.59" height="90.59" fill="white" transform="translate(0.700195 0.280029)"/>
</clipPath>
</defs>
</svg>
