<svg width="102" height="103" viewBox="0 0 102 103" fill="none" xmlns="http://www.w3.org/2000/svg">
<g clip-path="url(#clip0_1_3596)">
<g clip-path="url(#clip1_1_3596)">
<g clip-path="url(#clip2_1_3596)">
<path d="M50.8084 71.044H19.3928C19.0123 71.0603 18.6327 70.9977 18.2776 70.8603C17.9225 70.7229 17.5997 70.5135 17.3293 70.2454C17.059 69.9773 16.847 69.6561 16.7067 69.3022C16.5664 68.9482 16.5008 68.5691 16.514 68.1885C16.514 56.7512 16.514 45.3146 16.514 33.8786C16.5003 33.4982 16.5651 33.119 16.7043 32.7647C16.8434 32.4104 17.054 32.0885 17.323 31.8191C17.5919 31.5497 17.9134 31.3385 18.2675 31.1988C18.6216 31.059 19.0007 30.9936 19.3811 31.0066C40.2672 31.0021 61.1524 31.0053 82.0366 31.0163C82.474 30.9689 82.9165 31.0206 83.3312 31.1676C83.7459 31.3146 84.1222 31.553 84.4321 31.8653C84.742 32.1776 84.9777 32.5556 85.1215 32.9714C85.2654 33.3872 85.3138 33.83 85.2631 34.2671C85.2845 45.4363 85.2631 56.6055 85.2796 67.7748C85.2945 68.2138 85.2187 68.6513 85.057 69.0598C84.8952 69.4682 84.651 69.839 84.3396 70.1488C84.0282 70.4587 83.6562 70.7011 83.2469 70.8608C82.8377 71.0205 82.3999 71.0941 81.9609 71.077C71.5783 71.0216 61.1968 71.0508 50.8123 71.0488L50.8084 71.044ZM30.3949 65.3243C43.8628 65.3243 57.3238 65.3163 70.778 65.3001C70.9282 65.2693 71.0689 65.2032 71.1885 65.1073C71.3081 65.0114 71.4031 64.8883 71.4657 64.7484C71.9921 63.0048 72.9415 61.4185 74.2293 60.1306C75.5172 58.8428 77.1035 57.8934 78.8471 57.367C78.9588 57.3511 79.0662 57.3129 79.1629 57.2547C79.2596 57.1965 79.3436 57.1194 79.41 57.0281C79.4763 56.9368 79.5236 56.833 79.549 56.7231C79.5744 56.6131 79.5775 56.4992 79.558 56.388C79.5315 52.8145 79.5315 49.239 79.558 45.6616C79.558 45.0789 79.3502 44.9196 78.818 44.7331C77.1253 44.1876 75.5854 43.2501 74.3235 41.997C73.0616 40.7438 72.1134 39.2105 71.556 37.5217C71.5348 37.3924 71.4883 37.2686 71.419 37.1574C71.3497 37.0462 71.259 36.9499 71.1523 36.8739C71.0455 36.798 70.9248 36.7439 70.7971 36.7149C70.6693 36.6859 70.5371 36.6825 70.408 36.7049C57.3351 36.7191 44.2632 36.723 31.1923 36.7165H30.3881C29.8793 38.582 28.9181 40.293 27.5897 41.698C26.2613 43.103 24.6067 44.1586 22.7727 44.771C22.6449 44.8281 22.5322 44.9142 22.4435 45.0224C22.3549 45.1306 22.2926 45.2581 22.2618 45.3945C22.2307 49.3242 22.2404 53.2557 22.2404 57.1757C24.1984 57.6913 25.9848 58.7165 27.4178 60.1468C28.8509 61.5771 29.8794 63.3615 30.3988 65.3185L30.3949 65.3243Z" fill="#885AC6"/>
<path d="M34.6783 87.5521C34.2344 88.2086 33.7284 88.8846 33.2962 89.6053C33.0003 90.1326 32.5466 90.5539 31.9989 90.81C31.4512 91.066 30.837 91.144 30.2427 91.033C29.7047 90.9361 29.206 90.6865 28.806 90.314C28.4059 89.9415 28.1214 89.4619 27.9865 88.9322C27.024 86.1467 26.1168 83.3389 25.2048 80.5339C25.0639 80.1022 25.0273 79.6432 25.0981 79.1946C25.1688 78.7461 25.3449 78.3207 25.6119 77.9533C25.8789 77.5859 26.2292 77.2871 26.634 77.0813C27.0388 76.8755 27.4867 76.7686 27.9408 76.7694C30.6554 76.7529 33.3739 76.6723 36.0837 76.7956C37.8144 76.8723 38.9216 77.0365 39.3189 79.3208C39.3048 80.0556 39.1122 80.776 38.7575 81.4197C38.5134 81.8945 38.2249 82.3452 37.896 82.7658C39.7297 83.3485 41.4362 83.9313 43.165 84.4393C46.4392 85.3199 49.8437 85.6126 53.2202 85.3036C56.4876 85.0852 59.6983 84.3411 62.7286 83.0999C65.6152 81.9175 68.3241 80.3411 70.7783 78.4156C71.4504 77.6923 72.2972 77.1538 73.2374 76.8519C73.9762 76.7339 74.732 76.9046 75.3484 77.3286C75.9647 77.7526 76.3944 78.3974 76.5484 79.1295C76.8058 80.9748 75.6558 81.8295 74.5195 82.7299C72.2689 84.5533 69.8152 86.1105 67.207 87.3705C61.3018 90.1455 54.7975 91.4033 48.2834 91.0301C45.3523 90.8828 42.4551 90.3351 39.6724 89.4023C38.0155 88.8506 36.3974 88.1892 34.6783 87.5453V87.5521Z" fill="#885AC6"/>
<path d="M66.8678 14.5937C67.5525 13.6651 68.2022 12.7774 68.8637 11.8965C69.9951 10.3853 73.0011 11.0059 73.545 12.7415C74.5163 15.8262 75.5642 18.8836 76.5122 21.9751C76.5962 22.3546 76.5977 22.7478 76.5165 23.1279C76.4353 23.5081 76.2732 23.8663 76.0413 24.1783C75.8095 24.4903 75.5132 24.7488 75.1726 24.9363C74.8321 25.1237 74.4552 25.2357 74.0676 25.2646C70.9596 25.3074 67.8584 25.3618 64.7592 25.2452C64.3368 25.1969 63.9312 25.0515 63.5742 24.8204C63.2173 24.5894 62.9186 24.2789 62.7016 23.9133C62.4845 23.5476 62.355 23.1367 62.3231 22.7127C62.2911 22.2887 62.3577 21.8631 62.5176 21.469C62.8507 20.7584 63.2326 20.0717 63.6607 19.4139C61.2486 18.3044 58.6806 17.5713 56.0462 17.2403C54.1335 16.9528 52.2048 16.7844 50.2712 16.7362C46.111 16.7784 42 17.6408 38.1735 19.274C35.2161 20.5348 32.4736 22.2496 30.0452 24.3565C28.297 25.8824 26.202 25.4832 25.2861 23.4921C25.0702 22.9781 25.0151 22.4108 25.1279 21.8649C25.2408 21.3189 25.5164 20.8199 25.9184 20.4337C27.7767 18.6683 29.849 17.1429 32.0868 15.8932C35.2522 14.0728 38.6732 12.7387 42.2352 11.9354C44.2112 11.5502 46.2099 11.2926 48.219 11.1642C49.1826 11.0373 50.1541 10.9792 51.1259 10.9904C56.5668 11.0662 61.9303 12.2908 66.8648 14.5839L66.8678 14.5937Z" fill="#885AC6"/>
<path d="M42.3025 50.9781C42.2801 49.8741 42.4776 48.7766 42.8835 47.7496C43.2895 46.7227 43.8957 45.7868 44.667 44.9964C45.4382 44.2061 46.359 43.5772 47.3758 43.1463C48.3925 42.7154 49.4848 42.4911 50.5891 42.4866C55.9581 42.4866 59.4361 46.1443 59.4215 51.117C59.4124 52.241 59.182 53.3523 58.7434 54.3873C58.3048 55.4223 57.6667 56.3608 56.8654 57.1491C56.0641 57.9375 55.1154 58.5604 54.0734 58.9821C53.0315 59.4038 51.9166 59.6162 50.7926 59.6071C49.6685 59.598 48.5573 59.3675 47.5223 58.9289C46.4873 58.4904 45.5488 57.8522 44.7604 57.0509C43.972 56.2497 43.3492 55.301 42.9275 54.259C42.5057 53.217 42.2934 52.1022 42.3025 50.9781Z" fill="#DFD2EF"/>
</g>
</g>
</g>
<defs>
<clipPath id="clip0_1_3596">
<rect width="101.98" height="101.98" fill="white" transform="translate(0 0.300049)"/>
</clipPath>
<clipPath id="clip1_1_3596">
<rect width="101.98" height="101.98" fill="white" transform="translate(0 0.300049)"/>
</clipPath>
<clipPath id="clip2_1_3596">
<rect width="101.98" height="101.98" fill="white" transform="translate(0 0.300049)"/>
</clipPath>
</defs>
</svg>
