<svg width="103" height="103" viewBox="0 0 103 103" fill="none" xmlns="http://www.w3.org/2000/svg">
<g clip-path="url(#clip0_1_3612)">
<g clip-path="url(#clip1_1_3612)">
<g clip-path="url(#clip2_1_3612)">
<mask id="mask0_1_3612" style="mask-type:luminance" maskUnits="userSpaceOnUse" x="17" y="16" width="70" height="71">
<path d="M86.8551 16.811H17.4912V86.137H86.8551V16.811Z" fill="white"/>
</mask>
<g mask="url(#mask0_1_3612)">
<path d="M86.8551 55.7867V86.1369H17.498V55.1846C19.4104 56.3879 21.2053 57.5155 22.9953 58.6461C26.1168 60.6235 29.2287 62.6165 32.356 64.5861C36.6819 67.3114 41.0127 70.029 45.3483 72.7387C47.4365 74.0509 49.5246 75.3611 51.5992 76.6975C51.7418 76.8143 51.9203 76.8786 52.1047 76.8797C52.289 76.8807 52.4682 76.8185 52.6122 76.7033C53.2921 76.2595 53.9933 75.8564 54.6838 75.431C58.0456 73.359 61.4071 71.2848 64.7682 69.2083C68.5962 66.8533 72.4267 64.5033 76.2599 62.1581C78.866 60.5626 81.4751 58.9727 84.0871 57.3883C84.9991 56.8366 85.9324 56.319 86.8551 55.7867Z" fill="#885AC6"/>
<path d="M86.856 50.5033C85.9692 51.0054 85.0776 51.4988 84.1967 52.0116C83.5246 52.4001 82.8662 52.8177 82.1445 53.2567V40.9055L86.856 44.5418V50.5033Z" fill="#885AC6"/>
<path d="M26.3149 55.4469V16.8101H78.0509V17.4763C78.0509 30.0047 78.0547 42.5336 78.0625 55.0632C78.088 55.2766 78.0485 55.4927 77.9492 55.6833C77.8499 55.8739 77.6954 56.0302 77.506 56.1316C74.4621 57.977 71.4357 59.8476 68.4026 61.7094C65.0168 63.7879 61.6308 65.8654 58.2444 67.9419C56.3281 69.12 54.4206 70.3136 52.4927 71.4733C52.3841 71.522 52.2659 71.5457 52.1469 71.5427C52.0279 71.5397 51.9111 71.51 51.8051 71.4558C47.6365 68.849 43.4754 66.2299 39.3218 63.5985C35.1234 60.9515 30.9254 58.3052 26.7277 55.6596C26.6005 55.579 26.4606 55.5217 26.3149 55.4469ZM43.6146 49.162C43.8099 50.119 44.0751 51.0604 44.4081 51.9786C44.8846 53.0344 45.5899 53.9711 46.473 54.7208C47.356 55.4705 48.3948 56.0144 49.5139 56.3132C49.8937 56.4307 50.0374 56.5803 50.0209 56.9931C49.985 57.842 50.0102 58.6928 50.0102 59.5455H54.0739C54.0739 58.6345 54.0496 57.7565 54.0924 56.8824C54.1119 56.7684 54.1585 56.6609 54.2283 56.5687C54.2981 56.4766 54.3891 56.4026 54.4935 56.353C56.093 55.9233 57.5255 55.0209 58.6037 53.7637C59.4854 52.8196 60.0781 51.6427 60.3119 50.3723C60.5456 49.1019 60.4106 47.7911 59.9227 46.595C59.3234 45.2089 58.3524 44.0155 57.1171 43.147C55.8817 42.2784 54.4301 41.7685 52.923 41.6738C51.9383 41.6358 50.9647 41.4512 50.0345 41.126C49.2848 40.8486 48.6603 40.3101 48.2758 39.6092C47.8913 38.9084 47.7726 38.0923 47.9415 37.311C48.7428 34.542 52.5209 33.9786 54.6751 35.317C55.1544 35.6063 55.5606 36.0021 55.8623 36.4737C56.164 36.9453 56.3529 37.48 56.4146 38.0365H60.4423C60.4496 37.9249 60.4496 37.813 60.4423 37.7014C60.4027 37.3294 60.3434 36.9598 60.2646 36.5942C59.9281 35.225 59.2265 33.9727 58.2345 32.9707C57.2425 31.9688 55.9972 31.2547 54.6314 30.9047C54.1215 30.7425 54.0613 30.5618 54.069 30.1422C54.0865 29.3138 54.0739 28.4843 54.0739 27.6394H50.0102C50.0102 28.5446 50.0005 29.4196 50.0102 30.2947C50.0151 30.6269 49.9422 30.7726 49.5683 30.8872C47.8122 31.3636 46.2645 32.4105 45.1686 33.8631C44.5839 34.603 44.1624 35.4583 43.9319 36.3728C43.7014 37.2873 43.6671 38.2402 43.8312 39.1689C44.2145 41.0046 45.2199 42.6517 46.6773 43.8317C48.1348 45.0117 49.9551 45.6523 51.8303 45.6451C53.0017 45.6192 54.1492 45.9785 55.0966 46.6679C55.4406 46.9201 55.7272 47.2424 55.9378 47.6133C56.1483 47.9843 56.2779 48.3957 56.3181 48.8203C56.3582 49.245 56.3081 49.6734 56.1709 50.0772C56.0337 50.4811 55.8125 50.8514 55.522 51.1637C55.0223 51.6651 54.4189 52.051 53.7541 52.2941C53.0892 52.5373 52.3792 52.6318 51.674 52.571C50.73 52.5518 49.8231 52.2004 49.1126 51.5787C48.4021 50.957 47.9334 50.1047 47.789 49.1717L43.6146 49.162Z" fill="#DFD2EF"/>
<path d="M22.2221 40.929V52.7441C21.8472 52.5547 21.5141 52.4187 21.2149 52.2293C20.1058 51.529 18.9947 50.8288 17.9127 50.0848C17.7998 49.9958 17.7063 49.8847 17.6378 49.7583C17.5693 49.6318 17.5274 49.4928 17.5145 49.3496C17.4776 47.8617 17.4864 46.3718 17.5077 44.8819C17.5033 44.6469 17.5899 44.4193 17.7496 44.2467C19.1093 43.1628 20.4982 42.11 21.8822 41.0523C21.9888 40.996 22.1025 40.9542 22.2202 40.928" fill="#885AC6"/>
</g>
</g>
</g>
</g>
<defs>
<clipPath id="clip0_1_3612">
<rect width="101.98" height="101.98" fill="white" transform="translate(0.97998 0.300049)"/>
</clipPath>
<clipPath id="clip1_1_3612">
<rect width="101.98" height="101.98" fill="white" transform="translate(0.97998 0.300049)"/>
</clipPath>
<clipPath id="clip2_1_3612">
<rect width="101.98" height="101.98" fill="white" transform="translate(0.97998 0.300049)"/>
</clipPath>
</defs>
</svg>
