<svg width="103" height="103" viewBox="0 0 103 103" fill="none" xmlns="http://www.w3.org/2000/svg">
<g clip-path="url(#clip0_1_3632)">
<g clip-path="url(#clip1_1_3632)">
<g clip-path="url(#clip2_1_3632)">
<path d="M16.5098 51.3133V48.7007C16.5682 48.617 16.6152 48.5258 16.6496 48.4297C16.8739 47.127 17.4828 45.9212 18.3979 44.9673C26.8917 36.4573 35.39 27.9509 43.8929 19.448C44.3249 19.0296 44.8898 18.7757 45.4896 18.7302C46.9299 18.536 48.3732 18.3689 49.8135 18.1689C51.3364 17.9562 52.8564 17.7095 54.3783 17.489C55.7497 17.2948 57.1221 17.1199 58.4935 16.9189C59.9484 16.7072 61.4023 16.4831 62.8553 16.2468C63.5857 16.1312 64.3141 15.9778 65.0445 15.8398H66.4198C66.6433 15.9658 66.8549 16.1117 67.052 16.2759C68.5458 17.7678 70.0279 19.2722 71.5139 20.7728V20.9379L65.7292 26.5711C65.4116 26.2331 65.061 25.8135 64.6608 25.4444C64.3012 24.9953 63.7799 24.7049 63.2088 24.6355C62.6376 24.5662 62.062 24.7234 61.6053 25.0734C61.5577 25.1113 61.5082 25.1462 61.4596 25.1841C61.1033 25.5732 60.8999 26.0782 60.8872 26.6057C60.8746 27.1332 61.0534 27.6474 61.3907 28.0532C63.3791 30.0818 65.3863 32.0906 67.4124 34.0797C67.7847 34.3877 68.2522 34.5573 68.7354 34.5596C69.2186 34.5619 69.6876 34.3968 70.0629 34.0923C70.3817 33.8483 70.6129 33.5076 70.722 33.1212C70.831 32.7348 70.8121 32.3235 70.6679 31.9488C70.1334 31.0978 69.5436 30.2828 68.9022 29.509C70.7252 27.6889 72.6473 25.7727 74.5898 23.8322C76.1108 25.3454 77.6764 26.8809 79.2119 28.4485C79.3957 28.6723 79.4895 28.9566 79.4751 29.2458C79.4246 30.1413 79.3226 31.0339 79.2119 31.9255C78.9924 33.7009 78.7778 35.4773 78.5233 37.2469C78.2251 39.3215 77.8677 41.3892 77.5715 43.4628C77.2753 45.5364 77.0334 47.6304 76.7372 49.7108C76.6449 50.4666 76.2987 51.1686 75.7553 51.7018C67.4111 60.0092 59.0837 68.3346 50.7731 76.6782C49.4786 77.9956 47.7483 78.796 45.9062 78.9295C44.8657 79.0365 43.8145 78.9064 42.8314 78.549C41.8484 78.1915 40.9591 77.616 40.2303 76.8656C33.0496 69.7251 25.8874 62.5661 18.7436 55.3887C18.3598 55.0396 18.0322 54.6333 17.7724 54.1843C17.3004 53.2539 16.9293 52.2739 16.5156 51.3114L16.5098 51.3133ZM52.2775 31.5137C51.0363 31.5137 50.6148 31.8245 50.1991 33.0677C46.9895 42.6907 43.7744 52.3105 40.5537 61.927C40.3872 62.4475 40.4258 63.012 40.6615 63.505C40.8973 63.998 41.3125 64.3824 41.8222 64.5795C42.0766 64.6727 42.3474 64.7132 42.618 64.6985C42.8887 64.6838 43.1534 64.6142 43.3963 64.4939C43.6392 64.3736 43.855 64.2051 44.0307 63.9988C44.2064 63.7924 44.3383 63.5525 44.4183 63.2936C45.3759 60.4954 46.3093 57.6885 47.2436 54.8836C49.5312 48.0202 51.8156 41.1568 54.0967 34.2934C54.6163 32.7258 53.815 31.5117 52.2814 31.5117L52.2775 31.5137ZM41.8086 48.1015C41.8571 47.2248 41.701 46.3488 41.3525 45.5429C41.0041 44.737 40.4729 44.0232 39.801 43.458C39.1397 42.8652 38.3566 42.4244 37.5068 42.1667C36.6569 41.9089 35.7609 41.8405 34.8817 41.9661C33.3768 42.1229 31.986 42.8405 30.9862 43.976C29.9863 45.1116 29.4505 46.582 29.4855 48.0947C29.4832 48.9309 29.6523 49.7587 29.9823 50.527C30.3124 51.2953 30.7965 51.9878 31.4047 52.5618C32.0128 53.1357 32.7322 53.5789 33.5183 53.864C34.3044 54.1491 35.1406 54.27 35.9753 54.2193C38.8366 54.1222 42.0378 51.4726 41.8076 48.1005L41.8086 48.1015ZM58.8849 54.2037C59.7278 54.2263 60.5663 54.0753 61.3483 53.7601C62.1304 53.4449 62.8393 52.9722 63.4309 52.3715C64.0226 51.7707 64.4844 51.0547 64.7877 50.268C65.0909 49.4812 65.2292 48.6405 65.1938 47.7981C65.1584 46.9556 64.9502 46.1295 64.5821 45.3709C64.2139 44.6123 63.6937 43.9376 63.0538 43.3886C62.4138 42.8395 61.6678 42.428 60.8621 42.1794C60.0564 41.9309 59.2081 41.8507 58.3701 41.9438C56.8041 42.0933 55.3551 42.8377 54.3217 44.0238C53.2882 45.2098 52.7491 46.7471 52.8153 48.3188C52.8816 49.8905 53.5482 51.3769 54.6777 52.4718C55.8073 53.5667 57.3138 54.1866 58.8868 54.2037H58.8849Z" fill="#885AC6"/>
<path d="M61.6052 25.0764C61.5576 25.1143 61.508 25.1493 61.4595 25.1871C61.5071 25.1493 61.5566 25.1153 61.6052 25.0764Z" fill="white"/>
<path d="M42.7138 82.9408C44.4998 83.2865 46.3404 83.2292 48.1015 82.7732C49.8625 82.3171 51.4996 81.4739 52.8934 80.3049C53.3091 79.9562 53.7238 79.6017 54.1074 79.22C62.4232 70.9146 70.7334 62.6028 79.0382 54.2844C80.01 53.2855 80.6079 51.982 80.731 50.5937C80.8961 49.1563 81.1671 47.7305 81.3759 46.297C81.5362 45.1907 81.6673 44.0806 81.8227 42.9744C82.0315 41.5175 82.2588 40.0607 82.4715 38.6038C82.5424 38.1182 82.5861 37.6267 82.6463 37.1392C82.6667 36.9741 82.7007 36.8099 82.759 36.4739C83.7506 37.8035 84.6412 38.9991 85.5299 40.1908C85.658 40.4001 85.8025 40.5989 85.9621 40.7852C86.3212 41.1737 86.5921 41.6352 86.7564 42.1381C86.9207 42.6409 86.9744 43.1734 86.9139 43.6989C86.9032 55.2013 86.9139 66.7017 86.8994 78.2041C86.9518 79.3035 86.7677 80.4013 86.3593 81.4234C85.951 82.4455 85.328 83.3681 84.5324 84.1286C83.2029 85.4396 81.4198 86.1887 79.5529 86.2207C69.1283 86.2395 58.7037 86.2375 48.279 86.2149C46.8419 86.1519 45.4718 85.5889 44.4057 84.623C43.7939 84.118 43.2723 83.5041 42.7109 82.9408H42.7138Z" fill="#DFD2EF"/>
<path d="M35.677 46.0882C37.0755 46.094 37.6932 46.7807 37.6845 48.322C37.6272 48.8248 37.3811 49.287 36.9959 49.6151C36.6108 49.9433 36.1154 50.1129 35.6099 50.0897C35.0722 50.0617 34.5646 49.8327 34.1877 49.4481C33.8109 49.0635 33.5922 48.5514 33.5752 48.0132C33.5783 47.7461 33.6361 47.4824 33.7451 47.2386C33.8542 46.9947 34.012 46.7758 34.209 46.5953C34.406 46.4149 34.6379 46.2768 34.8904 46.1896C35.1429 46.1024 35.4106 46.0678 35.677 46.0882Z" fill="#DFD2EF"/>
<path d="M58.9887 46.0881C59.2715 46.0661 59.5557 46.1063 59.8213 46.2058C60.0868 46.3053 60.3274 46.4618 60.5261 46.6643C60.7247 46.8667 60.8766 47.1102 60.9711 47.3776C61.0656 47.6451 61.1004 47.9299 61.073 48.2122C61.0121 48.749 60.7487 49.2423 60.3364 49.5914C59.9241 49.9405 59.3942 50.1191 58.8547 50.0906C58.3358 50.0312 57.8558 49.7866 57.5027 49.4018C57.1497 49.017 56.9472 48.5177 56.9326 47.9957C56.9412 47.735 57.0014 47.4787 57.1096 47.2415C57.2178 47.0042 57.372 46.7908 57.5631 46.6134C57.7543 46.4361 57.9787 46.2983 58.2234 46.2082C58.4681 46.118 58.7282 46.0772 58.9887 46.0881Z" fill="#DFD2EF"/>
</g>
</g>
</g>
<defs>
<clipPath id="clip0_1_3632">
<rect width="101.98" height="101.98" fill="white" transform="translate(0.969727 0.300049)"/>
</clipPath>
<clipPath id="clip1_1_3632">
<rect width="101.98" height="101.98" fill="white" transform="translate(0.969727 0.300049)"/>
</clipPath>
<clipPath id="clip2_1_3632">
<rect width="101.98" height="101.98" fill="white" transform="translate(0.969727 0.300049)"/>
</clipPath>
</defs>
</svg>
